<svg width="264" height="170" viewBox="0 0 264 170" fill="none" xmlns="http://www.w3.org/2000/svg">
<rect width="264" height="170" fill="#D70826"/>
<g clip-path="url(#clip0_4276_167)">
<path d="M61.1898 62H44.3663C37.5464 62 31.9999 68.1417 31.9999 75.6935V94.3222C31.9999 101.874 37.5464 108.016 44.3663 108.016H61.1898C68.0098 108.016 73.5421 101.874 73.5421 94.3222V75.6935C73.5421 68.1417 67.9956 62 61.1898 62Z" fill="white"/>
<path d="M65.8871 90.656V90.8597C65.8163 91.6587 65.3635 92.4734 64.6136 92.4734C64.0335 92.4734 63.5807 92.2384 63.1987 91.7527C62.7459 91.173 62.3356 90.4836 61.9253 89.2302C63.0855 84.859 66.6794 70.8208 66.6794 70.8208H59.8595C59.8595 70.8208 59.2228 74.111 58.6568 77.1035C58.6285 77.0252 58.6002 76.9625 58.5719 76.8842C58.0059 75.5368 57.1004 74.0483 56.0816 72.9986C54.3271 71.1655 52.2613 70.2725 49.7569 70.2725C46.3186 70.2725 43.4039 71.6825 41.0975 74.4714C38.8053 77.2445 37.6027 80.7854 37.6027 84.7336C37.6027 89.1362 38.7488 92.7398 41.0126 95.4659C43.3756 98.3018 46.2054 99.6335 49.9125 99.6335C52.0632 99.6335 54.129 98.9285 56.0392 97.534C57.2702 96.6253 58.4021 95.3876 59.4633 93.7582C59.9161 95.3562 60.3547 96.453 60.8924 97.2677C61.7696 98.5838 63.0714 99.3515 64.4721 99.3515C65.8729 99.3515 67.2595 98.5211 67.9529 97.1894C68.5613 96.0143 68.8018 94.5415 68.8018 92.1287V90.6716H65.8729L65.8871 90.656ZM54.4544 93.4605C53.4215 95.1369 52.0774 96.0143 50.5492 96.0143C48.7806 96.0143 47.4364 95.1369 46.446 93.3195C45.4131 91.4237 44.8895 88.5722 44.8895 84.8433C44.8895 81.4278 45.4414 78.7173 46.545 76.7902C47.5779 74.9727 48.8655 74.1267 50.6058 74.1267C52.1481 74.1267 53.365 74.8317 54.412 76.3671C55.5439 78.0122 56.4919 80.7384 57.1711 84.2323C56.3222 88.9639 55.4732 91.8154 54.4686 93.4605" fill="#D70926"/>
<path d="M94.3414 71.4952C93.8745 69.1451 92.5303 67.5 89.5872 67.5C86.8281 67.5 85.3141 69.1451 84.8331 71.4952L82.6965 82.1335H84.9746C85.4981 82.1335 86.0075 81.6792 86.1207 81.1151L86.5451 78.953H92.5869L93.0255 81.1151C93.1387 81.6792 93.6481 82.1335 94.1716 82.1335H96.4496L94.3131 71.4952M87.1394 75.9448L87.8893 72.1689C88.0167 71.5579 88.4411 70.6335 89.5589 70.6335C90.6767 70.6335 91.1153 71.5579 91.2285 72.1689L91.9785 75.9448H87.1253H87.1394Z" fill="white"/>
<path d="M102.095 71.0556H107.189V82.1326H110.345V67.8438H100.85C99.8174 67.8438 98.9543 68.7838 98.9543 69.9432V77.166C98.9543 78.1373 98.5582 78.7484 97.8507 78.9051L97.1998 79.0774L97.7799 82.1482H98.3742C100.525 82.1482 102.081 80.3778 102.081 77.354V71.0713" fill="white"/>
<path d="M137.709 67.8444H136.563V66.1836H134.356C133.832 66.1836 133.408 66.6536 133.408 67.2333V67.8444H132.262C128.371 67.8444 125.937 70.7899 125.937 74.9888C125.937 79.1877 128.371 82.1332 132.262 82.1332H133.408V83.8723H135.615C136.139 83.8723 136.563 83.4023 136.563 82.8226V82.1332H137.709C141.6 82.1332 144.034 79.1877 144.034 74.9888C144.034 70.7899 141.6 67.8444 137.709 67.8444ZM132.262 78.984C130.111 78.984 129.092 77.4799 129.092 74.9888C129.092 72.4976 130.111 71.0092 132.262 71.0092H133.408V78.984H132.262ZM137.709 78.984H136.563V71.0092H137.709C139.86 71.0092 140.879 72.5133 140.879 74.9888C140.879 77.4642 139.86 78.984 137.709 78.984Z" fill="white"/>
<path d="M120.108 71.463H115.58V67.8438H112.425V81.0829C112.425 81.6626 112.849 82.1326 113.373 82.1326H120.093C122.838 82.1326 124.904 79.8451 124.904 76.8056C124.904 73.7661 123.164 71.4786 120.093 71.4786M120.093 78.9364H115.566V74.6905H120.093C120.858 74.6905 121.763 75.4582 121.763 76.8213C121.763 78.1843 120.872 78.9521 120.093 78.9521" fill="white"/>
<path d="M155.792 71.4952C155.325 69.1451 153.981 67.5 151.038 67.5C148.279 67.5 146.765 69.1451 146.284 71.4952L144.147 82.1335H146.425C146.949 82.1335 147.458 81.6792 147.571 81.1151L148.01 78.953H154.051L154.476 81.1151C154.589 81.6792 155.113 82.1335 155.622 82.1335H157.9L155.764 71.4952M148.59 75.9448L149.34 72.1689C149.467 71.5579 149.892 70.6335 151.009 70.6335C152.127 70.6335 152.566 71.5579 152.679 72.1689L153.429 75.9448H148.576H148.59Z" fill="white"/>
<path d="M174.044 94.7599C174.596 94.1489 174.95 93.3342 174.95 92.1904C174.95 89.6523 173.181 87.8818 170.889 87.8818H163.192C162.668 87.8818 162.244 88.3519 162.244 88.9316V101.137C162.244 101.716 162.668 102.186 163.192 102.186H171.384C173.789 102.186 175.402 100.275 175.402 97.7367C175.402 96.4677 174.851 95.4649 174.044 94.7599ZM170.889 90.843C171.313 90.843 171.879 91.36 171.879 92.2531C171.879 93.1461 171.299 93.6005 170.889 93.6632H165.328V90.843H170.889ZM171.144 99.2095H165.328V96.3893H171.144C171.568 96.452 172.134 96.9064 172.134 97.7994C172.134 98.6925 171.568 99.2095 171.144 99.2095Z" fill="white"/>
<path d="M153.245 87.5693C149.354 87.5693 146.623 90.6402 146.623 95.0428C146.623 99.4454 149.339 102.516 153.245 102.516H154.32C158.211 102.516 160.942 99.4454 160.942 95.0428C160.942 90.6402 158.225 87.5693 154.32 87.5693H153.245ZM150.033 95.0428C150.033 92.4733 151.264 90.5148 153.429 90.5148H154.122C156.287 90.5148 157.518 92.4733 157.518 95.0428C157.518 97.6123 156.287 99.5707 154.122 99.5707H153.429C151.264 99.5707 150.033 97.6123 150.033 95.0428Z" fill="white"/>
<path d="M94.4545 87.8984L94.8648 90.0606C94.978 90.6403 95.4874 91.1103 96.0109 91.1103H98.9539V102.187H102.109V91.1103H104.953C105.477 91.1103 105.986 90.6403 106.099 90.0606L106.51 87.8984H94.4545Z" fill="white"/>
<path d="M200.56 87.8984V93.5701H194.434V87.8984H191.279V102.187H194.434V96.6253H200.56V102.187H203.716V87.8984H200.56Z" fill="white"/>
<path d="M131.115 91.5333C130.649 89.1832 129.304 87.5381 126.361 87.5381C123.602 87.5381 122.088 89.1832 121.621 91.5333L119.485 102.172H121.763C122.286 102.172 122.796 101.717 122.909 101.153L123.333 98.9911H129.375L129.8 101.153C129.913 101.717 130.422 102.172 130.946 102.172H133.224L131.087 91.5333M123.913 95.9829L124.663 92.207C124.791 91.596 125.215 90.6716 126.333 90.6716C127.451 90.6716 127.889 91.596 128.003 92.207L128.753 95.9672H123.899L123.913 95.9829Z" fill="white"/>
<path d="M187.755 91.5333C187.288 89.1832 185.944 87.5381 183.001 87.5381C180.242 87.5381 178.728 89.1832 178.247 91.5333L176.11 102.172H178.388C178.912 102.172 179.421 101.717 179.534 101.153L179.973 98.9911H186.015L186.453 101.153C186.567 101.717 187.076 102.172 187.599 102.172H189.877L187.741 91.5333M180.567 95.9829L181.317 92.207C181.445 91.596 181.869 90.6716 182.987 90.6716C184.105 90.6716 184.543 91.596 184.656 92.207L185.406 95.9672H180.553L180.567 95.9829Z" fill="white"/>
<path d="M95.4313 102.14V102.187H89.2764C85.5551 102.187 82.9517 99.2574 82.9517 95.0429C82.9517 90.8283 85.5551 87.8984 89.2764 87.8984H93.9456L93.4929 90.0919C93.3797 90.6559 92.8562 91.1103 92.3326 91.1103H89.2764C87.2813 91.1103 86.0928 92.7554 86.0928 95.0429C86.0928 97.3303 87.2813 98.9754 89.2764 98.9754H93.8183C94.3418 98.9754 94.8653 99.4298 94.9785 99.9938L95.4313 102.14Z" fill="white"/>
<path d="M114.943 87.8984H108.222C107.699 87.8984 107.274 88.3685 107.274 88.9482V102.187H110.429V98.5681H114.943C118.028 98.5681 119.754 96.2806 119.754 93.2411C119.754 90.2016 117.688 87.9141 114.943 87.9141M114.943 95.3719H110.429V91.126H114.943C115.707 91.126 116.613 91.8937 116.613 93.2411C116.613 94.5885 115.721 95.3719 114.943 95.3719Z" fill="white"/>
<path d="M230.415 99.1634H223.624V96.4216H230.995V93.6641H223.624V90.9066H230.415C230.967 90.9066 231.42 90.6403 231.576 89.8882L232 87.8984H221.431C220.907 87.8984 220.483 88.3685 220.483 88.9482V101.153C220.483 101.733 220.907 102.203 221.431 102.203H232L231.576 100.213C231.42 99.4611 230.981 99.1948 230.415 99.1948" fill="white"/>
<path d="M205.88 102.187V87.8984H209.036V97.3303L214.497 88.7445C214.808 88.2745 215.473 87.8984 215.997 87.8984H218.332V102.187H215.176V92.7554L209.715 101.341C209.403 101.811 208.738 102.187 208.215 102.187H205.88Z" fill="white"/>
<path d="M142.746 94.9645L147.146 87.8984H144.26C143.637 87.8984 143.199 88.1021 142.803 88.7758L140.454 92.8494H140.029L137.681 88.7758C137.299 88.1021 136.86 87.8984 136.223 87.8984H133.238L137.723 95.1212L133.323 102.187H136.209C136.832 102.187 137.27 101.984 137.666 101.31L140.015 97.2363H140.44L142.788 101.31C143.17 101.984 143.609 102.187 144.246 102.187H147.231L142.746 94.9645Z" fill="white"/>
</g>
<defs>
<clipPath id="clip0_4276_167">
<rect width="200" height="46" fill="white" transform="translate(32 62)"/>
</clipPath>
</defs>
</svg>
