<svg width="264" height="170" viewBox="0 0 264 170" fill="none" xmlns="http://www.w3.org/2000/svg">
<rect width="264" height="170" fill="#064B92"/>
<g clip-path="url(#clip0_4276_202)">
<path d="M54.1969 86.8758H47.2492L50.9384 75.6077L54.1969 86.8758ZM43.9907 98.2917L46.1869 91.4072H55.1156L57.3119 98.2917H64.7046L56.8238 72.1789C56.3788 70.4712 55.5032 69.9199 53.5653 69.9199H42.67V72.2865H43.5457C44.8663 72.2865 45.5266 72.663 45.5266 73.6177C45.5266 74.1959 45.5266 74.6127 44.8663 76.0111L36.9999 98.2917" fill="white"/>
<path d="M74.0208 98.2917V72.0041C74.0208 70.6326 73.1452 69.9199 71.6379 69.9199H64.8768V72.2865H65.3218C66.6425 72.2865 67.3028 72.7974 67.3028 73.9V98.2917M86.208 98.2917V72.0041C86.208 70.6326 85.3324 69.9199 83.8252 69.9199H77.064V72.2865H77.509C78.8297 72.2865 79.49 72.7974 79.49 73.9V98.2917" fill="white"/>
<path d="M98.6395 72.4206C98.6395 70.5381 97.1035 69.4355 94.7207 69.4355C92.1224 69.4355 90.8018 70.5381 90.8018 72.4206C90.8018 74.3031 92.1224 75.473 94.7207 75.473C97.1035 75.473 98.6395 74.3435 98.6395 72.4206ZM98.4242 98.2914V79.1438C98.4242 77.8126 97.5485 77.0596 96.2279 77.0596H89.4668V79.359H89.9118C91.2324 79.359 91.6631 79.8699 91.6631 81.0398V98.3049M114.53 87.9915V92.2406C113.21 93.4776 111.717 94.1634 110.396 94.1634C109.075 94.1634 108.415 93.5852 108.415 91.9716C108.415 90.2236 108.86 89.5379 110.396 88.9866C111.487 88.5697 112.592 88.3008 114.53 87.9915ZM104.941 82.9222L105.602 82.6802C107.353 82.0348 108.415 81.7928 109.736 81.5507C110.396 81.4835 111.272 81.3759 111.717 81.3759C113.913 81.3759 114.53 82.0617 114.53 83.9173V84.4282C111.501 84.9123 110.611 85.0468 108.86 85.4233C107.984 85.625 107.109 85.9073 106.262 86.2435C103.448 87.3058 102.128 89.3227 102.128 92.5498C102.128 96.5569 103.879 98.4797 107.798 98.4797C109.334 98.4797 110.827 98.1435 111.932 97.4847C113.023 97.0006 113.468 96.7586 114.746 95.6291V96.2745C114.746 97.6057 115.406 98.2242 116.727 98.2242H123.272V96.0324H123.057C121.736 96.0324 121.076 95.4811 121.076 94.392V84.0114C121.076 78.5925 119.095 76.7504 113.468 76.7504C111.487 76.7504 109.779 76.9521 108.013 77.3286C106.262 77.7051 105.415 78.0143 103.434 78.969M133.464 98.2914V83.9038C135 82.5726 136.062 82.0482 137.598 82.0482C139.134 82.0482 139.579 82.6668 139.579 84.8182V98.278H146.34V83.7828C146.34 80.7977 145.895 79.5338 145.02 78.4043C143.929 77.3017 142.637 76.7907 140.67 76.7907C138.072 76.7907 136.091 77.6782 133.062 80.1523V79.0228C133.062 77.6916 132.402 77.0327 131.081 77.0327H124.536V79.3321H124.751C126.072 79.3321 126.732 79.843 126.732 81.0129V98.278" fill="white"/>
<path d="M167.226 94.2977H157.307L166.982 81.5237V77.1133H152.599C150.862 77.1133 150.115 77.8125 150.115 79.4395V83.3927H152.599V82.9221C152.599 81.7657 153.345 81.2951 154.58 81.2951H159.791L149.871 94.0691V98.4795H167.241" fill="white"/>
<path d="M205.668 97.0816V73.147C205.668 71.2914 204.678 70.5922 202.941 70.5922H196.984V73.147H197.73C198.721 73.147 199.223 73.6177 199.223 74.774V97.0816H205.668ZM209.142 97.0816H215.344V78.9559C215.344 77.1003 214.353 76.4011 212.616 76.4011H209.142V97.0816ZM195.749 97.0816V76.4011H192.275C190.294 76.4011 189.548 77.1003 189.548 78.9559V97.0816H195.749ZM223.038 85.0067C223.038 96.1538 214.353 104.517 202.453 104.517C190.553 104.517 181.868 96.3823 181.868 85.0067C181.868 73.6311 190.553 65.4961 202.453 65.4961C214.353 65.4961 223.038 73.8597 223.038 85.0067ZM227 85.0067C227 71.7621 216.578 62 202.439 62C188.299 62 177.878 71.7621 177.878 85.0067C177.878 98.2514 188.543 108.013 202.439 108.013C216.578 108.013 227 98.2514 227 85.0067Z" fill="white"/>
</g>
<defs>
<clipPath id="clip0_4276_202">
<rect width="190" height="46" fill="white" transform="translate(37 62)"/>
</clipPath>
</defs>
</svg>
