<svg width="1920" height="660" viewBox="0 0 1920 660" fill="none" xmlns="http://www.w3.org/2000/svg">
<g opacity="0.3">
<mask id="mask0_4113_6112" style="mask-type:luminance" maskUnits="userSpaceOnUse" x="0" y="-142" width="2158" height="1017">
<path d="M2157.85 874.714V-141.926L0 -141.926V874.714L2157.85 874.714Z" fill="white"/>
</mask>
<g mask="url(#mask0_4113_6112)">
<path d="M2313.1 -141.926C1939.56 452.602 1639.82 -158.822 1206.37 -62.4989C926.269 -0.248792 979.277 232.072 860.633 359.303C485.435 761.645 130.494 -128.577 -182.314 874.685" stroke="#65C2C9" stroke-width="0.333333" stroke-miterlimit="10"/>
<path d="M2313.02 -124.984C1940.84 463.188 1644.5 -143.386 1214.19 -48.633C936.723 12.5962 987.097 241.37 868.82 366.942C492.942 764.561 140.595 -106.11 -167.08 880.715" stroke="#63BFC6" stroke-width="0.373333" stroke-miterlimit="10"/>
<path d="M2312.94 -108.021C1942.12 473.81 1649.2 -127.916 1222.01 -34.7446C947.18 25.4637 994.92 250.69 877.009 374.603C500.439 767.488 150.699 -83.608 -151.844 886.768" stroke="#61BCC3" stroke-width="0.413333" stroke-miterlimit="10"/>
<path d="M2312.86 -91.0791C1943.39 484.396 1653.88 -112.467 1229.83 -20.8787C957.635 38.3087 1003.09 260.293 885.21 382.241C509.088 771.362 160.815 -61.1409 -136.609 892.786" stroke="#5EB8C0" stroke-width="0.453333" stroke-miterlimit="10"/>
<path d="M2312.79 -74.1387C1944.68 494.994 1658.59 -97.0199 1237.65 -7.01374C968.088 51.1527 1011.02 269.692 893.396 389.891C516.948 774.583 170.915 -38.662 -121.377 898.815" stroke="#5CB5BD" stroke-width="0.48" stroke-miterlimit="10"/>
<path d="M2312.71 -57.1973C1945.96 505.58 1663.28 -81.5715 1245.47 6.86494C978.543 64.0105 1018.95 279.104 901.596 397.542C524.796 777.806 181.03 -16.1949 -106.129 904.846" stroke="#5AB1BA" stroke-width="0.52" stroke-miterlimit="10"/>
<path d="M2312.63 -40.2568C1947.23 516.178 1667.98 -66.1242 1253.29 20.7299C988.986 76.8545 1026.87 288.489 909.786 405.18C532.632 781.054 191.134 6.29671 -90.8931 910.875" stroke="#58AEB6" stroke-width="0.56" stroke-miterlimit="10"/>
<path d="M2312.55 -23.3037C1948.51 526.789 1672.66 -50.6641 1261.11 34.6075C999.44 89.7112 1034.8 297.901 917.986 412.83C540.466 784.288 201.248 28.7755 -75.6597 916.918" stroke="#56ABB3" stroke-width="0.6" stroke-miterlimit="10"/>
<path d="M2312.46 -6.375C1949.79 537.362 1677.36 -35.2285 1268.92 48.4607C1009.88 102.543 1042.69 307.287 926.159 420.468C548.272 787.486 211.35 51.2427 -60.4259 922.922" stroke="#54A8B0" stroke-width="0.64" stroke-miterlimit="10"/>
<path d="M2312.38 10.5898C1951.06 547.985 1681.85 -20.599 1276.74 62.3501C1020.21 114.876 1050.6 316.697 934.347 428.13C556.08 790.732 221.466 73.7332 -45.1912 928.976" stroke="#52A5AD" stroke-width="0.68" stroke-miterlimit="10"/>
<path d="M2312.32 27.5303C1952.35 558.57 1686.54 -5.24099 1284.58 76.215C1030.67 127.669 1058.52 326.083 942.564 435.767C563.876 793.941 231.569 96.2121 -29.9548 935.005" stroke="#50A2AB" stroke-width="0.72" stroke-miterlimit="10"/>
<path d="M2312.24 44.4834C1953.63 569.181 1691.22 10.1297 1292.4 90.0926C1041.11 140.475 1066.42 335.494 950.751 443.417C571.656 797.176 241.672 118.691 -14.7202 941.035" stroke="#4E9FA8" stroke-width="0.76" stroke-miterlimit="10"/>
<path d="M2312.15 61.4121C1954.91 579.754 1695.89 25.4888 1300.22 103.959C1051.55 153.269 1074.32 344.868 958.952 451.068C579.422 800.386 251.801 141.171 0.527588 947.066" stroke="#4C9BA5" stroke-width="0.786667" stroke-miterlimit="10"/>
<path d="M2312.07 78.3652C1956.18 590.365 1700.56 40.8595 1308.03 117.836C1061.98 166.087 1082.2 354.267 967.125 458.719C587.16 803.595 261.887 163.65 15.7469 953.108" stroke="#4A99A2" stroke-width="0.826667" stroke-miterlimit="10"/>
<path d="M2311.99 95.3057C1957.46 600.95 1705.25 56.2303 1315.85 131.701C1072.42 178.88 1090.09 363.652 975.325 466.356C594.899 806.792 272.003 186.116 30.9946 959.124" stroke="#48969F" stroke-width="0.866667" stroke-miterlimit="10"/>
<path d="M2311.91 112.271C1958.73 611.573 1709.92 71.6255 1323.67 145.591C1082.88 191.697 1097.98 373.062 983.514 474.018C602.626 810.013 282.106 208.606 46.2167 965.166" stroke="#46939C" stroke-width="0.906667" stroke-miterlimit="10"/>
<path d="M2311.84 129.199C1960.02 622.146 1714.62 86.9845 1331.5 159.444C1093.33 204.491 1105.86 382.424 991.714 481.656C610.351 813.197 292.22 231.073 61.4631 971.196" stroke="#44909A" stroke-width="0.946667" stroke-miterlimit="10"/>
<path d="M2311.76 146.152C1961.3 632.757 1719.3 102.368 1339.31 173.321C1103.76 217.31 1113.73 391.809 999.903 489.306C618.038 816.393 302.324 253.565 76.6995 977.225" stroke="#428D97" stroke-width="0.986667" stroke-miterlimit="10"/>
<path d="M2311.68 163.093C1962.58 643.342 1723.97 117.752 1347.13 187.199C1114.21 230.128 1121.6 401.195 1008.09 496.956C625.721 819.577 312.424 276.044 91.9188 983.267" stroke="#418A94" stroke-width="1.02667" stroke-miterlimit="10"/>
<path d="M2311.6 180.022C1963.85 653.93 1728.66 133.112 1354.95 201.053C1124.66 242.923 1129.46 410.557 1016.29 504.583C633.394 822.737 322.541 298.499 107.168 989.273" stroke="#3F8791" stroke-width="1.06667" stroke-miterlimit="10"/>
<path d="M2311.51 196.986C1965.13 664.551 1733.34 148.519 1362.77 214.942C1135.1 255.753 1137.32 419.941 1024.48 512.257C641.051 825.932 332.642 321.002 122.401 995.326" stroke="#3D848F" stroke-width="1.09333" stroke-miterlimit="10"/>
<path d="M2311.45 213.939C1966.42 675.149 1738.04 163.915 1370.61 228.819C1145.57 268.571 1145.19 429.313 1032.69 519.907C648.71 829.09 342.773 343.48 137.665 1001.37" stroke="#3C818C" stroke-width="1.13333" stroke-miterlimit="10"/>
<path d="M2311.36 230.88C1967.69 685.747 1742.72 179.298 1378.41 242.684C1156.01 281.377 1153.02 438.674 1040.87 527.544C656.312 832.235 352.859 365.959 152.87 1007.39" stroke="#3A7F89" stroke-width="1.17333" stroke-miterlimit="10"/>
<path d="M2311.29 247.81C1968.97 696.322 1747.41 194.671 1386.24 256.538C1166.45 294.184 1160.87 448.023 1049.05 535.171C663.917 835.37 362.963 388.415 168.106 1013.4" stroke="#397C86" stroke-width="1.21333" stroke-miterlimit="10"/>
<path d="M2311.2 264.763C1970.25 706.932 1752.11 210.08 1394.06 270.429C1176.9 307.028 1168.72 457.396 1057.26 542.846C671.521 838.528 373.078 410.919 183.354 1019.46" stroke="#377984" stroke-width="1.25333" stroke-miterlimit="10"/>
<path d="M2311.12 281.687C1971.53 717.502 1756.79 225.461 1401.88 284.278C1187.36 319.831 1176.55 466.74 1065.44 550.468C679.098 841.632 383.194 433.369 198.588 1025.46" stroke="#367681" stroke-width="1.29333" stroke-miterlimit="10"/>
<path d="M2311.04 298.643C1972.8 728.115 1761.47 240.873 1409.68 298.158C1197.79 332.665 1184.37 476.103 1073.63 558.121C686.66 844.754 393.296 455.851 213.809 1031.5" stroke="#35747F" stroke-width="1.33333" stroke-miterlimit="10"/>
<path d="M2310.97 315.589C1974.09 738.706 1766.19 256.274 1417.52 312.029C1208.26 345.489 1192.21 485.443 1081.83 565.763C694.223 847.854 403.411 478.335 229.057 1037.53" stroke="#33717C" stroke-width="1.36" stroke-miterlimit="10"/>
<path d="M2310.89 332.547C1975.37 749.322 1770.87 271.701 1425.34 325.911C1218.71 358.325 1200.03 494.796 1090.03 573.431C701.758 850.953 413.526 500.832 244.305 1043.59" stroke="#326E79" stroke-width="1.4" stroke-miterlimit="10"/>
<path d="M2310.81 349.486C1976.64 759.905 1775.57 287.108 1433.16 339.774C1229.16 371.154 1207.85 504.128 1098.22 581.067C709.28 854.02 423.627 523.296 259.538 1049.6" stroke="#316C77" stroke-width="1.44" stroke-miterlimit="10"/>
<path d="M2310.73 366.437C1977.92 770.514 1780.25 302.528 1440.97 353.65C1239.61 383.997 1215.64 513.474 1106.41 588.715C716.776 857.087 433.731 545.773 274.76 1055.63" stroke="#2F6975" stroke-width="1.48" stroke-miterlimit="10"/>
<path d="M2310.65 383.37C1979.2 781.091 1784.95 317.929 1448.79 367.52C1250.06 396.833 1223.45 522.801 1114.59 596.357C724.256 860.135 443.831 568.244 289.994 1061.66" stroke="#2E6672" stroke-width="1.52" stroke-miterlimit="10"/>
<path d="M2310.57 400.315C1980.47 791.694 1789.65 333.356 1456.61 381.389C1260.52 409.669 1231.26 532.127 1122.78 604.012C731.725 863.17 453.934 590.74 305.229 1067.7" stroke="#2D6470" stroke-width="1.56" stroke-miterlimit="10"/>
<path d="M2310.5 417.273C1981.76 802.31 1794.36 348.796 1464.44 395.273C1270.99 422.518 1239.06 541.455 1131 611.668C739.207 866.194 464.064 613.225 320.478 1073.73" stroke="#2C616D" stroke-width="1.6" stroke-miterlimit="10"/>
<path d="M2310.42 434.21C1983.04 812.892 1799.06 364.227 1472.26 409.134C1281.44 435.359 1246.86 550.76 1139.18 619.302C746.633 869.17 474.165 635.687 335.711 1079.76" stroke="#2A5F6B" stroke-width="1.64" stroke-miterlimit="10"/>
<path d="M2310.33 451.164C1984.31 823.503 1803.75 379.674 1480.07 423.012C1291.88 448.216 1254.64 560.082 1147.37 626.952C754.06 872.149 484.266 658.166 350.945 1085.79" stroke="#295D69" stroke-width="1.66667" stroke-miterlimit="10"/>
<path d="M2310.25 468.108C1985.59 834.092 1808.45 395.112 1487.89 436.88C1302.35 461.063 1262.42 569.382 1155.56 634.605C761.461 875.119 494.37 680.649 366.181 1091.83" stroke="#285A66" stroke-width="1.70667" stroke-miterlimit="10"/>
<path d="M2310.17 485.044C1986.87 844.686 1813.15 410.543 1495.71 450.754C1312.81 473.916 1270.2 578.687 1163.76 642.252C768.862 878.057 504.486 703.136 381.416 1097.86" stroke="#275864" stroke-width="1.74667" stroke-miterlimit="10"/>
<path d="M2310.09 501.983C1988.14 855.27 1817.85 425.989 1503.53 464.618C1323.26 486.772 1277.98 587.969 1171.95 649.888C776.245 880.958 514.585 725.601 396.647 1103.87" stroke="#265562" stroke-width="1.78667" stroke-miterlimit="10"/>
<path d="M2310.02 518.935C1989.43 865.879 1822.57 441.461 1511.35 478.495C1333.72 499.64 1285.76 597.265 1180.14 657.537C783.606 883.848 524.688 748.079 411.883 1109.92" stroke="#245360" stroke-width="1.82667" stroke-miterlimit="10"/>
<path d="M2309.94 535.894C1990.71 876.482 1827.27 456.926 1519.18 492.377C1344.18 512.515 1293.52 606.553 1188.34 665.205C790.965 886.743 534.817 770.576 427.131 1115.96" stroke="#23515D" stroke-width="1.86667" stroke-miterlimit="10"/>
<path d="M2309.86 552.831C1991.99 887.077 1831.97 472.396 1527 506.239C1354.64 525.368 1301.29 615.821 1196.52 672.839C798.297 889.566 544.919 793.038 442.351 1121.99" stroke="#224F5B" stroke-width="1.90667" stroke-miterlimit="10"/>
<path d="M2309.78 569.783C1993.26 897.675 1836.68 487.881 1534.82 520.116C1365.11 538.25 1309.06 625.091 1204.72 680.488C805.628 892.391 555.034 815.529 457.599 1128.02" stroke="#214C59" stroke-width="1.93333" stroke-miterlimit="10"/>
<path d="M2309.7 586.718C1994.54 908.266 1841.4 503.347 1542.64 533.987C1375.56 551.126 1316.81 634.356 1212.91 688.132C812.936 895.173 565.139 838.002 472.836 1134.04" stroke="#204A57" stroke-width="1.97333" stroke-miterlimit="10"/>
<path d="M2309.63 603.667C1995.83 918.861 1846.1 518.842 1550.46 547.861C1386.03 564.005 1324.56 643.61 1221.11 695.792C820.238 897.945 575.251 860.49 488.068 1140.09" stroke="#1F4854" stroke-width="2.01333" stroke-miterlimit="10"/>
<path d="M2309.55 620.599C1997.1 929.451 1850.82 534.32 1558.28 561.718C1396.49 576.866 1332.33 652.847 1229.3 703.421C827.516 900.661 585.354 882.948 503.303 1146.1" stroke="#1E4652" stroke-width="2.05333" stroke-miterlimit="10"/>
<path d="M2309.46 637.547C1998.38 940.056 1855.51 549.825 1566.1 575.59C1406.95 589.756 1340.07 662.087 1237.49 711.065C834.793 903.354 595.455 905.421 518.536 1152.14" stroke="#1D4450" stroke-width="2.09333" stroke-miterlimit="10"/>
<path d="M2309.38 654.512C1999.66 950.666 1860.23 565.361 1573.92 589.48C1417.41 602.663 1347.82 671.332 1245.69 718.727C842.059 906.026 605.573 927.925 533.786 1158.18" stroke="#1C414E" stroke-width="2.13333" stroke-miterlimit="10"/>
<path d="M2309.3 671.447C2000.94 961.259 1864.94 580.867 1581.73 603.34C1427.87 615.553 1355.56 680.546 1253.87 726.372C849.298 908.656 615.663 950.399 548.995 1164.2" stroke="#1B3F4C" stroke-width="2.17333" stroke-miterlimit="10"/>
<path d="M2309.22 688.4C2002.21 971.856 1869.65 596.403 1589.55 617.217C1438.33 628.46 1363.3 689.766 1262.07 734.022C856.561 911.252 625.777 972.877 564.242 1170.24" stroke="#1A3E4A" stroke-width="2.21333" stroke-miterlimit="10"/>
<path d="M2309.15 705.313C2003.5 982.427 1874.37 611.912 1597.38 631.067C1448.8 641.34 1371.07 698.958 1270.27 741.645C863.797 913.796 635.891 995.328 579.488 1176.25" stroke="#193C48" stroke-width="2.24" stroke-miterlimit="10"/>
<path d="M2309.07 722.278C2004.78 993.037 1879.07 627.487 1605.2 644.957C1459.27 654.273 1378.81 708.177 1278.47 749.307C871.047 916.328 646.006 1017.82 594.736 1182.3" stroke="#183A47" stroke-width="2.28" stroke-miterlimit="10"/>
<path d="M2308.99 739.229C2006.05 1003.65 1883.78 643.047 1613.03 658.832C1469.72 667.191 1386.55 717.369 1286.65 756.968C878.257 918.82 656.108 1040.32 609.957 1188.34" stroke="#173845" stroke-width="2.32" stroke-miterlimit="10"/>
</g>
</g>
</svg>
