<svg width="200" height="60" viewBox="0 0 200 60" fill="none" xmlns="http://www.w3.org/2000/svg">
<g clip-path="url(#clip0_4113_5993)">
<path d="M0 0.333984H13.1835C16.3245 0.333984 18.8027 0.977736 20.5893 2.27716C22.3903 3.57658 23.2836 5.10251 23.2836 6.86687C23.2836 9.13192 21.9004 10.8724 19.1197 12.0765C21.2088 12.5533 22.8226 13.3878 23.932 14.58C25.0414 15.7721 25.6033 17.1788 25.6033 18.7643C25.6033 21.0294 24.6956 22.8772 22.8802 24.2958C21.0648 25.7145 18.3848 26.4298 14.8404 26.4298H0V0.333984ZM7.93891 6.18735V10.4671H11.3969C15.2871 10.4671 15.2871 9.07231 15.2871 8.26166C15.2871 7.45101 15.1142 6.21119 11.3969 6.18735H7.93891ZM7.93891 16.2609V20.5525H11.93C17.65 20.5525 17.6356 19.1339 17.6356 18.4186C17.6356 17.7033 17.6356 16.2847 11.9156 16.2728H7.93891V16.2609Z" fill="#1D1D1B"/>
<path d="M56.8834 4.02941C53.8289 1.34711 49.8522 0 44.9246 0C39.997 0 35.9916 1.33519 32.937 4.01748C29.8825 6.69978 28.3552 9.82317 28.3552 13.3996C28.3552 16.976 29.8969 20.1709 32.9658 22.8174C36.0492 25.4639 40.0259 26.7753 44.9246 26.7753C49.8234 26.7753 53.728 25.452 56.8258 22.7936C59.9091 20.1351 61.4652 17.0117 61.4652 13.3996C61.4652 9.7874 59.938 6.7117 56.8978 4.02941H56.8834ZM51.2786 18.4304C49.6217 19.849 47.5037 20.5643 44.9102 20.5643C42.3168 20.5643 40.1555 19.8609 38.4986 18.4423C36.8561 17.0236 36.0204 15.3427 36.0204 13.3996C36.0204 11.4564 36.8416 9.81125 38.4698 8.38069C40.1123 6.95013 42.2447 6.23485 44.8958 6.23485C47.5469 6.23485 49.6649 6.95013 51.3075 8.39261C52.9356 9.83509 53.7569 11.5041 53.7569 13.4115C53.7569 15.3189 52.9356 17.0236 51.2786 18.4423V18.4304Z" fill="#1D1D1B"/>
<path d="M126.778 4.02941C123.723 1.34711 119.747 0 114.819 0C109.891 0 105.886 1.33519 102.831 4.01748C99.7768 6.69978 98.2495 9.82317 98.2495 13.3996C98.2495 16.976 99.7912 20.1709 102.86 22.8174C105.943 25.4639 109.92 26.7753 114.819 26.7753C119.718 26.7753 123.622 25.452 126.72 22.7936C129.803 20.1351 131.36 17.0117 131.36 13.3996C131.36 9.7874 129.832 6.7117 126.792 4.02941H126.778ZM121.173 18.4304C119.516 19.849 117.398 20.5643 114.805 20.5643C112.211 20.5643 110.05 19.8609 108.393 18.4423C106.75 17.0236 105.915 15.3427 105.915 13.3996C105.915 11.4564 106.736 9.81125 108.364 8.38069C110.007 6.95013 112.139 6.23485 114.79 6.23485C117.441 6.23485 119.559 6.95013 121.202 8.39261C122.83 9.83509 123.651 11.5041 123.651 13.4115C123.651 15.3189 122.83 17.0236 121.173 18.4423V18.4304Z" fill="#1D1D1B"/>
<path d="M93.8406 0.333984V26.4298H87.4578L73.6547 11.5162V26.4298H65.7158V0.333984H72.0842L85.8873 15.2356V0.333984H93.8262H93.8406Z" fill="#1D1D1B"/>
<path d="M153.015 23.4137L143.506 12.3507V26.4417H135.567V0.333984H141.935L153.015 13.9004L164.095 0.333984H170.463V26.4298H162.524V12.3388L153.015 23.4017V23.4137Z" fill="#1D1D1B"/>
<path d="M184.886 0.333984V26.4298H176.947V0.333984H184.886Z" fill="#1D1D1B"/>
<path d="M67.6321 43.8706H65.7158V31.8301H67.6321V43.8706Z" fill="#1D1D1B"/>
<path d="M83.7835 43.8706H81.8528L74.5335 34.5958V43.8706H72.6028V31.8301H74.5335L81.8817 41.1525V31.8301H83.7835V43.8706Z" fill="#1D1D1B"/>
<path d="M89.374 43.8706V31.8301H93.4804C94.7483 31.8301 95.8577 32.0566 96.8375 32.5215C97.8172 32.9864 98.5664 33.6421 99.0851 34.5005C99.6182 35.3588 99.8776 36.3363 99.892 37.445V38.208C99.892 39.3405 99.6327 40.3419 99.0995 41.1883C98.5664 42.0347 97.8172 42.7023 96.8375 43.1553C95.8577 43.6083 94.7051 43.8468 93.4083 43.8587H89.374V43.8706ZM91.2903 33.1295V42.5712H93.3075C94.7915 42.5712 95.9442 42.1897 96.7654 41.4267C97.5867 40.6638 98.0045 39.5789 98.0045 38.1722V37.4689C98.0045 36.0979 97.6155 35.0369 96.8375 34.2739C96.0594 33.511 94.9644 33.1295 93.538 33.1176H91.3047L91.2903 33.1295Z" fill="#1D1D1B"/>
<path d="M114.343 31.8301V40.02C114.343 41.1525 113.911 42.0824 113.047 42.8096C112.197 43.5368 111.03 43.9421 109.56 44.0256H109.056C107.456 44.0375 106.188 43.6918 105.252 42.9765C104.301 42.2612 103.825 41.2837 103.811 40.0439V31.842H105.713V39.9962C105.713 40.8664 106.001 41.546 106.577 42.0228C107.154 42.4997 107.989 42.75 109.056 42.75C110.122 42.75 110.972 42.5116 111.548 42.0347C112.125 41.5579 112.413 40.8784 112.413 40.0081V31.842H114.343V31.8301Z" fill="#1D1D1B"/>
<path d="M122.859 38.5057C121.216 38.1123 120.02 37.6355 119.271 37.0632C118.522 36.491 118.147 35.7877 118.147 34.9532C118.147 33.9995 118.608 33.2246 119.516 32.6047C120.438 31.9848 121.619 31.6748 123.089 31.6748C124.083 31.6748 124.977 31.8298 125.769 32.1517C126.547 32.4735 127.152 32.9146 127.584 33.4749C128.017 34.0352 128.233 34.6551 128.233 35.3227H126.302C126.302 34.5955 126.028 34.0233 125.466 33.6061C124.905 33.1888 124.112 32.9742 123.104 32.9742C122.153 32.9742 121.418 33.1411 120.885 33.4868C120.352 33.8326 120.092 34.3094 120.092 34.9293C120.092 35.4181 120.337 35.8353 120.841 36.1811C121.346 36.5268 122.196 36.8367 123.406 37.1109C124.616 37.397 125.567 37.707 126.245 38.0408C126.922 38.3746 127.44 38.7799 127.757 39.2329C128.089 39.6859 128.247 40.2224 128.247 40.8304C128.247 41.8079 127.786 42.5828 126.864 43.1789C125.942 43.7749 124.717 44.0611 123.176 44.0611C122.181 44.0611 121.245 43.9061 120.38 43.5842C119.516 43.2623 118.853 42.8332 118.378 42.2848C117.902 41.7364 117.672 41.1046 117.672 40.4131H119.602C119.602 41.1403 119.934 41.7126 120.582 42.1417C121.23 42.5709 122.095 42.7736 123.19 42.7736C124.199 42.7736 124.977 42.6067 125.524 42.2609C126.057 41.9152 126.331 41.4503 126.331 40.8661C126.331 40.282 126.086 39.8171 125.582 39.4952C125.077 39.1733 124.17 38.8514 122.859 38.5415V38.5057Z" fill="#1D1D1B"/>
<path d="M141.402 33.1295H136.719V43.8706H134.817V33.1295H130.149V31.8301H141.402V33.1295Z" fill="#1D1D1B"/>
<path d="M148.75 38.9948H145.335V43.8706H143.405V31.8301H148.217C149.859 31.8301 151.113 32.14 151.992 32.7599C152.871 33.3798 153.317 34.2739 153.317 35.4542C153.317 36.2052 153.072 36.8609 152.583 37.4093C152.093 37.9696 151.415 38.3868 150.537 38.661L153.951 43.7752V43.8706H151.891L148.736 38.9948H148.75ZM145.335 37.6954H148.289C149.24 37.6954 150.003 37.4927 150.565 37.0874C151.127 36.6821 151.415 36.1337 151.415 35.4422C151.415 34.7031 151.142 34.1309 150.609 33.7256C150.076 33.3202 149.297 33.1295 148.289 33.1176H145.35V37.6954H145.335Z" fill="#1D1D1B"/>
<path d="M158.749 43.8706H156.833V31.8301H158.749V43.8706Z" fill="#1D1D1B"/>
<path d="M170.622 38.3034H164.311V42.5712H171.63V43.8706H162.38V31.8301H171.529V33.1295H164.311V37.0039H170.622V38.3034Z" fill="#1D1D1B"/>
<path d="M179.526 38.5057C177.884 38.1123 176.688 37.6355 175.938 37.0632C175.189 36.491 174.815 35.7877 174.815 34.9532C174.815 33.9995 175.276 33.2246 176.183 32.6047C177.105 31.9848 178.287 31.6748 179.757 31.6748C180.751 31.6748 181.644 31.8298 182.437 32.1517C183.215 32.4735 183.82 32.9146 184.252 33.4749C184.684 34.0352 184.9 34.6551 184.9 35.3227H182.97C182.97 34.5955 182.696 34.0233 182.134 33.6061C181.572 33.1888 180.78 32.9742 179.771 32.9742C178.82 32.9742 178.085 33.1411 177.552 33.4868C177.019 33.8326 176.76 34.3094 176.76 34.9293C176.76 35.4181 177.005 35.8353 177.509 36.1811C178.013 36.5268 178.863 36.8367 180.074 37.1109C181.284 37.397 182.235 37.707 182.912 38.0408C183.589 38.3746 184.108 38.7799 184.425 39.2329C184.756 39.6859 184.915 40.2224 184.915 40.8304C184.915 41.8079 184.454 42.5828 183.532 43.1789C182.609 43.763 181.385 44.0611 179.843 44.0611C178.849 44.0611 177.912 43.9061 177.048 43.5842C176.183 43.2623 175.521 42.8332 175.045 42.2848C174.57 41.7364 174.339 41.1046 174.339 40.4131H176.27C176.27 41.1403 176.601 41.7126 177.25 42.1417C177.898 42.559 178.762 42.7736 179.857 42.7736C180.866 42.7736 181.644 42.6067 182.192 42.2609C182.725 41.9152 182.998 41.4503 182.998 40.8661C182.998 40.282 182.753 39.8171 182.249 39.4952C181.745 39.1733 180.837 38.8514 179.526 38.5415V38.5057Z" fill="#1D1D1B"/>
<path d="M65.7158 48.6152H184.915L169.887 60.0001L65.7158 49.0206V48.6152Z" fill="#E20E17"/>
<path d="M191.081 3.88635C191.081 3.18299 191.283 2.53924 191.672 1.93125C192.061 1.33519 192.609 0.858335 193.3 0.512617C193.992 0.166898 194.741 0 195.548 0C196.355 0 197.104 0.166898 197.796 0.512617C198.487 0.858335 199.035 1.33519 199.424 1.93125C199.813 2.52732 200.014 3.18299 200.014 3.88635C200.014 4.58971 199.827 5.20962 199.452 5.80568C199.078 6.40175 198.545 6.8786 197.853 7.24816C197.162 7.6058 196.398 7.79654 195.562 7.79654C194.727 7.79654 193.977 7.61772 193.286 7.26008C192.594 6.90244 192.061 6.42559 191.672 5.82953C191.283 5.23346 191.096 4.58971 191.096 3.89827L191.081 3.88635ZM191.802 3.88635C191.802 4.48242 191.975 5.0308 192.306 5.54341C192.637 6.05603 193.098 6.44943 193.675 6.73555C194.251 7.02166 194.871 7.16471 195.548 7.16471C196.225 7.16471 196.845 7.02166 197.421 6.72362C197.997 6.43751 198.458 6.03219 198.775 5.53149C199.107 5.0308 199.265 4.48242 199.265 3.88635C199.265 3.29028 199.107 2.7419 198.775 2.25313C198.444 1.75243 197.997 1.35903 197.421 1.07292C196.845 0.786807 196.211 0.643751 195.548 0.643751C194.885 0.643751 194.251 0.786807 193.675 1.07292C193.098 1.35903 192.637 1.75243 192.306 2.26505C191.975 2.76575 191.802 3.31413 191.802 3.91019V3.88635ZM194.611 4.27975V6.03219H193.718V1.6213H195.447C196.081 1.6213 196.585 1.74051 196.945 1.96702C197.306 2.19352 197.479 2.52732 197.479 2.95649C197.479 3.38565 197.205 3.70753 196.672 3.93404C197.176 4.11286 197.435 4.45857 197.45 4.99503V5.31691C197.45 5.61494 197.479 5.82953 197.551 5.96066V6.04411H196.643C196.585 5.9249 196.556 5.69839 196.556 5.37652C196.556 5.05464 196.556 4.8639 196.542 4.80429C196.47 4.4705 196.196 4.3036 195.721 4.27975H194.611ZM194.611 3.61216H195.591C195.894 3.61216 196.139 3.54063 196.326 3.43334C196.513 3.31413 196.6 3.17107 196.6 2.98033C196.6 2.72998 196.513 2.55116 196.355 2.44387C196.196 2.33658 195.894 2.28889 195.476 2.28889H194.611V3.61216Z" fill="#1D1D1B"/>
</g>
<defs>
<clipPath id="clip0_4113_5993">
<rect width="200" height="60" fill="white"/>
</clipPath>
</defs>
</svg>
