<svg width="200" height="60" viewBox="0 0 200 60" fill="none" xmlns="http://www.w3.org/2000/svg">
<g clip-path="url(#clip0_4113_6013)">
<path d="M44.3452 59.9775L199.297 59.9775V53.7508L44.3452 53.7508V59.9775Z" stroke="#02905A" stroke-width="0.0533333" stroke-miterlimit="10"/>
<path d="M147.641 59.9775L199.297 59.9775V53.7508L147.641 53.7508V59.9775Z" fill="#E20E17"/>
<path d="M44.3452 59.9775L96.0006 59.9775V53.7508L44.3452 53.7508V59.9775Z" fill="#02905A"/>
<path d="M192.499 30.109H199.297V5.28258H192.499V30.109ZM175.169 30.109H181.966V8.97719H189.115V5.28258H168.019V8.97719H175.169V30.109ZM151.67 30.109H158.468V8.97719H165.617V5.28258H144.521V8.97719H151.67V30.109ZM133.753 9.9325L136.757 21.0509H130.692L133.753 9.9325ZM120.862 30.109H128.172L129.695 24.7455H137.753L139.218 30.109H146.528L138.148 5.28258H129.271L120.891 30.109H120.862ZM106.27 30.4773C109.654 30.4658 113.141 30.132 116.73 29.4875V16.9419H106.812V20.6365H109.933V26.3568C108.512 26.61 107.472 26.7481 106.827 26.7481C105.201 26.7481 104.117 26.3223 103.589 25.4591C103.062 24.5958 102.798 22.8118 102.798 20.1071V14.2256C102.798 12.1424 103.077 10.6921 103.619 9.87495C104.161 9.05776 105.142 8.65492 106.534 8.65492C107.706 8.65492 108.585 8.95417 109.156 9.55268C109.728 10.1512 110.006 11.0489 109.962 12.2459V12.9826H116.716V12.2459C116.833 9.80589 116.071 7.97585 114.43 6.75582C112.804 5.53579 110.299 4.92578 106.93 4.92578C103.077 4.92578 100.293 5.67391 98.5791 7.18168C96.8651 8.67794 96.0154 11.1295 95.9861 14.5134V20.3948C96.0007 24.1585 96.7625 26.7827 98.2714 28.2674C99.7804 29.7522 102.447 30.4888 106.27 30.4888H106.241L106.27 30.4773ZM90.8586 5.28258H84.1343V23.4794C84.1343 24.7109 83.8853 25.5742 83.3725 26.0576C82.8598 26.541 81.9515 26.7827 80.6623 26.7827C79.3731 26.7827 78.4502 26.541 77.9521 26.0576C77.4393 25.5742 77.1903 24.7109 77.1903 23.4794V5.28258H70.466V23.1456C70.466 25.5972 71.3157 27.4387 73.0151 28.6588C74.7145 29.8788 77.2635 30.4888 80.6623 30.4888C84.0611 30.4888 86.6101 29.8788 88.3095 28.6588C90.0089 27.4387 90.8586 25.6087 90.8586 23.1456V5.28258ZM51.1282 19.3244H52.9447C54.9811 19.3244 56.3142 19.5546 56.9295 20.015C57.5448 20.4754 57.8525 21.4422 57.8525 22.9154V22.409C57.8525 24.0088 57.5448 25.0677 56.9442 25.5972C56.3289 26.1266 55.1129 26.3913 53.2817 26.3913H51.1428V19.3359L51.1282 19.3244ZM51.1282 9.01172H52.8715C54.6588 9.01172 55.8747 9.24191 56.5193 9.71381C57.1639 10.1857 57.5009 11.0604 57.5009 12.3495V11.8546C57.5009 13.3394 57.1639 14.3407 56.5047 14.8356C55.8454 15.3305 54.4976 15.5838 52.4906 15.5838H51.1282V9.00021V9.01172ZM44.3306 30.109H53.8091C58.0722 30.109 60.9436 29.6256 62.4232 28.6588C63.9029 27.6919 64.65 25.8159 64.65 23.042V23.5485C64.65 21.1084 63.8736 19.451 62.3207 18.5648C61.3391 18.0123 59.8155 17.6325 57.7792 17.4253C59.6983 17.2296 61.0901 16.8613 61.9837 16.3319C63.478 15.4571 64.2251 13.7537 64.2251 11.2331V11.728C64.2251 9.24191 63.5366 7.54999 62.1595 6.64072C60.7824 5.74297 58.1894 5.28258 54.3804 5.28258H44.3453V30.109H44.3306Z" fill="#02905A"/>
<path d="M19.2792 0L0 27.324L19.2792 54.648L38.4852 27.324L19.2792 0ZM4.60006 27.301L19.3085 6.51448L33.9877 27.324L19.3085 48.1911L4.60006 27.301Z" fill="#02905A"/>
<path d="M11.3097 22.5015L19.3085 38.6842L27.3513 22.4785L22.678 22.513L19.3085 29.2002L15.8805 22.4785L11.3097 22.5015Z" fill="#02905A"/>
<path d="M27.1022 2.84254C26.7066 3.1533 26.2379 3.30293 25.7105 3.30293C25.1831 3.30293 24.7143 3.1533 24.3187 2.84254C23.9232 2.53178 23.7327 2.16347 23.7327 1.74912C23.7327 1.33477 23.9232 0.966462 24.3187 0.6557C24.7143 0.344938 25.1831 0.195312 25.7105 0.195312C26.2379 0.195312 26.7066 0.344938 27.1022 0.6557C27.4977 0.966462 27.6882 1.33477 27.6882 1.74912C27.6882 2.16347 27.4831 2.53178 27.1022 2.84254ZM26.9264 0.793816C26.5748 0.517584 26.1793 0.379468 25.7105 0.379468C25.2417 0.379468 24.8461 0.517584 24.4945 0.793816C24.1429 1.07005 23.9671 1.38081 23.9671 1.74912C23.9671 2.11743 24.1429 2.42819 24.4945 2.70442C24.8461 2.98066 25.2417 3.11877 25.7105 3.11877C26.1793 3.11877 26.5748 2.98066 26.9264 2.70442C27.278 2.42819 27.4538 2.11743 27.4538 1.74912C27.4538 1.38081 27.278 1.07005 26.9264 0.793816ZM24.7729 0.678719H26.0328C26.2379 0.678719 26.4137 0.724758 26.5601 0.816836C26.692 0.966462 26.7652 1.10458 26.7652 1.2542C26.7652 1.43836 26.692 1.59949 26.5601 1.74912C26.4869 1.78365 26.3844 1.81818 26.2525 1.85271L26.7799 2.75046H26.399L25.9449 1.87573H25.1098V2.77348H24.8022V0.690229L24.7729 0.678719ZM25.0805 0.897403V1.66855H25.9888C26.106 1.64553 26.1939 1.611 26.2672 1.55346C26.3551 1.4844 26.399 1.38081 26.399 1.2542C26.399 1.16213 26.3551 1.08156 26.2672 1.0125C26.1939 0.943442 26.106 0.897403 25.9888 0.897403H25.0805Z" fill="#02905A"/>
<path d="M52.798 36.8193H55.5668L51.2158 46.8443H48.696L44.389 36.8193H47.2311L49.9999 44.4272L52.798 36.8193Z" fill="#02905A"/>
<path d="M59.9472 36.8193H62.965L67.4772 46.8443H64.5912L63.7561 44.784H59.0682L58.2038 46.8443H55.4203L59.9618 36.8193H59.9472ZM59.7714 43.0576H63.0383L61.4268 39.1098L59.7714 43.0576Z" fill="#02905A"/>
<path d="M69.2938 36.8193H71.96V45.0373H78.3181V46.8443H69.2938V36.8193Z" fill="#02905A"/>
<path d="M86.5072 36.8193H89.2761L84.925 46.8443H82.4053L78.0982 36.8193H80.9403L83.7091 44.4272L86.5072 36.8193Z" fill="#02905A"/>
<path d="M100.425 45.9467C99.458 46.7294 98.0663 47.1207 96.2497 47.1207C94.4331 47.1207 93.0414 46.7294 92.0745 45.9467C90.7853 44.9914 90.1407 43.6103 90.1407 41.8148C90.1407 40.0192 90.7853 38.6036 92.0745 37.6828C93.0414 36.9001 94.4331 36.5088 96.2497 36.5088C98.0663 36.5088 99.458 36.9001 100.425 37.6828C101.714 38.6036 102.359 39.9847 102.359 41.8148C102.359 43.6448 101.714 44.9914 100.425 45.9467ZM98.7548 44.4275C99.3701 43.8174 99.6778 42.9427 99.6778 41.8148C99.6778 40.6868 99.3701 39.8236 98.7548 39.2021C98.1395 38.592 97.3045 38.2813 96.2497 38.2813C95.1949 38.2813 94.3598 38.592 93.7299 39.2021C93.1 39.8121 92.7923 40.6868 92.7923 41.8148C92.7923 42.9427 93.1 43.8174 93.7299 44.4275C94.3598 45.0375 95.1949 45.3482 96.2497 45.3482C97.3045 45.3482 98.1395 45.0375 98.7548 44.4275Z" fill="#02905A"/>
<path d="M106.519 43.7486C106.607 44.209 106.768 44.5428 107.003 44.773C107.442 45.1873 108.204 45.3945 109.273 45.3945C109.918 45.3945 110.431 45.3369 110.841 45.2333C111.603 45.0262 111.984 44.6348 111.984 44.0709C111.984 43.7371 111.793 43.4839 111.427 43.2997C111.061 43.1271 110.46 42.9659 109.654 42.8278L108.277 42.5861C106.915 42.3559 105.992 42.0912 105.479 41.815C104.615 41.3546 104.19 40.6295 104.19 39.6396C104.19 38.7419 104.615 37.9937 105.45 37.4068C106.285 36.8083 107.53 36.5205 109.156 36.5205C110.519 36.5205 111.676 36.7967 112.628 37.3607C113.595 37.9247 114.093 38.7304 114.137 39.8008H111.573C111.529 39.2023 111.178 38.7649 110.548 38.5117C110.123 38.339 109.596 38.2585 108.966 38.2585C108.263 38.2585 107.706 38.3621 107.281 38.5807C106.856 38.7994 106.651 39.0987 106.651 39.49C106.651 39.8468 106.856 40.1115 107.266 40.2957C107.53 40.4108 108.101 40.5489 108.966 40.71L111.207 41.1244C112.189 41.3085 112.921 41.5502 113.405 41.8495C114.166 42.3214 114.547 43.0005 114.547 43.8982C114.547 44.796 114.093 45.5786 113.2 46.1771C112.306 46.7756 111.031 47.0864 109.391 47.0864C107.75 47.0864 106.387 46.7872 105.435 46.1886C104.468 45.5901 103.999 44.773 103.999 43.7256H106.534L106.519 43.7486Z" fill="#02905A"/>
<path d="M120.129 36.8193H123.146L127.659 46.8443H124.773L123.938 44.784H119.25L118.385 46.8443H115.602L120.143 36.8193H120.129ZM119.953 43.0576H123.22L121.608 39.1098L119.953 43.0576Z" fill="#02905A"/>
<path d="M129.461 36.8193H132.259L137.313 43.8057V36.8193H139.789V46.8443H137.123L131.937 39.7313V46.8443H129.461V36.8193Z" fill="#02905A"/>
<path d="M145.136 46.8326H142.484V36.8076H145.136V46.8326Z" fill="#02905A"/>
<path d="M157.193 36.8193V38.5918H153.384V46.8443H150.703V38.5918H146.879V36.8193H157.208H157.193Z" fill="#02905A"/>
<path d="M161.324 36.8193H164.342L168.854 46.8443H165.968L165.133 44.784H160.445L159.581 46.8443H156.798L161.339 36.8193H161.324ZM161.149 43.0576H164.415L162.804 39.1098L161.149 43.0576Z" fill="#02905A"/>
<path d="M178.816 37.0723C179.285 37.2335 179.68 37.4637 180.003 37.7744C180.266 38.0276 180.486 38.3039 180.647 38.6146C180.808 38.9254 180.882 39.2707 180.882 39.6735C180.882 40.1454 180.735 40.6173 180.427 41.0777C180.12 41.5381 179.622 41.8604 178.919 42.056C179.505 42.2402 179.915 42.5049 180.164 42.8502C180.413 43.1955 180.53 43.7134 180.53 44.4155V45.0831C180.53 45.5435 180.559 45.8542 180.603 46.0154C180.677 46.2686 180.838 46.4642 181.101 46.5909V46.8441H178.157C178.083 46.6254 178.025 46.4412 177.981 46.3031C177.908 46.0269 177.878 45.7391 177.864 45.4399V44.5076C177.834 43.8631 177.703 43.4372 177.424 43.23C177.146 43.0229 176.648 42.9078 175.901 42.9078H173.293V46.8326H170.685V36.8076H176.78C177.644 36.8191 178.318 36.9112 178.787 37.0608L178.816 37.0723ZM173.308 38.5571V41.2504H176.179C176.75 41.2504 177.175 41.1928 177.454 41.0892C177.952 40.8936 178.215 40.5252 178.215 39.9613C178.215 39.3513 177.966 38.9484 177.483 38.7412C177.204 38.6261 176.794 38.5686 176.252 38.5686H173.308V38.5571Z" fill="#02905A"/>
<path d="M186.126 46.8326H183.475V36.8076H186.126V46.8326Z" fill="#02905A"/>
<path d="M192.484 36.8193H195.502L200.014 46.8443H197.128L196.293 44.784H191.605L190.741 46.8443H187.958L192.514 36.8193H192.484ZM192.309 43.0576H195.575L193.964 39.1098L192.309 43.0576Z" fill="#02905A"/>
</g>
<defs>
<clipPath id="clip0_4113_6013">
<rect width="200" height="60" fill="white"/>
</clipPath>
</defs>
</svg>
