<svg width="200" height="60" viewBox="0 0 200 60" fill="none" xmlns="http://www.w3.org/2000/svg">
<g clip-path="url(#clip0_4113_6086)">
<path d="M74.7998 60H0V0H74.7998V60ZM3.23719 57.4033H71.5626V2.59669H3.23719V57.4033Z" fill="#E20E17"/>
<path d="M59.4058 11.1326C60.439 11.1326 61.2655 11.8094 61.2655 12.6243C61.2655 13.4392 60.4218 14.116 59.4058 14.116H20.8178C18.8548 14.116 17.2534 15.4005 17.2534 16.9751C17.2534 18.5497 18.8548 19.8342 20.8178 19.8342H59.3886C64.3649 19.8342 68.3942 16.6022 68.3942 12.6105C68.3942 8.61876 64.3649 5.38672 59.3886 5.38672H20.8178C12.8626 5.41434 6.38818 10.5939 6.38818 16.9889C6.38818 23.384 12.8454 28.5635 20.8178 28.5635H68.2565C67.3955 25.29 63.7278 22.6657 59.4058 22.6657H20.8178C16.9091 22.6657 13.7407 20.1243 13.7407 16.9889C13.7407 13.8536 16.9091 11.3121 20.8178 11.3121L59.3886 11.1326H59.4058Z" fill="#E20E17"/>
<path d="M20.8178 48.6879C16.9091 48.6879 13.7407 46.1465 13.7407 43.0111C13.7407 39.8757 16.9091 37.3343 20.8178 37.3343H59.3886C63.7278 37.3343 67.3783 34.71 68.2392 31.4365H20.8178C12.8454 31.4365 6.38818 36.6161 6.38818 43.0111C6.38818 49.4061 12.8454 54.5857 20.8178 54.5857H59.3886C64.3649 54.5857 68.3942 51.3536 68.3942 47.3619C68.3942 43.3702 64.3649 40.1382 59.3886 40.1382H20.8178C18.8548 40.1382 17.2534 41.4227 17.2534 42.9973C17.2534 44.5719 18.8548 45.8564 20.8178 45.8564H59.3886C60.4218 45.8564 61.2483 46.5332 61.2483 47.3481C61.2483 48.163 60.4045 48.8398 59.3886 48.8398L20.8178 48.6603V48.6879Z" fill="#E20E17"/>
<path d="M99.882 4.76465V7.26465H90.9625V10.1652H99.1416V12.4856H90.9625V15.8006H100.071V18.3006H87.2604V4.76465H99.882Z" fill="#1D1D1B"/>
<path d="M106.27 4.76465L113.313 13.853H113.365V4.76465H116.843V18.3006H113.124L106.098 9.23979H106.046V18.3006H102.568V4.76465H106.253H106.27Z" fill="#1D1D1B"/>
<path d="M119.925 8.78428C120.304 7.91412 120.855 7.16826 121.561 6.51909C122.267 5.86992 123.145 5.37268 124.178 4.99975C125.211 4.62682 126.365 4.44727 127.656 4.44727C128.948 4.44727 130.136 4.62682 131.152 4.99975C132.185 5.35887 133.046 5.86992 133.752 6.51909C134.458 7.16826 135.009 7.91412 135.388 8.78428C135.767 9.65445 135.956 10.5937 135.956 11.602C135.956 12.6102 135.767 13.508 135.388 14.3644C135.009 15.2207 134.458 15.9666 133.752 16.5882C133.046 17.2235 132.185 17.7207 131.152 18.0799C130.119 18.439 128.965 18.6185 127.656 18.6185C126.348 18.6185 125.194 18.439 124.178 18.0799C123.145 17.7207 122.267 17.2235 121.561 16.5882C120.855 15.9528 120.304 15.2069 119.925 14.3644C119.546 13.508 119.357 12.5964 119.357 11.602C119.357 10.6075 119.546 9.65445 119.925 8.78428ZM123.317 13.2594C123.489 13.7981 123.748 14.2815 124.109 14.7097C124.471 15.1379 124.953 15.4832 125.521 15.7456C126.107 16.008 126.813 16.1323 127.656 16.1323C128.5 16.1323 129.206 16.008 129.792 15.7456C130.377 15.4832 130.842 15.1379 131.204 14.7097C131.565 14.2815 131.823 13.7981 131.996 13.2594C132.168 12.7207 132.237 12.1683 132.237 11.602C132.237 11.0357 132.151 10.4279 131.996 9.87544C131.841 9.32296 131.565 8.82572 131.204 8.38373C130.842 7.94174 130.36 7.59644 129.792 7.33401C129.206 7.07158 128.5 6.94727 127.656 6.94727C126.813 6.94727 126.107 7.07158 125.521 7.33401C124.936 7.59644 124.471 7.94174 124.109 8.38373C123.748 8.82572 123.489 9.30914 123.317 9.87544C123.145 10.4417 123.076 11.008 123.076 11.602C123.076 12.1959 123.162 12.7207 123.317 13.2594Z" fill="#1D1D1B"/>
<path d="M161.096 18.2042C160.287 18.4804 159.477 18.6185 158.668 18.6185C157.376 18.6185 156.206 18.439 155.19 18.0799C154.156 17.7207 153.278 17.2235 152.572 16.5882C151.866 15.9528 151.315 15.2069 150.937 14.3644C150.558 13.508 150.368 12.5964 150.368 11.602C150.368 10.6075 150.558 9.65445 150.937 8.78428C151.315 7.91412 151.866 7.16826 152.572 6.51909C153.278 5.86992 154.156 5.37268 155.19 4.99975C156.223 4.62682 157.376 4.44727 158.668 4.44727C159.529 4.44727 160.373 4.55776 161.182 4.76495C161.991 4.97213 162.732 5.27599 163.386 5.69036C164.04 6.10472 164.574 6.60196 165.005 7.18207C165.435 7.77599 165.693 8.4666 165.779 9.22627H162.232C162.008 8.4666 161.595 7.9003 160.958 7.51356C160.321 7.14064 159.563 6.94727 158.668 6.94727C157.841 6.94727 157.118 7.07158 156.533 7.33401C155.947 7.59644 155.482 7.94174 155.121 8.38373C154.759 8.82572 154.501 9.30914 154.329 9.87544C154.156 10.4417 154.088 11.008 154.088 11.602C154.088 12.1959 154.174 12.7207 154.329 13.2594C154.484 13.7981 154.759 14.2815 155.121 14.7097C155.482 15.1379 155.965 15.4832 156.533 15.7456C157.118 16.008 157.824 16.1323 158.668 16.1323C159.89 16.1323 160.855 15.8837 161.509 15.3865C162.181 14.8893 162.577 14.1572 162.68 13.218H158.943V10.9942H166.038V18.3147H163.679L163.3 16.7815C162.646 17.4583 161.905 17.9417 161.096 18.218V18.2042Z" fill="#1D1D1B"/>
<path d="M142.138 4.76465V15.8006H150.368V18.3006H138.435V4.76465H142.155H142.138Z" fill="#1D1D1B"/>
<path d="M178.866 4.76465L185.185 18.3006H181.328L180.054 15.2895H173.735L172.409 18.3006H168.672L175.061 4.76465H178.866ZM179.073 13.0658L176.937 8.09338H176.886L174.682 13.0658H179.055H179.073Z" fill="#1D1D1B"/>
<path d="M189.473 14.9723C189.68 15.2899 189.955 15.5386 190.282 15.7457C190.609 15.9529 191.023 16.0911 191.47 16.1877C191.935 16.2844 192.4 16.3259 192.882 16.3259C193.209 16.3259 193.571 16.312 193.95 16.2568C194.329 16.2154 194.69 16.1325 195.017 15.9944C195.345 15.8701 195.62 15.6905 195.844 15.4695C196.068 15.2485 196.171 14.9723 196.171 14.627C196.171 14.254 196.033 13.964 195.741 13.7292C195.448 13.5082 195.069 13.3148 194.587 13.1629C194.105 13.0109 193.571 12.8728 192.986 12.7623C192.383 12.6518 191.78 12.5275 191.16 12.3894C190.523 12.2651 189.921 12.1132 189.318 11.9198C188.715 11.7402 188.182 11.5054 187.717 11.2154C187.252 10.9253 186.856 10.5662 186.563 10.1242C186.27 9.68221 186.132 9.15735 186.132 8.5358C186.132 7.8452 186.322 7.23746 186.683 6.72641C187.045 6.21536 187.544 5.78719 188.13 5.44188C188.733 5.09658 189.404 4.84796 190.162 4.68221C190.919 4.51647 191.677 4.43359 192.435 4.43359C193.313 4.43359 194.157 4.51647 194.983 4.6684C195.792 4.82033 196.516 5.08277 197.153 5.44188C197.79 5.801 198.289 6.24299 198.651 6.79547C199.03 7.34796 199.202 8.01094 199.202 8.79823H195.603C195.569 8.39768 195.465 8.05238 195.276 7.78995C195.086 7.52752 194.863 7.32033 194.553 7.1684C194.26 7.01647 193.915 6.90597 193.519 6.85072C193.141 6.78166 192.71 6.75404 192.262 6.75404C191.97 6.75404 191.66 6.78166 191.367 6.83691C191.074 6.89216 190.799 6.97503 190.558 7.09934C190.317 7.22365 190.11 7.37558 189.955 7.56895C189.8 7.76232 189.714 7.99713 189.714 8.28719C189.714 8.54962 189.783 8.77061 189.903 8.93636C190.024 9.1021 190.282 9.25404 190.644 9.39216C191.023 9.53028 191.522 9.6684 192.176 9.80652C192.831 9.94464 193.692 10.1242 194.742 10.3452C195.052 10.3866 195.5 10.4833 196.051 10.6214C196.602 10.7596 197.17 10.9667 197.721 11.2568C198.272 11.5469 198.754 11.9336 199.15 12.417C199.546 12.9004 199.753 13.522 199.753 14.2817C199.753 14.9032 199.598 15.4833 199.305 16.0082C199.012 16.5469 198.565 17.0027 197.962 17.3894C197.377 17.7761 196.636 18.08 195.758 18.2872C194.88 18.4944 193.864 18.6049 192.727 18.6049C191.798 18.6049 190.902 18.5082 190.024 18.3286C189.146 18.1491 188.371 17.859 187.699 17.4723C187.028 17.0855 186.494 16.5745 186.098 15.9806C185.702 15.3728 185.513 14.6546 185.53 13.812H189.129C189.129 14.2678 189.232 14.6546 189.438 14.9723H189.473Z" fill="#1D1D1B"/>
<path d="M95.1983 22.3331C96.0076 22.3331 96.7308 22.3884 97.4023 22.4989C98.0738 22.6094 98.6249 22.8028 99.107 23.0514C99.5719 23.3138 99.9507 23.6591 100.209 24.0873C100.467 24.5155 100.605 25.0403 100.605 25.6757C100.605 26.3663 100.416 26.9326 100.02 27.3884C99.6408 27.8442 99.0553 28.2171 98.3149 28.5072C99.3481 28.742 100.123 29.1702 100.639 29.7641C101.156 30.358 101.414 31.0901 101.414 31.9326C101.414 32.6094 101.242 33.2033 100.915 33.7006C100.588 34.1978 100.14 34.6122 99.5719 34.9298C99.0037 35.2475 98.3666 35.4823 97.6606 35.6343C96.9374 35.7862 96.2142 35.8552 95.4565 35.8552H87.2775V22.3193H95.2155L95.1983 22.3331ZM94.7333 27.8166C95.3877 27.8166 95.9387 27.6923 96.3692 27.4436C96.7996 27.195 97.0063 26.7807 97.0063 26.2144C97.0063 25.8967 96.9374 25.6343 96.7996 25.4409C96.6619 25.2337 96.4725 25.0818 96.2314 24.9713C95.9903 24.8608 95.7148 24.7779 95.4221 24.7365C95.1122 24.695 94.8022 24.6674 94.4578 24.6674H90.9796V27.8304H94.7333V27.8166ZM94.94 33.5624C95.3016 33.5624 95.646 33.5348 95.9731 33.4796C96.3003 33.4243 96.593 33.3276 96.8513 33.2033C97.1096 33.079 97.299 32.8856 97.454 32.6646C97.6089 32.4298 97.6778 32.1536 97.6778 31.7945C97.6778 31.1039 97.4367 30.6066 96.9374 30.3028C96.438 29.9989 95.8009 29.8608 94.9916 29.8608H90.9451V33.5762H94.9227L94.94 33.5624Z" fill="#1D1D1B"/>
<path d="M103.739 26.3536C104.118 25.4835 104.669 24.7376 105.375 24.0884C106.081 23.4393 106.959 22.942 107.992 22.5691C109.025 22.1962 110.179 22.0166 111.47 22.0166C112.762 22.0166 113.95 22.1962 114.966 22.5691C115.999 22.9282 116.86 23.4393 117.566 24.0884C118.272 24.7376 118.823 25.4835 119.202 26.3536C119.581 27.2238 119.77 28.163 119.77 29.1713C119.77 30.1796 119.581 31.0774 119.202 31.9337C118.823 32.7901 118.272 33.5359 117.566 34.1575C116.86 34.7928 115.999 35.2901 114.966 35.6492C113.933 36.0083 112.779 36.1879 111.47 36.1879C110.162 36.1879 109.008 36.0083 107.992 35.6492C106.959 35.2901 106.081 34.7928 105.375 34.1575C104.669 33.5221 104.118 32.7763 103.739 31.9337C103.36 31.0774 103.171 30.1658 103.171 29.1713C103.171 28.1768 103.36 27.2238 103.739 26.3536ZM107.131 30.8288C107.303 31.3674 107.562 31.8509 107.923 32.279C108.285 32.7072 108.767 33.0525 109.335 33.3149C109.921 33.5774 110.627 33.7017 111.47 33.7017C112.314 33.7017 113.02 33.5774 113.606 33.3149C114.191 33.0525 114.656 32.7072 115.018 32.279C115.379 31.8509 115.637 31.3674 115.81 30.8288C115.982 30.2901 116.051 29.7376 116.051 29.1713C116.051 28.605 115.965 27.9973 115.81 27.4448C115.655 26.8923 115.379 26.3951 115.018 25.9531C114.656 25.5111 114.174 25.1658 113.606 24.9033C113.02 24.6409 112.314 24.5166 111.47 24.5166C110.627 24.5166 109.921 24.6409 109.335 24.9033C108.75 25.1658 108.285 25.5111 107.923 25.9531C107.562 26.3951 107.303 26.8785 107.131 27.4448C106.959 28.0111 106.89 28.5774 106.89 29.1713C106.89 29.7652 106.976 30.2901 107.131 30.8288Z" fill="#1D1D1B"/>
<path d="M125.986 22.334L133.029 31.4224H133.08V22.334H136.559V35.8699H132.839L125.814 26.8091H125.762V35.8699H122.284V22.334H125.969H125.986Z" fill="#1D1D1B"/>
<path d="M139.641 26.3536C140.02 25.4835 140.571 24.7376 141.277 24.0884C141.983 23.4393 142.861 22.942 143.894 22.5691C144.927 22.1962 146.081 22.0166 147.372 22.0166C148.664 22.0166 149.852 22.1962 150.868 22.5691C151.901 22.9282 152.762 23.4393 153.468 24.0884C154.174 24.7376 154.725 25.4835 155.104 26.3536C155.482 27.2238 155.672 28.163 155.672 29.1713C155.672 30.1796 155.482 31.0774 155.104 31.9337C154.725 32.7901 154.174 33.5359 153.468 34.1575C152.762 34.7928 151.901 35.2901 150.868 35.6492C149.835 36.0083 148.681 36.1879 147.372 36.1879C146.064 36.1879 144.91 36.0083 143.894 35.6492C142.861 35.2901 141.983 34.7928 141.277 34.1575C140.571 33.5221 140.02 32.7763 139.641 31.9337C139.262 31.0774 139.073 30.1658 139.073 29.1713C139.073 28.1768 139.262 27.2238 139.641 26.3536ZM143.033 30.8288C143.205 31.3674 143.464 31.8509 143.825 32.279C144.187 32.7072 144.669 33.0525 145.237 33.3149C145.823 33.5774 146.529 33.7017 147.372 33.7017C148.216 33.7017 148.922 33.5774 149.507 33.3149C150.093 33.0525 150.558 32.7072 150.919 32.279C151.281 31.8509 151.539 31.3674 151.711 30.8288C151.884 30.2901 151.953 29.7376 151.953 29.1713C151.953 28.605 151.866 27.9973 151.711 27.4448C151.556 26.8923 151.281 26.3951 150.919 25.9531C150.558 25.5111 150.076 25.1658 149.507 24.9033C148.922 24.6409 148.216 24.5166 147.372 24.5166C146.529 24.5166 145.823 24.6409 145.237 24.9033C144.652 25.1658 144.187 25.5111 143.825 25.9531C143.464 26.3951 143.205 26.8785 143.033 27.4448C142.861 28.0111 142.792 28.5774 142.792 29.1713C142.792 29.7652 142.878 30.2901 143.033 30.8288Z" fill="#1D1D1B"/>
<path d="M163.421 22.334L167.364 31.6434H167.415L171.152 22.334H176.369V35.8699H172.891V26.2704H172.839L168.707 35.8699H165.848L161.716 26.3671H161.664V35.8699H158.186V22.334H163.403H163.421Z" fill="#1D1D1B"/>
<path d="M183.36 22.334V35.8699H179.641V22.334H183.36Z" fill="#1D1D1B"/>
<path d="M90.0843 50.11C90.2909 50.4276 90.5664 50.6763 90.8936 50.8834C91.2207 51.0906 91.634 51.2287 92.0817 51.3254C92.5466 51.4221 93.0115 51.4636 93.4936 51.4636C93.8208 51.4636 94.1824 51.4497 94.5612 51.3945C94.9401 51.3531 95.3017 51.2702 95.6288 51.1321C95.956 51.0078 96.2315 50.8282 96.4553 50.6072C96.6792 50.3862 96.7825 50.11 96.7825 49.7647C96.7825 49.3917 96.6448 49.1017 96.352 48.8669C96.0593 48.6459 95.6805 48.4525 95.1983 48.3006C94.7162 48.1486 94.1824 48.0105 93.597 47.9C92.9943 47.7895 92.3916 47.6652 91.7717 47.5271C91.1346 47.4028 90.532 47.2508 89.9293 47.0575C89.3266 46.8779 88.7928 46.6431 88.3279 46.3531C87.863 46.063 87.467 45.7039 87.1742 45.2619C86.8815 44.8199 86.7438 44.295 86.7438 43.6735C86.7438 42.9829 86.9332 42.3752 87.2948 41.8641C87.6564 41.3531 88.1557 40.9249 88.7412 40.5796C89.3438 40.2343 90.0154 39.9857 90.773 39.8199C91.5307 39.6542 92.2883 39.5713 93.046 39.5713C93.9241 39.5713 94.7679 39.6542 95.5944 39.8061C96.4037 39.958 97.1269 40.2205 97.764 40.5796C98.4011 40.9387 98.9005 41.3807 99.2621 41.9332C99.6409 42.4857 99.8131 43.1486 99.8131 43.9359H96.2143C96.1798 43.5354 96.0765 43.1901 95.8871 42.9276C95.6977 42.6652 95.4738 42.458 95.1639 42.3061C94.8712 42.1542 94.5268 42.0437 94.1308 41.9884C93.7519 41.9194 93.3215 41.8917 92.8738 41.8917C92.581 41.8917 92.2711 41.9194 91.9784 41.9746C91.6856 42.0299 91.4101 42.1127 91.1691 42.237C90.928 42.3613 90.7214 42.5133 90.5664 42.7066C90.4114 42.9 90.3253 43.1348 90.3253 43.4249C90.3253 43.6873 90.3942 43.9083 90.5147 44.0741C90.6353 44.2398 90.8936 44.3917 91.2552 44.5299C91.634 44.668 92.1333 44.8061 92.7877 44.9442C93.442 45.0823 94.3029 45.2619 95.3533 45.4829C95.6633 45.5243 96.111 45.621 96.662 45.7591C97.213 45.8973 97.7812 46.1044 98.3322 46.3945C98.8832 46.6845 99.3654 47.0713 99.7614 47.5547C100.157 48.0381 100.364 48.6597 100.364 49.4194C100.364 50.0409 100.209 50.621 99.9164 51.1459C99.6237 51.6845 99.176 52.1403 98.5733 52.5271C97.9878 52.9138 97.2474 53.2177 96.3692 53.4249C95.4911 53.6459 94.4751 53.7426 93.3387 53.7426C92.4088 53.7426 91.5134 53.6459 90.6353 53.4663C89.7571 53.2868 88.9822 52.9967 88.3107 52.61C87.6392 52.2232 87.1054 51.7122 86.7093 51.1182C86.3133 50.5105 86.1239 49.7923 86.1411 48.9497H89.7399C89.7399 49.4055 89.8432 49.7923 90.0498 50.11H90.0843Z" fill="#1D1D1B"/>
<path d="M106.098 50.5244V53.4388H102.379V50.5244H106.098Z" fill="#1D1D1B"/>
<path d="M116.774 39.9033C117.824 39.9033 118.737 40.0276 119.477 40.2762C120.218 40.5249 120.82 40.8425 121.285 41.2569C121.75 41.6575 122.095 42.1271 122.301 42.6381C122.508 43.163 122.628 43.6879 122.628 44.2542C122.628 44.8205 122.525 45.3315 122.301 45.8564C122.095 46.3812 121.75 46.8508 121.285 47.2514C120.82 47.6519 120.218 47.9834 119.477 48.232C118.737 48.4807 117.842 48.605 116.774 48.605H112.865V53.453H109.146V39.9171H116.757L116.774 39.9033ZM115.758 46.2707C116.188 46.2707 116.585 46.2431 116.981 46.1879C117.377 46.1326 117.721 46.0359 118.014 45.8978C118.306 45.7597 118.548 45.5525 118.737 45.2901C118.926 45.0276 119.012 44.6823 119.012 44.2403C119.012 43.7983 118.926 43.4669 118.737 43.1906C118.565 42.9282 118.324 42.721 118.014 42.5829C117.721 42.4309 117.359 42.3343 116.981 42.2928C116.585 42.2376 116.171 42.21 115.758 42.21H112.865V46.2707H115.758Z" fill="#1D1D1B"/>
<path d="M124.195 50.5244V53.4388H120.476V50.5244H124.195Z" fill="#1D1D1B"/>
<path d="M135.698 39.9033L142.017 53.4392H138.16L136.886 50.4282H130.566L129.241 53.4392H125.504L131.892 39.9033H135.698ZM135.904 48.2044L133.769 43.232H133.718L131.513 48.2044H135.887H135.904Z" fill="#1D1D1B"/>
<path d="M146.976 50.5244V53.4388H143.257V50.5244H146.976Z" fill="#1D1D1B"/>
</g>
<rect x="0.5" y="0.5" width="199" height="59" stroke="black"/>
<defs>
<clipPath id="clip0_4113_6086">
<rect width="200" height="60" fill="white"/>
</clipPath>
</defs>
</svg>
