<svg width="264" height="170" viewBox="0 0 264 170" fill="none" xmlns="http://www.w3.org/2000/svg">
<rect width="264" height="170" fill="#C7281E"/>
<g clip-path="url(#clip0_4276_192)">
<path d="M88.8355 123.761V115.298C94.7971 115.298 97.004 115.027 98.0922 121.541H98.7205V114.323H82.2454V115.298H85.0653V134.025H81.9236V135H98.8738V127.377H98.0922C97.3106 133.199 95.5788 134.039 90.8738 134.039H88.6822V125.021H89.9389C91.9772 125.021 93.2339 126.131 93.709 129.313H94.4906V119.889H93.709C93.709 119.889 93.5558 123.91 89.9389 123.91H88.8355V123.775V123.761Z" fill="white"/>
<path d="M82.092 124.045H72.8353V125.02H75.9771V131.683C75.502 133.348 72.5288 134.039 71.7319 134.039C65.7702 134.039 66.2453 126.415 66.2453 124.33C66.2453 122.529 66.092 114.621 71.7319 114.621C75.8085 114.621 77.8468 118.087 78.6437 121.283H79.2721V113.795C79.2721 113.795 76.4522 115.596 76.4522 115.46C76.4522 115.46 75.1955 113.795 71.5939 113.795C64.682 113.795 62.0154 119.902 62.0154 124.194C62.0154 128.081 64.0537 134.878 71.5939 134.878C73.9541 134.878 75.5173 133.768 76.4522 132.657L79.4407 134.743V124.899H81.9541V124.073H82.1073L82.092 124.045Z" fill="white"/>
<path d="M163.073 127.511L166.521 118.642L170.138 127.511H163.073ZM149.893 123.909H146.122V115.311H150.996C153.816 115.73 153.985 118.642 153.985 119.468C153.985 121.688 152.881 123.909 149.908 123.909M190.245 127.24C189.463 133.063 187.732 133.902 183.027 133.902H182.72V115.324H185.709V114.349H175.977V115.324H178.965V134.051H176.605L167.977 113.808H166.72C166.72 113.808 159.502 132.115 159.502 132.25C159.502 132.25 159.027 133.781 157.77 134.051C156.667 134.051 156.835 133.632 156.835 133.361V129.759C156.835 128.784 156.682 126.712 155.732 125.737C154.475 124.627 152.437 124.627 152.437 124.491C152.437 124.491 157.77 123.516 157.77 119.089C157.77 115.893 155.257 114.376 151.18 114.241H139.563V115.216H142.552V133.943H139.563V134.918H149.142V133.943H146.153V124.925H150.077C156.988 125.48 148.82 134.904 157.923 134.904H163.578V133.929C163.272 133.929 161.218 133.929 161.065 132.684C160.912 131.709 162.475 128.391 162.475 128.391H170.322C170.322 128.391 172.682 133.943 172.835 133.943H170.168V134.918H191.364V127.294H190.26L190.245 127.24Z" fill="white"/>
<path d="M127.916 115.163C133.877 115.163 136.238 114.892 137.172 121.405H137.801V114.201H113.939V115.176H114.567C115.349 115.176 117.387 115.176 117.556 116.842V128.771L106.414 114.215H100.299V115.19H101.234C102.49 115.19 104.054 115.19 104.222 116.855V132.102C104.222 133.632 101.709 134.188 100.605 134.188V134.878H108.927V134.188C107.824 134.188 105.31 133.632 105.31 132.102V118.656C109.709 124.208 118.031 134.878 118.184 134.878H118.659V116.855C118.812 115.325 120.697 115.19 121.647 115.19H124.314V133.917H121.172V134.892H138.123V127.268H137.341C136.559 133.091 134.828 133.93 130.123 133.93H127.931V124.912H129.188C131.226 124.912 132.483 126.022 132.958 129.205H133.739V119.78H132.958C132.958 119.78 132.805 123.802 129.188 123.802H128.084V115.203H127.931L127.916 115.163Z" fill="white"/>
<path d="M201.847 115.311V114.2H192.268V115.311H195.257V133.889H192.268V134.864H201.847V133.889H198.705V115.311H201.847Z" fill="white"/>
<path d="M167.778 97.0033C168.084 96.3127 168.56 95.8929 169.341 95.7575L177.035 94.2274L176.406 88.1204V87.985C176.253 87.159 175.625 84.7893 172.008 84.5185C158.199 83.5435 155.058 81.7426 151.609 79.8062L151.456 79.6708C147.839 77.5855 144.238 77.5855 143.916 77.5855C139.992 77.5855 135.134 78.9667 134.659 79.1157C133.402 79.3865 132.299 79.8062 131.211 80.0906C126.812 81.3364 123.211 82.4467 116.927 82.1759H115.824L115.517 83.1509C115.364 83.8414 113.479 90.0838 115.211 93.9701C113.648 95.0804 113.648 96.1908 113.648 96.4616C113.648 97.8428 113.341 98.1272 113.173 98.2626C112.391 98.9532 110.031 98.9532 107.992 98.9532H107.211L106.736 99.5083C105.479 101.038 102.812 101.445 101.081 101.038C100.299 98.9532 100.299 97.4366 101.081 96.4616C102.015 95.3513 103.747 95.2159 104.529 95.2159H105.004C106.889 95.2159 108.299 93.8347 108.299 92.3045V81.3499C108.927 80.6593 109.234 79.6844 109.709 78.7094C112.697 78.2896 115.042 76.0689 115.042 73.3066C115.042 72.1962 114.736 71.2213 114.107 70.3953C116.927 69.1495 119.287 66.7934 119.287 63.5977C119.287 60.402 117.402 58.8855 115.671 58.0459C116.146 56.8001 116.927 54.7148 117.556 52.4941L119.916 44.8706C121.019 41.8238 123.839 39.8739 127.134 39.8739H169.832C167.946 42.0947 165.433 43.205 161.832 43.205H136.253L134.843 45.6966H158.077C156.192 48.1881 153.525 49.4339 149.755 49.4339H132.958L131.548 51.9254H146.46C144.575 54.4169 142.061 55.5273 138.291 55.5273H129.188L127.778 58.0188H137.356C137.51 58.1542 137.663 58.574 137.663 59.549C137.663 61.2145 136.1 62.4603 134.215 62.4603C133.586 62.4603 132.958 62.3249 132.023 61.9051C131.548 61.7697 131.242 61.6343 130.766 61.4853L128.575 63.2863C129.05 63.4217 129.356 63.5571 129.832 63.706C131.717 64.3966 132.82 64.8164 134.23 64.8164C135.962 64.8164 137.525 64.1258 138.782 63.1509C140.345 63.2863 143.012 63.4217 145.694 63.5706C148.835 63.8414 151.655 63.9904 153.234 64.1258C154.015 64.1258 154.644 64.1258 155.425 64.2612C156.682 64.2612 157.939 64.3966 159.042 64.3966C164.851 72.7108 167.824 73.8211 179.134 75.0804C179.916 76.3262 180.697 77.7209 181.326 79.1021V96.57C180.851 96.9897 179.134 97.6803 178.659 97.8157L169.081 101.282C167.824 99.7521 167.349 98.2355 167.824 96.9897M165.786 101.431H146.95L154.95 93.943C156.514 92.4129 157.142 90.6119 156.36 88.9464C156.054 87.9714 154.95 86.0351 153.847 83.9498C156.989 85.1955 161.847 86.4413 171.732 87.1454C172.989 87.2808 173.295 87.5652 173.464 88.5266L173.939 92.2775L168.759 93.2524C167.027 93.5232 165.617 94.4982 164.989 96.0283C164.36 97.6939 164.682 99.6302 165.77 101.431M131.87 101.431C131.395 99.6302 131.563 98.2355 132.498 97.2741C133.433 96.2991 134.69 96.1637 135.793 96.1637L141.28 96.9897H142.215L146.138 93.2389C146.766 92.5483 148.805 90.463 146.766 87.836L141.586 80.3479C142.368 80.2125 143.318 80.2125 144.1 80.2125C144.1 80.2125 146.766 80.2125 149.586 81.5936C149.893 82.2842 150.521 83.2592 150.996 84.3695C152.1 86.3059 153.51 88.811 153.816 89.7724C153.969 90.0432 154.291 91.0182 153.035 92.2639L143.15 101.553H131.855V101.418L131.87 101.431ZM130.307 95.6085C129.203 96.7189 128.268 98.5199 128.897 101.431H111.165C113.05 101.296 114.46 100.876 115.41 100.05C116.514 98.9396 116.667 97.5584 116.667 96.4481C116.667 96.3127 116.82 96.0283 117.77 95.6221L119.333 95.0669L118.399 93.8211C116.835 91.7358 117.617 87.3079 118.092 84.8029H118.245C124.207 84.8029 128.13 83.6925 132.207 82.5821C133.31 82.3113 134.399 82.027 135.502 81.6072C135.502 81.6072 136.759 81.3364 138.322 80.9166L144.13 89.3797V89.5151C144.759 90.2057 144.759 90.7609 143.655 91.7358L140.835 94.5117L136.13 93.6857C134.092 93.4149 131.732 94.2409 130.322 95.6221M98.935 95.0669C97.6783 96.597 97.525 98.8177 98.4599 101.445H95.4714V80.9166C96.5748 80.7812 97.663 80.4968 98.7664 80.0906C98.7664 80.9166 98.6132 81.7561 98.4599 82.5821C98.4599 82.853 98.3066 83.0019 98.3066 83.2727L98.0001 84.8029H99.7319C102.245 84.8029 104.13 84.3831 105.694 83.8279V92.4264C105.694 92.6972 105.54 92.8462 105.219 92.8462H104.743C102.23 92.7108 100.038 93.5368 98.935 95.0669ZM92.4982 99.224L78.843 96.0283L65.1879 99.224V77.7345L78.843 74.5388L92.4982 77.7345V99.224ZM67.0729 101.445L78.9963 98.6688L90.9197 101.445H67.0269H67.0729ZM71.7779 69.8265C72.4063 69.0005 73.663 68.4454 75.2262 68.5808L76.4829 68.7162L76.958 67.7412C77.1112 67.4704 77.2645 67.1861 77.4331 67.0507C77.7396 66.7798 78.3679 66.6309 78.9963 66.6309C80.7281 66.6309 82.9197 67.7412 84.6515 69.4068C85.2798 69.962 85.9082 70.788 86.3833 71.4921C86.5365 71.6275 86.5365 71.7629 86.6898 71.9119C86.843 72.0473 86.9963 72.3316 86.9963 72.3316C86.9963 72.467 87.9312 73.5774 87.9312 73.7128C88.5595 73.0222 89.1879 72.1827 89.663 71.4921V71.3567C89.5097 71.0859 89.1879 70.6661 89.0346 70.3817L88.8814 70.2463C88.8814 70.2463 88.7281 70.1109 88.7281 69.9755C88.5748 69.7047 88.253 69.2849 88.0997 69.1495L91.8699 63.8821C92.8047 64.0175 93.6017 64.0175 94.0614 64.0175H94.2147C99.548 64.0175 105.05 61.2416 105.05 56.8001V56.6647C105.05 55.419 104.743 54.3086 104.575 53.3337C104.422 52.6431 104.268 52.0879 104.268 51.8035C104.268 51.2484 105.05 50.6932 106.153 50.6932H107.885L107.104 46.8069C109.464 45.2768 111.027 42.6498 110.874 40.2937C113.54 42.0947 115.272 45.1414 115.579 48.337C115.732 49.312 115.425 50.5578 115.104 51.9389L114.95 52.4941C114.322 54.7148 113.387 57.071 112.912 58.1813L112.437 59.1563L113.54 59.7115C115.425 60.6864 116.682 61.377 116.682 63.5977C116.682 66.2382 114.015 68.1746 111.502 68.5943L107.885 69.1495L110.874 70.9504C111.809 71.5056 112.437 72.4806 112.437 73.442C112.437 75.1075 110.874 76.3533 108.989 76.3533H107.885L107.579 77.1793C106.475 80.226 105.387 81.7561 101.617 82.1759V77.5991L101.464 74.6878L99.1036 76.7731C98.322 77.4637 96.912 78.0188 95.3335 78.3032V75.8117L78.8584 71.9254L73.0499 73.3066C71.7932 72.1962 71.4867 70.2599 71.7932 69.8401M89.6783 60.4156C89.6783 60.2802 89.8315 60.1448 89.9848 60.1448L92.4982 60.2802C95.4867 60.1448 98.6132 59.0344 98.935 56.2585C98.935 54.3221 97.3718 52.5077 95.3181 52.5077C94.2147 52.5077 92.8047 53.1982 91.3948 54.0378C90.4599 54.593 89.663 55.0127 89.2032 55.0127C88.8967 55.0127 88.5748 54.7419 88.5748 54.593V54.4576L90.1381 52.5212L88.7281 51.6952C88.4216 51.5598 87.9465 51.14 87.9465 51.0046C87.9465 50.8692 88.0997 50.7338 88.0997 50.5848C88.7281 50.0297 89.3564 49.3391 89.9848 48.3641C90.4599 47.8089 90.6132 47.5381 91.2415 47.5381C91.8699 47.5381 92.4982 47.9579 92.4982 48.6485C92.4982 49.0683 92.9733 49.3391 93.6017 49.3391C94.23 49.3391 94.5365 48.9193 94.8584 48.6485C94.8584 48.6485 96.2683 47.5381 95.4867 46.9829C94.7051 46.4278 91.2415 47.6735 92.1917 44.8976L92.4982 44.4779C92.8047 44.0581 94.5365 42.9477 97.8315 42.9477C98.4599 42.9477 99.0882 42.9477 99.8699 43.0832H100.345L107.563 39.1969C107.563 39.3323 107.717 39.4677 107.717 39.4677C108.023 41.4041 106.782 43.6248 104.575 44.7351L103.64 45.1549L104.268 48.0662C102.383 48.6214 101.127 49.8672 101.127 51.3973C101.127 51.9525 101.28 52.6431 101.433 53.3337C101.586 54.3086 101.908 55.27 101.908 56.245C101.908 59.2917 97.2032 61.2416 93.2798 61.0926H93.1266C92.9733 61.0926 90.4599 60.9572 89.8315 60.5375C89.6783 60.6729 89.6783 60.5375 89.6783 60.402M95.64 40.4291C96.1151 39.8739 96.8967 39.3188 97.6783 38.7636C98.3066 38.3438 99.2415 37.9376 100.192 37.7886C101.602 37.5178 103.18 37.5178 104.743 37.7886L99.5633 40.5645C98.935 40.5645 98.3066 40.4291 97.6783 40.4291C96.7434 40.4291 95.9465 40.4291 95.3181 40.5645C95.4203 40.5645 95.5225 40.5194 95.6246 40.4291M173.479 39.8739H192.621C190.736 42.0947 188.222 43.205 184.621 43.205H170.337C171.594 42.2301 172.697 41.1197 173.479 39.8739ZM172.376 49.4474H158.092C159.349 48.4725 160.452 47.2267 161.234 45.7101H180.544C178.981 48.2016 176.299 49.4474 172.376 49.4474ZM161.081 55.5544H146.797C148.054 54.5794 148.989 53.3337 149.786 51.9525H169.096C167.533 54.444 164.851 55.5544 161.096 55.5544M164.391 65.2632C168.943 65.9538 172.56 67.7548 175.379 70.5307C176.008 71.0859 176.483 71.7764 177.111 72.467C169.571 71.641 166.904 70.6661 162.674 64.9789C163.303 64.9789 163.778 65.1143 164.406 65.2497M194.69 92.7108C194.996 93.1305 195.165 93.5368 195.471 93.8211C195.778 94.2409 196.1 94.6471 196.406 95.2023C194.215 95.0669 192.483 93.9565 191.073 92.0066C192.33 91.4515 194.061 91.8712 194.69 92.6972M176.636 101.431L179.625 100.456C183.87 98.9261 184.483 97.9647 184.176 95.4596V85.4799C187.318 92.6972 190.46 97.6803 196.575 97.6803C197.356 97.6803 198.307 97.5449 199.242 97.4095L201.602 96.9897L199.87 95.3242C198.766 94.3492 198.307 93.5232 197.678 92.5483C197.372 92.1285 197.203 91.7223 196.897 91.3025C195.487 89.2172 192.038 88.5266 189.203 89.637C187.946 87.4163 186.69 84.505 185.127 80.9031L184.82 80.2125C184.514 79.6573 184.345 79.1021 184.038 78.5469V78.4115C183.104 76.4752 182 74.6607 180.897 72.8597C179.793 71.1942 178.705 69.813 177.448 68.5672C174.153 65.2362 169.908 63.1644 164.728 62.3249C161.111 61.7697 158.613 61.6343 155.318 61.4989C154.69 61.4989 153.908 61.4989 153.28 61.3634C151.87 61.228 148.881 61.0926 145.908 60.8083C143.87 60.6729 141.985 60.5374 140.422 60.3885C140.575 59.9687 140.575 59.5625 140.575 59.1427C140.575 58.5876 140.575 58.0324 140.422 57.6126H161.142C166.475 57.6126 170.399 55.5273 172.605 51.3702C177.939 51.3702 181.709 49.1495 184.069 45.1278H184.851C190.337 45.1278 194.261 42.9071 196.621 38.4657L197.402 37.2199H127.41C122.858 37.2199 118.935 39.8604 117.372 44.0175V44.1529C116.115 41.2416 114.077 38.75 111.257 37.2199C107.196 35.1481 102.812 34.4576 99.3488 35.4325C98.2453 35.7033 96.9886 36.1231 96.0538 36.6783C95.2722 37.2335 94.0154 37.924 93.2338 38.899C92.299 39.8739 91.502 41.1197 90.8737 42.2301C90.3986 42.5009 90.0921 42.7852 89.9388 43.0561L89.1572 44.4372V44.5727C88.2223 46.509 86.9656 47.9037 86.0155 49.0141C85.0806 49.989 85.0806 50.9504 85.0806 51.5056C85.2338 52.1962 85.5557 52.7514 86.0155 53.1712C85.7089 53.5909 85.5404 54.1461 85.5404 54.5523C85.5404 56.2179 87.1036 57.4637 89.1572 57.4637C90.5672 57.4637 91.8239 56.9085 93.0806 56.0825C93.5557 55.8117 94.9656 54.9721 95.4407 54.9721C96.0691 54.9721 96.5442 55.3919 96.5442 55.9471C96.5442 57.3282 94.6591 58.0324 93.2492 58.0324L90.4292 58.3032C88.3909 58.4386 87.4407 59.4135 87.4407 60.2395C87.4407 61.0655 87.9158 61.6207 88.2223 61.9051L88.3756 62.0405L89.1572 62.5957L85.8622 67.0371C83.6706 65.2362 81.1572 64.2612 78.9503 64.1258C77.5404 64.1258 76.2837 64.3966 75.3335 65.2362C75.0269 65.507 74.8584 65.6559 74.7051 65.9268C72.345 65.9268 70.4752 67.0371 69.525 68.2829C68.4216 69.6641 68.8967 72.0337 70.1534 73.8347L62.3066 75.7846V107.958H201.985V101.58H176.56V101.445L176.636 101.431Z" fill="white"/>
<path d="M89.4636 81.0522L80.3601 78.9805V81.6074L89.4636 83.6927V81.0522Z" fill="white"/>
<path d="M68.2836 83.6927L77.387 81.6074V78.9805L68.2836 81.0522V83.6927Z" fill="white"/>
<path d="M68.2836 88.9613L77.387 86.876V84.249L68.2836 86.3208V88.9613Z" fill="white"/>
<path d="M89.4636 86.3208L80.3601 84.249V86.876L89.4636 88.9613V86.3208Z" fill="white"/>
<path d="M89.4636 91.5874L80.3601 89.5156V92.1426L89.4636 94.2279V91.5874Z" fill="white"/>
<path d="M68.2836 94.2279L77.387 92.1426V89.5156L68.2836 91.5874V94.2279Z" fill="white"/>
</g>
<defs>
<clipPath id="clip0_4276_192">
<rect width="140" height="100" fill="white" transform="translate(62 35)"/>
</clipPath>
</defs>
</svg>
