<svg width="248" height="50" viewBox="0 0 248 50" fill="none" xmlns="http://www.w3.org/2000/svg">
<g clip-path="url(#clip0_4033_87)">
<path d="M66.6065 39.3716C66.6065 41.4169 65.0777 42.9104 62.9734 42.9104C62.1401 42.9104 61.5286 42.7065 61.1569 42.5026L60.983 41.003C61.1629 41.177 61.8403 41.6328 62.8535 41.6328C64.1065 41.6328 64.8978 40.9611 65.1077 39.9294H62.7036L62.6197 38.6698H65.1017C64.8559 37.7101 64.0645 37.0863 62.8775 37.0863C61.7684 37.0863 61.1209 37.6021 60.8871 37.7941L61.079 36.2406C61.4626 36.0246 62.0921 35.8147 62.9195 35.8147C65.0897 35.8147 66.6065 37.1763 66.6065 39.3716Z" fill="white"/>
<path d="M69.6227 35.9346H74.7126V42.7904H73.3037V37.1882H70.9297L70.7498 39.8393C70.6659 41.0689 70.546 42.1306 69.0292 42.8684L68.2499 41.7647C68.9873 41.4108 69.2451 41.1229 69.329 39.9353L69.6227 35.9346Z" fill="white"/>
<path d="M82.3997 41.5728L82.3157 42.7904H78.9045C78.0472 42.7904 77.5376 42.4905 77.5376 41.4108V35.9346H82.2618L82.1778 37.1462H78.9465V38.6757H81.7162L81.6323 39.8753H78.9465V41.2549C78.9465 41.4588 79.0184 41.5788 79.2702 41.5788H82.3997V41.5728Z" fill="white"/>
<path d="M84.802 42.7904V35.9346H86.2109V42.7904H84.802ZM88.0813 39.2095L90.8751 42.7964H89.0585L86.4087 39.3955V39.2695L89.1245 35.9406H90.7611L88.0813 39.2095Z" fill="white"/>
<path d="M98.0668 37.1882H95.9265V42.7964H94.4937V37.1882H92.1975L92.2815 35.9346H98.1507L98.0668 37.1882Z" fill="white"/>
<path d="M102.84 35.9346C104.788 35.9346 105.771 36.8763 105.771 38.3398C105.771 39.8393 104.626 40.769 102.786 40.769C102.432 40.769 102.078 40.745 101.719 40.697V42.7964H100.31V35.9346H102.84ZM104.296 38.3398C104.296 37.644 103.739 37.1522 102.768 37.1522H101.719V39.4734C102.072 39.5274 102.426 39.5454 102.768 39.5454C103.763 39.5514 104.296 39.0476 104.296 38.3398Z" fill="white"/>
<path d="M107.696 39.3714C107.696 37.3801 109.207 35.8206 111.311 35.8206C113.385 35.8206 114.884 37.3381 114.884 39.3714C114.884 41.3928 113.385 42.9103 111.311 42.9103C109.201 42.9103 107.696 41.3568 107.696 39.3714ZM113.457 39.3714C113.457 38.0458 112.54 37.0921 111.305 37.0921C110.046 37.0921 109.111 38.0578 109.111 39.3714C109.111 40.685 110.04 41.6387 111.305 41.6387C112.54 41.6387 113.457 40.697 113.457 39.3714Z" fill="white"/>
<path d="M122.235 37.1882H120.094V42.7964H118.661V37.1882H116.365L116.449 35.9346H122.319L122.235 37.1882Z" fill="white"/>
<path d="M129.311 41.5728L129.228 42.7904H125.816C124.959 42.7904 124.449 42.4905 124.449 41.4108V35.9346H129.174L129.09 37.1462H125.858V38.6757H128.628L128.544 39.8753H125.858V41.2549C125.858 41.4588 125.93 41.5788 126.182 41.5788H129.311V41.5728Z" fill="white"/>
<path d="M137.642 42.7904H135.951L134.219 40.2772L132.498 42.7904H130.904L133.385 39.2815L131.107 35.9346H132.798L134.303 38.2678L135.885 35.9346H137.468L135.16 39.2515L137.642 42.7904Z" fill="white"/>
<path d="M144.448 35.9346H145.856V42.7904H144.448V39.9353H141.108V42.7904H139.699V35.9346H141.108V38.6757H144.448V35.9346Z" fill="white"/>
<path d="M153.813 35.9346H154.766V42.7904H153.387V38.4118L149.652 42.8624H148.711V35.9346H150.078V40.3971L153.813 35.9346Z" fill="white"/>
<path d="M161.73 35.9346H163.133V42.7904H161.73V40.4991C161.281 40.6611 160.789 40.757 160.243 40.757C158.445 40.757 157.24 39.9653 157.24 38.0939V35.9346H158.673V37.9259C158.673 38.9336 159.248 39.4674 160.405 39.4674C160.909 39.4674 161.335 39.3715 161.73 39.1975V35.9346Z" fill="white"/>
<path d="M170.832 41.5728L170.748 42.7904H167.337C166.48 42.7904 165.97 42.4905 165.97 41.4108V35.9346H170.694L170.61 37.1462H167.379V38.6757H170.149L170.065 39.8753H167.379V41.2549C167.379 41.4588 167.451 41.5788 167.703 41.5788H170.832V41.5728Z" fill="white"/>
<path d="M172.668 39.3594C172.668 37.3141 174.197 35.8206 176.295 35.8206C177.128 35.8206 177.74 36.0245 178.111 36.2284L178.291 37.7279C178.1 37.554 177.428 37.0981 176.439 37.0981C174.994 37.0981 174.089 38.0518 174.089 39.4194C174.089 40.733 175.03 41.6447 176.421 41.6447C177.512 41.6447 178.141 41.1289 178.375 40.9369L178.195 42.4904C177.8 42.7063 177.182 42.9163 176.343 42.9163C174.251 42.9103 172.668 41.5487 172.668 39.3594Z" fill="white"/>
<path d="M180.761 42.7904V35.9346H182.17V42.7904H180.761ZM184.047 39.2095L186.84 42.7964H185.024L182.374 39.3955V39.2695L185.09 35.9406H186.726L184.047 39.2095Z" fill="white"/>
<path d="M193.943 35.9346H194.896V42.7904H193.517V38.4118L189.782 42.8624H188.841V35.9346H190.208V40.3971L193.943 35.9346Z" fill="white"/>
<path d="M202.846 35.9346H203.799V42.7904H202.421V38.4118L198.686 42.8624H197.744V35.9346H199.111V40.3971L202.846 35.9346ZM198.955 33.7093L200.023 33.6013C200.023 34.0632 200.31 34.3151 200.748 34.3151C201.222 34.3151 201.515 34.0572 201.515 33.6013L202.564 33.7093C202.564 34.663 201.761 35.2928 200.712 35.2928C199.663 35.2928 198.955 34.675 198.955 33.7093Z" fill="white"/>
<path d="M214.596 40.6611C214.596 42.0407 213.517 42.9164 211.796 42.9164C211.077 42.9164 210.394 42.7245 209.98 42.4906L209.758 41.129C210.376 41.5489 210.957 41.7288 211.617 41.7288C212.6 41.7288 213.187 41.3629 213.187 40.7151C213.187 39.9894 212.546 39.8154 211.778 39.8154H211.071L210.975 38.6278H211.641C212.486 38.6278 212.858 38.3279 212.858 37.7941C212.858 37.2722 212.408 37.0023 211.587 37.0023C211.011 37.0023 210.453 37.1403 209.884 37.4102L209.992 36.1986C210.358 36.0246 211.107 35.8147 211.808 35.8147C213.361 35.8147 214.278 36.4805 214.278 37.6861C214.278 38.2619 213.955 38.7538 213.487 39.0117C214.176 39.2936 214.596 39.8934 214.596 40.6611Z" fill="white"/>
<path d="M221.466 42.7905L220.932 41.4409H218.138L217.605 42.7905H216.142L219.05 35.9407H220.063L222.952 42.7905H221.466ZM218.582 40.3133H220.494L219.541 37.8841L218.582 40.3133Z" fill="white"/>
<path d="M230.329 40.793C230.329 42.1306 229.454 42.7964 227.53 42.7964H225.06V35.9346H227.757C229.214 35.9346 230.006 36.6303 230.006 37.692C230.006 38.3458 229.748 38.8556 229.238 39.1375C229.934 39.3895 230.329 39.9593 230.329 40.793ZM227.518 37.0802H226.468V38.7717H227.518C228.237 38.7717 228.585 38.4718 228.585 37.9259C228.585 37.3801 228.237 37.0802 227.518 37.0802ZM227.668 41.6507C228.513 41.6507 228.92 41.3268 228.92 40.763C228.92 40.1872 228.513 39.8513 227.679 39.8513H226.468V41.6507H227.668Z" fill="white"/>
<path d="M232.39 39.3714C232.39 37.3801 233.9 35.8206 236.005 35.8206C238.079 35.8206 239.578 37.3381 239.578 39.3714C239.578 41.3928 238.079 42.9103 236.005 42.9103C233.9 42.9103 232.39 41.3568 232.39 39.3714ZM238.157 39.3714C238.157 38.0458 237.24 37.0921 236.005 37.0921C234.746 37.0921 233.81 38.0578 233.81 39.3714C233.81 40.685 234.74 41.6387 236.005 41.6387C237.234 41.6387 238.157 40.697 238.157 39.3714Z" fill="white"/>
<path d="M248.193 44.4279H246.856V42.7904H242.642V44.4279H241.317V41.6148C242.15 41.3448 242.3 40.853 242.408 39.4015L242.654 35.9346H247.522V41.6148H248.187V42.7904L248.193 44.4279ZM246.173 41.6148V37.1762H243.883L243.709 39.5094C243.643 40.4511 243.535 41.1469 243.109 41.6148H246.173Z" fill="white"/>
<path d="M88.233 7.61743H83.9824V29.7923H88.233V7.61743Z" fill="white"/>
<path d="M101.651 7.61743H93.7011V29.7923H101.651C108.947 29.7923 113.719 25.3298 113.719 18.6899C113.719 12.05 108.947 7.61743 101.651 7.61743ZM101.411 26.1215H97.9516V11.2823H101.411C106.531 11.2823 109.432 14.3233 109.432 18.7559C109.432 23.1465 106.525 26.1215 101.411 26.1215Z" fill="white"/>
<path d="M149.707 7.26978C142.932 7.26978 138.088 12.2842 138.088 18.7201C138.088 25.1561 142.926 30.1704 149.707 30.1704C156.379 30.1704 161.218 25.258 161.218 18.7201C161.218 12.1822 156.379 7.26978 149.707 7.26978ZM149.707 26.3317C145.486 26.3317 142.375 23.1167 142.375 18.7201C142.375 14.3235 145.486 11.1085 149.707 11.1085C153.784 11.1085 156.901 14.2935 156.901 18.7201C156.901 23.1827 153.79 26.3317 149.707 26.3317Z" fill="white"/>
<path d="M169.623 7.61743H165.366V29.7863H179.269L179.617 26.1215H169.623V7.61743Z" fill="white"/>
<path d="M191.991 7.26978C185.217 7.26978 180.373 12.2842 180.373 18.7201C180.373 25.1561 185.211 30.1704 191.991 30.1704C198.664 30.1704 203.502 25.258 203.502 18.7201C203.502 12.1822 198.664 7.26978 191.991 7.26978ZM191.991 26.3317C187.771 26.3317 184.659 23.1167 184.659 18.7201C184.659 14.3235 187.771 11.1085 191.991 11.1085C196.068 11.1085 199.185 14.2935 199.185 18.7201C199.185 23.1827 196.068 26.3317 191.991 26.3317Z" fill="white"/>
<path d="M242.502 29.7864H248L239.493 19.2178C243.216 16.9325 245.956 12.9318 245.956 7.60547H241.903C241.903 11.9241 238.941 16.4706 233.432 17.2264V7.61746H229.181V29.7924H233.432V21.3111C234.073 21.2391 234.715 21.1191 235.344 20.9632L242.502 29.7864Z" fill="white"/>
<path d="M70.9863 21.737H75.5666V25.6418C73.9899 26.1396 72.3412 26.4215 71.1662 26.4215C66.6459 26.4215 63.7802 23.0266 63.7802 18.84C63.7802 14.1195 67.0835 11.2584 71.1662 11.2584C73.1685 11.2584 74.9791 12.0741 76.31 13.3997L78.9718 10.7366C77.0114 8.58325 74.1817 7.26367 70.8904 7.26367C64.5416 7.26367 59.3978 12.41 59.3978 18.762C59.3978 25.114 64.5416 30.2603 70.8904 30.2603C72.4971 30.2603 74.0918 30.0384 75.5726 29.6425C77.1073 29.2346 78.5162 28.6408 79.7092 27.9091V23.3445V21.731V21.2692V18.0302H70.5247L70.9863 21.737Z" fill="white"/>
<path d="M218.14 11.2584C220.143 11.2584 221.953 12.0741 223.284 13.3997L225.946 10.7366C223.985 8.58325 221.156 7.26367 217.864 7.26367C211.516 7.26367 206.372 12.41 206.372 18.762C206.372 25.108 211.516 30.2603 217.864 30.2603C221.156 30.2603 223.985 28.9407 225.946 26.7874L223.284 24.1243C221.953 25.4499 220.143 26.2656 218.14 26.2656C214.082 26.2656 210.796 23.4345 210.76 18.762C210.796 14.0895 214.082 11.2584 218.14 11.2584Z" fill="white"/>
<path d="M135.121 14.8451C135.121 10.0706 131.626 7.61743 126.548 7.61743H117.939V29.7923H122.19V22.0368C123.371 22.2108 124.672 22.2348 125.691 22.2408C126.626 25.3478 128.395 28.0829 130.187 30.3082L135.235 29.9423C133.826 28.4308 131.062 25.2878 129.774 21.6709C132.453 20.8012 135.121 18.7799 135.121 14.8451ZM122.19 11.2823H126.272C128.832 11.2823 130.697 12.5599 130.697 14.9171C130.697 17.2024 129.036 18.6539 125.823 18.6539C124.612 18.6539 123.401 18.6179 122.19 18.414V11.2823Z" fill="white"/>
<path d="M34.1901 30.0623C34.322 35.1487 30.3053 39.3774 25.2215 39.5093C20.1376 39.6413 15.911 35.6226 15.7791 30.5362C15.7732 30.3802 15.7732 30.2243 15.7791 30.0683C15.7791 22.3188 24.9876 10.9285 24.9876 10.9285C24.9876 10.9285 34.1901 22.2948 34.1901 30.0623Z" fill="white"/>
<path d="M24.9876 45.8013H4.19658V10.9225V4.19866V0H0V50H24.9876V45.8013Z" fill="white"/>
<path d="M24.9875 0V4.19866H45.7785V35.3587V50H49.9751V0H24.9875Z" fill="white"/>
</g>
<defs>
<clipPath id="clip0_4033_87">
<rect width="248" height="50" fill="white"/>
</clipPath>
</defs>
</svg>
