<svg width="208" height="68" viewBox="0 0 208 68" fill="none" xmlns="http://www.w3.org/2000/svg">
<g clip-path="url(#clip0_4113_6047)" filter="url(#filter0_d_4113_6047)">
<path d="M23.4597 22.7929H30.8553V28.744C28.3069 29.5026 25.6517 29.9241 23.7449 29.9241C16.4563 29.9241 11.8229 24.7485 11.8229 18.359C11.8229 11.1604 17.1513 6.79399 23.7449 6.79399C26.9704 6.79399 29.893 8.04153 32.0492 10.0646L36.344 6.00163C33.1719 2.71419 28.6099 0.708008 23.2994 0.708008C13.0525 0.724866 4.76599 8.56415 4.76599 18.2579C4.76599 27.9516 13.0704 35.7909 23.2994 35.7909C25.9012 35.7909 28.4673 35.4537 30.8553 34.8468C33.3323 34.223 35.6134 33.3127 37.5202 32.2V17.1283H22.6935L23.4419 22.776L23.4597 22.7929Z" fill="#1D1D1B"/>
<path d="M23.2997 36.5159C12.6608 36.5159 4 28.3226 4 18.2579C4 8.19331 12.6608 0 23.2997 0C28.6458 0 33.4752 1.95561 36.8967 5.52964L37.3779 6.0354L32.0317 11.093L31.4971 10.5872C29.4121 8.61478 26.6499 7.53582 23.7273 7.53582C17.1516 7.53582 12.5717 12.0034 12.5717 18.3759C12.5717 24.7485 17.1516 29.2161 23.7273 29.2161C25.4738 29.2161 27.8083 28.8452 30.0715 28.2214V23.5178H22.765L21.8205 16.4372H38.2689V32.6215L37.9125 32.8238C35.9344 33.9702 33.5465 34.9143 31.0338 35.5549C28.5033 36.1956 25.8836 36.5159 23.2818 36.5159H23.2997ZM23.2997 1.43299C13.4984 1.43299 5.51475 8.98567 5.51475 18.2579C5.51475 27.5302 13.4984 35.0829 23.2997 35.0829C25.7767 35.0829 28.2538 34.7794 30.6595 34.1725C32.8693 33.6162 34.9721 32.807 36.772 31.8123V17.8702H23.567L24.1194 22.068H31.604V29.2667L31.0694 29.4184C28.5211 30.177 25.7767 30.6322 23.7273 30.6322C16.3853 30.6322 11.0569 25.4734 11.0569 18.3422C11.0569 11.211 16.2784 6.05226 23.7273 6.05226C26.7925 6.05226 29.7151 7.11436 32.0139 9.03625L35.2572 5.96797C32.1565 3.0177 27.933 1.39927 23.2818 1.39927L23.2997 1.43299Z" fill="#1D1D1B"/>
<path d="M67.7794 29.4859H83.7822L83.2298 35.0324H60.9719V1.4668H67.7794V29.4859Z" fill="#1D1D1B"/>
<path d="M83.9073 35.7574H60.2059V0.758789H68.5281V28.7779H84.6023L83.9073 35.7742V35.7574ZM61.7207 34.3244H82.5173L82.9271 30.2109H66.9956V2.19178H61.7029V34.3244H61.7207Z" fill="#1D1D1B"/>
<path d="M88.0238 18.2907C88.0238 8.54636 95.7757 0.959961 106.628 0.959961C117.481 0.959961 125.073 8.39463 125.073 18.2907C125.073 28.1867 117.321 35.6214 106.628 35.6214C95.9361 35.6214 88.0238 28.035 88.0238 18.2907ZM118.141 18.2907C118.141 11.5809 113.151 6.7762 106.628 6.7762C100.106 6.7762 94.8847 11.6484 94.8847 18.2907C94.8847 24.933 99.8745 29.8051 106.628 29.8051C113.382 29.8051 118.141 25.0341 118.141 18.2907Z" fill="#1D1D1B"/>
<path d="M106.628 36.3298C95.5975 36.3298 87.2753 28.5748 87.2753 18.2741C87.2753 7.97348 95.5975 0.235352 106.628 0.235352C117.659 0.235352 125.821 7.99034 125.821 18.291C125.821 28.5916 117.57 36.3466 106.628 36.3466V36.3298ZM106.628 1.65148C96.4529 1.65148 88.79 8.79956 88.79 18.2741C88.79 27.7487 96.4529 34.8968 106.628 34.8968C116.804 34.8968 124.306 27.9173 124.306 18.2741C124.306 8.63097 116.875 1.66834 106.628 1.66834V1.65148ZM106.628 30.5135C99.3932 30.5135 94.1362 25.3716 94.1362 18.2741C94.1362 11.1766 99.3932 6.03473 106.628 6.03473C113.864 6.03473 118.907 11.2946 118.907 18.2741C118.907 25.2536 113.739 30.5135 106.628 30.5135ZM106.628 7.46772C100.266 7.46772 95.6509 12.0027 95.6509 18.2741C95.6509 24.5456 100.266 29.0805 106.628 29.0805C112.99 29.0805 117.392 24.5456 117.392 18.2741C117.392 12.0027 112.866 7.46772 106.628 7.46772Z" fill="#1D1D1B"/>
<path d="M171.406 35.0493V1.4668H178.214V35.0324H171.406V35.0493ZM187.516 17.55L202.414 35.0493H193.611L179.319 18.3929V17.8197L193.824 1.4668H201.737L187.516 17.55Z" fill="#1D1D1B"/>
<path d="M204 35.7574H193.254L178.98 19.1179V35.7574H170.658V0.758789H178.98V17.0948L193.468 0.758789H203.358L188.478 17.5669L203.982 35.7742L204 35.7574ZM193.967 34.3244H200.81L186.518 17.55L200.097 2.19178H194.163L180.067 18.1401L193.949 34.3244H193.967ZM172.172 34.3244H177.465V2.19178H172.172V34.3244Z" fill="#1D1D1B"/>
<path d="M151.572 29.9407C144.889 29.9407 139.792 24.7651 139.792 18.3756C139.792 11.4467 145.067 6.81059 151.572 6.81059C154.851 6.81059 157.809 8.05813 159.93 10.1486L164.403 5.91708C161.052 2.71393 156.383 0.724609 151.251 0.724609C141.004 0.724609 132.718 8.58075 132.718 18.2576C132.718 27.9345 141.022 35.7906 151.251 35.7906C156.437 35.7906 161.106 33.7845 164.474 30.5307L160.054 26.3498C157.916 28.5414 154.904 29.9238 151.572 29.9238V29.9407Z" fill="#1D1D1B"/>
<path d="M151.251 36.5159C140.612 36.5159 131.952 28.3226 131.952 18.2579C131.952 8.19331 140.612 0 151.251 0C156.437 0 161.302 1.92189 164.955 5.39477L165.49 5.90053L159.93 11.1604L159.395 10.6378C157.328 8.63164 154.566 7.51897 151.572 7.51897C145.192 7.51897 140.541 12.0877 140.541 18.3591C140.541 24.6305 145.388 29.1992 151.572 29.1992C154.584 29.1992 157.399 28.0191 159.502 25.8612L160.037 25.3217L165.543 30.5311L165.009 31.0368C161.338 34.5603 156.455 36.499 151.251 36.499V36.5159ZM151.251 1.43299C141.45 1.43299 133.466 8.96881 133.466 18.2579C133.466 27.5471 141.45 35.0829 151.251 35.0829C155.795 35.0829 160.09 33.4813 163.387 30.5479L160.055 27.3953C157.72 29.5027 154.744 30.6659 151.554 30.6659C144.515 30.6659 139.008 25.2711 139.008 18.3759C139.008 11.4808 144.408 6.08598 151.554 6.08598C154.691 6.08598 157.631 7.16493 159.912 9.12054L163.316 5.90053C160.019 3.0177 155.76 1.43299 151.233 1.43299H151.251Z" fill="#1D1D1B"/>
<path d="M163.155 48.0305C161.712 47.0358 160.09 46.8166 158.38 47.2212C156.116 47.7607 154.584 49.632 154.566 51.8068C154.566 52.0091 154.584 52.1945 154.619 52.3969C154.815 53.9141 155.6 55.0774 157.007 55.8697C158.059 56.4598 159.217 56.6621 160.429 56.5441C161.658 56.4261 162.746 56.0046 163.619 55.1785C164.795 54.0996 165.258 52.7677 165.098 51.2505C164.955 49.9186 164.314 48.8228 163.155 48.0473V48.0305ZM160.785 54.2513C159.057 54.7908 157.292 53.7961 157.168 51.9754C157.114 51.1662 157.346 50.4412 157.987 49.8681C158.629 49.278 159.431 49.0757 160.304 49.2106C161.676 49.4297 162.55 50.4412 162.567 51.7899C162.567 52.9363 161.89 53.9141 160.785 54.2513Z" fill="#1D1D1B"/>
<path d="M180.138 48.0305C178.695 47.0358 177.073 46.8166 175.362 47.2212C173.099 47.7607 171.566 49.632 171.566 51.7899C171.566 51.9079 171.566 52.0428 171.566 52.1608C171.566 52.2451 171.566 52.3126 171.602 52.3969C171.78 53.7961 172.493 54.9088 173.723 55.7012C174.828 56.3924 176.057 56.6452 177.358 56.5272C178.606 56.4261 179.693 55.9877 180.584 55.1617C181.76 54.0827 182.223 52.7509 182.063 51.2336C181.92 49.9018 181.279 48.806 180.12 48.0136L180.138 48.0305ZM178.427 53.931C176.966 54.9257 174.56 54.3525 174.204 52.2788C174.168 52.1103 174.168 51.9585 174.15 51.8068C174.204 50.711 174.649 49.8512 175.719 49.396C177.287 48.7385 179.211 49.514 179.497 51.3179C179.657 52.3631 179.354 53.2735 178.427 53.9141V53.931Z" fill="#1D1D1B"/>
<path d="M151.661 47.3396C150.984 47.6261 150.485 48.0982 150.146 48.722L150.004 47.053L147.687 47.2553C148.026 50.2898 147.83 53.3075 147.901 56.3421H150.396V56.1398C150.396 54.8417 150.396 53.5604 150.396 52.2623C150.396 52.0094 150.396 51.7565 150.431 51.5036C150.503 50.8293 150.77 50.2224 151.34 49.7841C151.839 49.3963 152.427 49.2783 153.051 49.2952C153.265 49.2952 153.479 49.312 153.693 49.3289C153.728 48.5702 153.782 47.8285 153.817 47.0867C153.069 47.0024 152.356 47.053 151.679 47.3396H151.661Z" fill="#1D1D1B"/>
<path d="M132.219 54.6557C131.862 54.6894 131.613 54.504 131.577 54.1668C131.577 54.0656 131.559 53.9476 131.559 53.8465C131.559 51.6717 131.559 49.4969 131.559 47.339V47.1367C130.668 47.2042 129.795 47.2716 128.922 47.339C128.922 47.4233 128.922 47.4908 128.922 47.5582C128.958 48.2494 129.029 48.9406 129.029 49.6487C129.047 50.7613 129.029 51.874 129.047 52.9867C129.047 53.5936 129.047 54.2005 129.064 54.8074C129.118 55.5492 129.474 56.1393 130.258 56.3921C130.989 56.645 131.666 56.6113 133.128 56.2573L132.682 54.6051C132.522 54.622 132.379 54.6557 132.219 54.6725V54.6557Z" fill="#1D1D1B"/>
<path d="M145.192 54.6561C144.836 54.6898 144.586 54.5044 144.551 54.1672C144.551 54.0661 144.533 53.9481 144.533 53.8469V53.7963C144.533 50.3909 144.533 47.0023 144.533 43.5968V43.3945C143.677 43.4451 142.858 43.4957 142.02 43.5294V48.0644C141.824 47.9464 141.664 47.8115 141.503 47.7272C140.577 47.1877 139.543 47.0023 138.474 47.0866C137.369 47.1709 136.389 47.5586 135.605 48.3173C134.268 49.5985 133.876 51.1832 134.215 52.9197C134.607 54.9427 136.353 56.4094 138.456 56.578C139.793 56.6792 141.004 56.3588 142.02 55.4991C142.074 55.4653 142.127 55.4148 142.163 55.381C142.323 55.8531 142.662 56.224 143.232 56.4094C143.963 56.6623 144.64 56.6286 146.101 56.2746L145.656 54.6224C145.495 54.6393 145.353 54.673 145.192 54.6898V54.6561ZM141.343 53.594C140.808 54.1504 140.131 54.4032 139.329 54.4032C137.939 54.4032 136.888 53.5266 136.692 52.2116C136.674 52.0767 136.656 51.9419 136.656 51.8239C136.674 50.8461 137.048 50.0537 137.939 49.5311C139.436 48.6713 141.717 49.3288 142.002 51.3855C142.109 52.2116 141.931 52.9534 141.343 53.5772V53.594Z" fill="#1D1D1B"/>
<path d="M170.159 54.6549C169.802 54.6886 169.553 54.5032 169.517 54.166C169.517 54.0648 169.5 53.93 169.5 53.8288C169.5 50.4234 169.5 47.0011 169.5 43.6125V43.4102C168.644 43.4439 167.824 43.4776 166.987 43.5113V43.6799C166.987 46.7819 166.987 49.867 166.987 52.969C166.987 53.3568 166.987 53.7614 166.987 54.166C166.987 54.3851 166.987 54.5874 167.005 54.8066C167.058 55.5484 167.415 56.1385 168.199 56.3913C168.929 56.6442 169.606 56.6105 171.068 56.2565L170.622 54.6043C170.462 54.6212 170.319 54.6549 170.159 54.6717V54.6549Z" fill="#1D1D1B"/>
<path d="M130.312 45.8048C131.203 45.8048 131.898 45.1978 131.898 44.3718C131.898 43.4951 131.274 42.8545 130.348 42.8545C129.475 42.8545 128.762 43.4951 128.762 44.3212C128.762 45.1304 129.439 45.8048 130.312 45.8048Z" fill="#1D1D1B"/>
<path d="M190.527 53.9478C189.066 54.9425 186.66 54.3693 186.304 52.2957C186.268 52.1271 186.268 51.9754 186.25 51.8237C186.304 50.7278 186.749 49.8681 187.819 49.4129C188.852 48.9745 190.046 49.1768 190.83 49.8681L192.595 48.3002C192.488 48.2159 192.363 48.1147 192.238 48.0305C190.795 47.0358 189.173 46.8166 187.462 47.2212C185.199 47.7607 183.667 49.632 183.667 51.7899C183.667 51.9079 183.667 52.0428 183.667 52.1608C183.667 52.2451 183.666 52.3126 183.702 52.3969C183.88 53.7961 184.593 54.9088 185.823 55.7012C186.928 56.3924 188.157 56.6452 189.458 56.5272C190.688 56.4261 191.775 55.9877 192.684 55.1785L190.848 53.6613C190.741 53.7624 190.634 53.8467 190.51 53.931L190.527 53.9478Z" fill="#1D1D1B"/>
<path d="M200.507 51.9419C200.846 51.6553 201.131 51.3518 201.363 51.0821C202.254 49.9863 202.788 48.5533 202.788 47.2552H200.472C200.472 47.8958 200.222 48.8905 199.527 49.7502C198.832 50.5932 197.888 51.1158 196.694 51.2844V43.3945C195.856 43.4451 195.036 43.4788 194.199 43.5294V56.3588H196.711V53.4929C197.371 53.4254 197.941 53.2906 198.458 53.1051C199.188 54.1504 199.901 55.1956 200.632 56.2408C200.703 56.342 200.757 56.3757 200.881 56.3588C201.737 56.3588 202.61 56.3588 203.465 56.3588H203.661C202.77 55.0944 201.523 53.358 200.525 51.9419H200.507Z" fill="#1D1D1B"/>
<path d="M121.33 51.6878H124.11V53.9131C123.166 54.1997 122.168 54.3514 121.455 54.3514C118.729 54.3514 116.982 52.4127 116.982 50.0188C116.982 47.3214 118.978 45.6861 121.455 45.6861C122.667 45.6861 123.754 46.1581 124.574 46.9168L126.178 45.3995C124.984 44.1688 123.273 43.4102 121.295 43.4102C117.463 43.4102 114.345 46.3604 114.345 49.985C114.345 53.6096 117.463 56.5599 121.295 56.5599C122.275 56.5599 123.237 56.4419 124.128 56.2059C125.055 55.9699 125.91 55.6327 126.623 55.2112V49.5636H121.063L121.348 51.6709L121.33 51.6878Z" fill="#1D1D1B"/>
<path d="M97.9853 52.2788C97.9853 54.8076 95.9893 56.7126 93.4767 56.7126C92.1758 56.7126 91.0174 56.2406 90.2333 55.4145L90.0908 56.544H88.1127V44.5069L90.6254 44.3721V48.7722C91.3917 48.1653 92.3718 47.8281 93.4767 47.8281C96.0072 47.8281 97.9853 49.7163 97.9853 52.2619V52.2788ZM95.4369 52.2788C95.4369 50.9807 94.439 49.9691 93.049 49.9691C91.659 49.9691 90.6254 50.9807 90.6254 52.2788C90.6254 53.5769 91.6411 54.5884 93.049 54.5884C94.4568 54.5884 95.4369 53.6106 95.4369 52.2788Z" fill="#1D1D1B"/>
<path d="M106.111 47.9961H108.731L105.024 56.8132L104.507 58.0607C103.937 59.46 102.903 60.0163 101.175 60.0163C100.64 60.0163 100.248 59.9152 99.9808 59.8477L99.7492 57.8416C100.07 57.9764 100.462 58.0607 100.89 58.0607C101.745 58.0607 102.084 57.7404 102.404 57.0155L102.6 56.5266L98.573 47.9961H101.442L102.761 51.0475C103.153 51.941 103.545 52.9357 103.919 54.1495C104.276 52.9357 104.632 51.941 104.953 51.0475L106.129 47.9961H106.111Z" fill="#1D1D1B"/>
<path d="M49.2464 23.5178C52.2974 23.5178 54.7708 21.178 54.7708 18.2916C54.7708 15.4053 52.2974 13.0654 49.2464 13.0654C46.1954 13.0654 43.722 15.4053 43.722 18.2916C43.722 21.178 46.1954 23.5178 49.2464 23.5178Z" fill="#E20E17"/>
</g>
<defs>
<filter id="filter0_d_4113_6047" x="0" y="0" width="208" height="68" filterUnits="userSpaceOnUse" color-interpolation-filters="sRGB">
<feFlood flood-opacity="0" result="BackgroundImageFix"/>
<feColorMatrix in="SourceAlpha" type="matrix" values="0 0 0 0 0 0 0 0 0 0 0 0 0 0 0 0 0 0 127 0" result="hardAlpha"/>
<feOffset dy="4"/>
<feGaussianBlur stdDeviation="2"/>
<feComposite in2="hardAlpha" operator="out"/>
<feColorMatrix type="matrix" values="0 0 0 0 0 0 0 0 0 0 0 0 0 0 0 0 0 0 0.25 0"/>
<feBlend mode="normal" in2="BackgroundImageFix" result="effect1_dropShadow_4113_6047"/>
<feBlend mode="normal" in="SourceGraphic" in2="effect1_dropShadow_4113_6047" result="shape"/>
</filter>
<clipPath id="clip0_4113_6047">
<rect width="200" height="60" fill="white" transform="translate(4)"/>
</clipPath>
</defs>
</svg>
