<svg width="200" height="60" viewBox="0 0 200 60" fill="none" xmlns="http://www.w3.org/2000/svg">
<g clip-path="url(#clip0_4113_6078)">
<path d="M11.9327 31.0068H0V59.1918H11.9327V31.0068Z" fill="#E4032B"/>
<path d="M15.3369 31.0068H28.1114L38.2139 49.6159L48.1333 31.0068H59.883L43.686 59.1918H32.1926L15.3369 31.0068Z" fill="#E4032B"/>
<path d="M100.018 59.1918H87.2255L77.123 40.5948L67.2219 59.1918H55.4722L71.6509 31.0068H83.1626L100.018 59.1918Z" fill="#E4032B"/>
<path d="M103.404 31.0068H115.941L131.515 47.638V31.0068H143.027V59.1918H130.673L114.916 42.2832V59.1918H103.404V31.0068Z" fill="#E4032B"/>
<path d="M182.101 57.9014C178.276 59.6381 174.25 59.9999 170.608 59.9999C157.943 59.9999 148.829 54.1265 148.829 45.1054C148.829 36.0843 158.876 30.2109 170.425 30.2109C174.195 30.2109 178.514 30.8501 182.101 32.4662V40.6431C179.905 38.9547 176.556 37.2662 171.999 37.2662C165.428 37.2662 161.109 40.7275 161.109 45.3587C161.109 49.628 165.19 52.9687 171.999 52.9687C176.446 52.9687 179.905 51.4009 182.101 49.9054V57.9135V57.9014Z" fill="#E4032B"/>
<path d="M200 31.0068H188.067V59.1918H200V31.0068Z" fill="#E4032B"/>
<path d="M32.4122 11.8191C23.6274 12.9286 16.5264 17.1739 13.8361 22.6975H24.6706C27.1962 19.9357 31.7899 18.0784 37.0242 18.0784C42.2585 18.0784 46.8522 19.9357 49.3778 22.6975H60.2123C57.522 17.1739 50.421 12.9286 41.6362 11.8191L47.9686 6.54874H59.5352V0H43.1552L37.0059 5.11357L30.8566 0H14.4949V6.54874H26.0615L32.3939 11.8191H32.4122Z" fill="#E4032B"/>
</g>
<defs>
<clipPath id="clip0_4113_6078">
<rect width="200" height="60" fill="white"/>
</clipPath>
</defs>
</svg>
