<svg width="264" height="170" viewBox="0 0 264 170" fill="none" xmlns="http://www.w3.org/2000/svg">
<rect width="264" height="170" fill="#991635"/>
<g clip-path="url(#clip0_4276_190)">
<path d="M80.6415 100H87.273V75.7651H95.6138V70H80.6415V100Z" fill="white"/>
<path d="M160.283 75.7651H166.914V100H173.467V75.7651H180.098V70H160.283V75.7651Z" fill="white"/>
<path d="M12.0001 70V100H18.4733V92.3338H26.8142L31.6572 88.0216V74.3122L27.0516 70H12.0001ZM25.1048 86.5688H18.4733V75.7651H25.1048V86.5688Z" fill="white"/>
<path d="M40.0772 70L35.3925 74.3122V95.626L39.9981 99.9382H51.6151L56.2207 95.626V74.3122L51.6942 70H40.0772ZM49.7475 94.1577H42.024V75.7651H49.7475V94.1577Z" fill="white"/>
<path d="M67.062 75.7651H76.4157V70H65.0994L60.4938 74.3122V95.626L65.0994 100H76.4948V94.1576H67.062V75.7651Z" fill="white"/>
<path d="M102.246 70L97.6399 74.3122V95.626L102.246 99.9382H113.863L118.468 95.626V74.3122L113.863 70H102.246ZM111.916 94.1577H104.192V75.7651H111.916V94.1577Z" fill="white"/>
<path d="M183.438 70V100H189.911V92.3338H198.252L203.095 88.0216V74.3122L198.489 70H183.438ZM196.542 86.5688H189.911V75.7651H196.542V86.5688Z" fill="white"/>
<path d="M129.309 75.7651H138.584V70H127.347L122.662 74.3122V95.626L127.347 100H138.663V94.1576H129.309V75.7651Z" fill="white"/>
<path d="M148.429 75.7651H157.782V70H146.466L141.86 74.3122V95.626L146.466 100H157.861V94.1576H148.429V75.7651Z" fill="white"/>
<path d="M247.252 84.6059L251.937 70H245.306L241.792 81.3138H240.542L237.028 70H230.397L235.081 84.6677L230.317 100H236.87L240.621 88.1762H241.713L245.464 100H252.016L247.252 84.6059Z" fill="white"/>
<path d="M222.214 100H228.845L222.293 70H211.056L204.424 100H210.898L212.385 92.8439H220.805L222.214 100ZM213.556 87.2334L215.978 75.8423H217.228L219.65 87.2334H213.572H213.556Z" fill="white"/>
</g>
<defs>
<clipPath id="clip0_4276_190">
<rect width="240" height="30" fill="white" transform="translate(12 70)"/>
</clipPath>
</defs>
</svg>
