<svg width="518" height="66" viewBox="0 0 518 66" fill="none" xmlns="http://www.w3.org/2000/svg">
<g clip-path="url(#clip0_4113_6221)">
<path fill-rule="evenodd" clip-rule="evenodd" d="M107.542 29.5857C102.724 28.4862 98.5854 27.5747 98.5854 24.3196C98.5854 20.0228 104.083 19.5743 106.53 19.5743C109.173 19.4441 111.756 19.9649 114.128 21.0644L120.774 16.377C116.499 13.9031 111.605 12.5432 106.591 12.4708C94.0994 12.4708 89.689 18.8365 89.689 24.7536C89.689 33.3328 97.4223 35.0978 104.355 36.6602C109.173 37.7598 113.312 38.7435 113.312 41.9987C113.312 43.6914 112.3 46.4836 105.307 46.4836C100.549 46.4112 95.9421 44.9934 91.9999 42.3893L88.9489 49.0298C92.6192 51.7641 98.9932 53.5147 105.246 53.5147C115.563 53.5147 122.284 48.6971 122.284 41.2898C122.224 32.8987 114.415 31.1482 107.557 29.5857H107.542ZM61.7159 12.8759C63.3472 14.8869 64.7066 17.1004 65.8545 19.4441L34.483 41.6225L21.3121 33.6944V24.2039L34.4075 32.0741L61.7008 12.8904L61.7159 12.8759ZM7.95994 32.3634C7.95994 32.1609 7.99014 31.9584 8.02035 31.7269H7.99014C8.33754 25.2744 11.2376 19.4007 15.7386 15.1184L15.7688 15.1473C20.5267 10.5322 27.1725 7.66769 34.4377 7.66769C34.9059 7.66769 35.3137 7.66769 35.7971 7.72556V7.63876C40.8419 7.9281 45.5091 9.50504 49.3758 12.0802L56.0972 7.33494C50.1763 2.7922 42.6393 0 34.4226 0V0.0578694C25.5564 0.0723367 17.4756 3.31302 11.3735 8.60807L11.3433 8.57913C4.39533 14.5975 0.060417 23.2345 0 32.8409V32.8698V32.9132V32.9421V32.9711V33.0434C0.0151042 41.5213 3.39845 49.2758 8.92661 55.1206L8.8964 55.1495C15.1647 61.8045 24.1819 65.9421 34.196 66.0145H34.2262H34.3621H34.3924H34.4226C43.3039 66 51.3997 62.7449 57.517 57.4353L57.5774 57.4932C64.5102 51.5037 68.9207 42.7365 68.9207 33.0434C68.9207 31.0324 68.7092 29.0794 68.3769 27.1263L60.9758 32.3924V33.0434C60.9758 40.0745 57.9701 46.4112 53.1669 50.9829L53.1065 50.925C48.3487 55.6125 41.7632 58.4046 34.4377 58.4046H34.3924C34.1809 58.4046 33.9694 58.4046 33.758 58.4046H33.7429C33.5314 58.4046 33.32 58.3757 33.0783 58.3468V58.3757C26.2965 58.043 20.2095 55.2652 15.7386 50.954L15.7688 50.925C10.9506 46.3678 7.95994 40.0601 7.95994 33.0434V33C7.95994 32.7975 7.95994 32.6094 7.95994 32.4068V32.3924V32.3634ZM250.791 52.9215L241.698 39.9877C247.06 37.7742 250.187 33.2893 250.187 27.3722C250.187 18.5905 243.405 13.1363 232.53 13.1363H215.417V52.8637H224.374V41.6081H233.27L241.215 52.8637L250.791 52.936V52.9215ZM224.374 19.8203H232.318C238.088 19.8203 241.215 22.5546 241.215 27.4301C241.215 32.3056 238.088 35.0399 232.318 35.0399H224.374V19.8203ZM197.699 19.8203L207.064 13.1942H175.693V52.9215H207.064V46.2955H184.664V36.1539H203.817V29.5278H184.664V19.8347H197.699V19.8203ZM160.09 32.4358L159.682 32.3056L160.09 32.103C163.413 30.4103 165.527 27.025 165.391 23.4516C165.391 17.0136 159.682 13.2376 150.181 13.2376H130.561V52.9649H151.329C161.646 52.9649 167.355 49.1311 167.355 42.2302C167.415 37.4125 164.712 33.9114 160.09 32.4068V32.4358ZM139.518 19.8203H149.018C155.06 19.8203 156.284 22.4822 156.284 24.6957C156.284 27.8786 153.776 29.5712 149.018 29.5712H139.518V19.8203ZM150.65 46.2955H139.518V36.1539H150.65C155.74 36.1539 158.323 37.8466 158.323 41.2319C158.323 44.6173 155.815 46.31 150.65 46.31V46.2955Z" fill="#374149"/>
<path d="M314.833 13.7293C324.092 13.7871 333.366 13.7293 342.625 13.7582C342.625 15.9428 342.625 18.1129 342.64 20.2974C335.752 20.2974 328.865 20.2974 321.977 20.2974C321.947 23.4803 321.947 26.6631 322.053 29.8459C328.245 29.8025 334.408 29.8314 340.601 29.8314V36.2405C334.393 36.2405 328.185 36.2405 321.977 36.2405V46.9752C329.106 47.0186 336.251 46.8884 343.38 47.0476C343.319 49.1743 343.304 51.2865 343.274 53.4132C333.758 53.3843 324.258 53.4132 314.757 53.3987C314.818 40.1756 314.652 26.9524 314.833 13.7293ZM423.085 14.062C429.202 12.5719 435.939 12.9046 441.678 15.5811C442.615 16.0296 443.868 16.5938 443.642 17.8525C443.717 20.7459 443.596 23.6394 443.702 26.5329C438.824 19.8056 428.447 17.404 421.393 22.2071C414.083 27.4298 414.083 39.8862 421.438 45.0655C428.764 49.7674 439.594 47.6407 444.548 40.5373C444.352 43.4307 444.578 46.3387 444.352 49.2321C441.195 52.2847 436.633 53.6013 432.298 53.9774C425.713 54.4838 418.584 52.8634 413.781 48.1905C408.237 42.7797 407.044 34.215 409.113 27.0537C411.017 20.6881 416.545 15.6534 423.07 14.062H423.085ZM492.942 15.2194C500.207 11.9209 509.209 12.6732 516.036 16.6517C516.006 19.9068 516.006 23.1764 516.006 26.4316C511.868 20.6591 503.621 17.9682 496.93 20.7749C493.894 21.9901 494.256 26.4316 497.096 27.6903C502.594 30.2654 509.345 29.9616 514.239 33.8244C518.649 37.2821 519.057 44.0384 516.051 48.4943C514.194 51.2865 510.886 52.7622 507.684 53.5289C500.751 54.8889 493.108 53.7025 487.474 49.3479C487.444 46.411 487.474 43.4741 487.399 40.5373C491.809 46.7437 500.63 49.0151 507.774 46.6135C510.916 45.5285 511.762 40.7977 508.711 39.1195C503.56 36.3417 497.186 36.6889 492.217 33.4627C485.586 29.5999 485.873 18.489 492.942 15.2049V15.2194ZM270.97 53.4277C270.94 40.2045 270.94 26.9814 270.97 13.7437C278.975 14.0331 287.207 12.8902 295.001 15.1615C300.514 16.6806 305.06 21.1366 306.39 26.6486C307.93 33.3615 307.281 41.0436 302.825 46.6135C298.988 51.2431 292.75 53.1672 286.86 53.3698C281.558 53.4855 276.272 53.3409 270.97 53.4277ZM278.145 20.3987C278.205 29.2527 278.19 38.0923 278.145 46.9463C283.612 46.9174 289.624 47.6263 294.457 44.5592C298.173 42.2878 299.608 37.774 299.517 33.6797C299.653 29.571 298.43 24.8547 294.623 22.5833C289.699 19.6175 283.643 20.3264 278.129 20.3987H278.145ZM347.443 13.7437C350.026 13.7582 352.624 13.7582 355.206 13.7727C359.42 24.0011 363.514 34.2729 367.682 44.5158C372.229 34.4031 376.126 24.0011 380.37 13.7437C382.817 13.7582 385.249 13.7582 387.696 13.7727C382.137 26.9669 376.821 40.2624 371.187 53.4277C368.861 53.3843 366.535 53.3843 364.193 53.4277C358.439 40.2768 353.062 26.9524 347.443 13.7437ZM393.33 13.7582H400.549C400.549 26.9669 400.549 40.1756 400.549 53.3843C398.133 53.3987 395.731 53.3987 393.33 53.3987C393.33 40.19 393.33 26.9669 393.33 13.7582ZM451.904 13.7582C461.193 13.7582 470.482 13.7582 479.771 13.7582C479.771 15.9428 479.771 18.1129 479.786 20.2974C472.899 20.2974 466.011 20.2974 459.108 20.2974C459.108 23.4369 459.109 26.5907 459.093 29.7446C465.301 29.9327 471.524 29.7736 477.747 29.8314V36.2405C471.539 36.2405 465.331 36.2405 459.124 36.2405C459.124 39.8139 459.124 43.4018 459.124 46.9897C466.238 46.9897 473.352 46.9897 480.466 46.9897C480.466 49.1164 480.466 51.2576 480.466 53.3987C470.95 53.4277 461.435 53.3987 451.919 53.3987C451.919 40.1756 451.919 26.9669 451.919 13.7582H451.904Z" fill="#374149"/>
</g>
<defs>
<clipPath id="clip0_4113_6221">
<rect width="518" height="66" fill="white"/>
</clipPath>
</defs>
</svg>
