<svg width="204" height="60" viewBox="0 0 204 60" fill="none" xmlns="http://www.w3.org/2000/svg">
<g clip-path="url(#clip0_4113_6268)">
<path d="M29.4196 60C13.1931 60 0 46.5401 0 30C0 13.4599 13.1931 0 29.4196 0C45.646 0 58.8391 13.4599 58.8391 30C58.8391 46.5401 45.646 60 29.4196 60ZM29.4196 1.81435C14.052 1.79325 1.55321 14.4515 1.55321 30C1.55321 45.5485 14.052 58.1856 29.4196 58.1856C44.7872 58.1856 57.2859 45.5274 57.2859 30C57.2859 14.4726 44.7872 1.79325 29.4196 1.79325V1.81435Z" fill="url(#paint0_linear_4113_6268)"/>
<path d="M204 26.6672C203.927 26.7938 203.799 26.8993 203.781 27.0259C202.867 32.0681 199.852 34.5153 195.741 35.2959C193.621 35.6968 191.428 35.5491 189.272 35.6335C188.76 35.6546 188.249 35.6335 187.591 35.6335C187.591 38.5027 187.518 41.2242 187.627 43.9668C187.682 45.4647 187.225 45.8445 185.983 45.8234C182.73 45.7601 182.73 45.8234 182.73 42.0259C182.73 33.4816 182.73 24.9162 182.73 16.3719C182.73 14.431 183.004 14.0723 184.685 14.1145C188.322 14.1778 191.958 14.0934 195.576 14.3677C199.742 14.6841 203.159 17.9331 203.799 22.6588C203.799 22.7854 203.927 22.912 204 23.0386V26.6462V26.6672ZM187.591 30.7179C190.186 30.5702 192.671 30.6546 195.083 30.2537C197.677 29.8107 199.212 27.3634 199.066 24.5153C198.92 21.6883 197.294 19.7052 194.644 19.431C192.671 19.22 190.679 19.2833 188.687 19.22C187.938 19.1989 187.591 19.5364 187.591 20.4647C187.627 23.7559 187.591 27.047 187.591 30.7179Z" fill="#143F6F"/>
<path d="M111.52 34.2619C113.347 37.2154 115.339 40.4011 117.294 43.6289C117.586 44.1142 117.714 44.7682 117.915 45.3378C117.404 45.4855 116.892 45.6754 116.362 45.8019C113.822 46.3716 112.178 45.169 110.898 42.5952C109.692 40.169 108.103 38.0382 106.732 35.7176C106.294 34.9581 105.8 34.7049 105.033 34.726C103.48 34.7893 101.926 34.726 100.209 34.726C100.209 37.764 100.209 40.6965 100.209 43.6289C100.209 45.0635 99.5875 45.7808 98.3449 45.7808C96.3349 45.7808 95.3298 44.6346 95.3298 42.342C95.3298 33.6922 95.3298 25.0425 95.3298 16.3927C95.3298 14.4306 95.6039 14.0931 97.2668 14.1142C101.47 14.1775 105.672 14.072 109.857 14.4095C113.109 14.6627 115.796 16.4771 117.038 20.1479C118.226 23.6289 118.171 27.2365 115.997 30.2112C114.845 31.7935 113.146 32.8273 111.501 34.2619H111.52ZM100.209 29.6416C103.187 29.6416 106.056 29.8526 108.87 29.5783C111.392 29.3252 112.817 27.1522 112.781 24.3462C112.762 21.7302 111.374 19.726 109.016 19.4939C106.403 19.2197 103.735 19.283 101.104 19.283C100.793 19.283 100.245 19.8737 100.227 20.2112C100.154 23.3547 100.19 26.4771 100.19 29.6416H100.209Z" fill="#143F6F"/>
<path d="M135.367 46.3069C127.272 46.3069 121.04 39.1339 121.095 29.8934C121.15 20.674 127.418 13.5854 135.513 13.6065C143.626 13.6065 149.839 20.7795 149.766 30.02C149.693 39.2605 143.461 46.3069 135.367 46.3069ZM135.367 18.7964C130.086 18.7964 126.193 23.5643 126.193 29.9778C126.193 36.328 130.177 41.117 135.44 41.1381C140.739 41.1381 144.686 36.4124 144.704 30.02C144.704 23.6276 140.702 18.7753 135.385 18.7964H135.367Z" fill="#143F6F"/>
<path d="M85.7367 32.9539C83.7084 32.9539 81.8629 32.9117 79.999 32.9539C79.1036 32.975 78.7382 32.6163 78.7382 31.5826C78.7565 27.321 78.5006 28.186 81.5339 28.1227C84.0922 28.0805 86.6504 28.1227 89.2086 28.1016C90.0857 28.1016 90.4695 28.418 90.4512 29.4729C90.4146 33.1227 90.4512 36.7725 90.4146 40.4222C90.4146 40.9286 90.1405 41.6248 89.7934 41.9201C84.8231 46.2661 79.3046 47.553 73.4025 45.1058C67.6099 42.7007 64.3573 36.0762 64.869 28.2703C65.3075 21.5193 69.8027 15.4433 75.5221 14.072C79.9625 12.9961 84.2201 13.5657 88.0574 16.6459C89.2817 17.6374 89.3183 18.0805 88.3681 19.4096C86.5956 21.8779 86.6139 21.8146 84.2018 20.3168C77.1484 15.9497 70.0768 20.9075 69.9306 29.726C69.8575 34.0087 71.1001 37.6796 74.4806 39.8104C77.989 42.0256 81.5705 41.5615 85.0058 39.3674C85.3347 39.1564 85.6637 38.5446 85.7002 38.1016C85.7733 36.456 85.7367 34.8104 85.7367 32.9328V32.9539Z" fill="#143F6F"/>
<path d="M172.406 24.7263C172.406 21.7727 172.442 18.8191 172.406 15.8655C172.387 14.6208 172.68 14.0723 173.867 14.0723C177.705 14.1145 177.23 13.9457 177.23 17.9752C177.23 23.1862 177.266 28.3761 177.193 33.587C177.102 40.2326 173.867 44.874 168.203 45.9499C163.525 46.836 159.066 46.1609 155.96 41.2875C154.443 38.9246 153.877 36.1398 153.84 33.2495C153.785 27.49 153.84 21.7516 153.804 15.9921C153.804 14.6419 154.279 14.0934 155.412 14.0934C159.194 14.1567 158.646 13.587 158.682 17.8064C158.701 22.8486 158.646 27.9119 158.719 32.9541C158.792 38.9457 162.666 42.279 167.691 40.7811C170.359 40.0005 172.15 37.5533 172.278 34.1356C172.406 30.9921 172.296 27.8486 172.296 24.6841C172.332 24.6841 172.369 24.6841 172.406 24.6841V24.7263Z" fill="#143F6F"/>
<path d="M29.4192 3.12207C14.819 3.12207 2.97812 15.1685 2.97812 29.9997C2.97812 44.8309 14.819 56.8562 29.4192 56.8562C44.0193 56.8562 55.8602 44.8309 55.8602 29.9997C55.8602 15.1685 44.0193 3.12207 29.4192 3.12207ZM35.9061 37.7423C35.6686 41.7508 33.5489 44.3246 29.8943 45.2529C28.469 45.6115 26.9889 45.8014 25.527 45.8436C22.0186 45.928 18.5102 45.8436 15.0018 45.8858C13.7957 45.8858 13.2841 45.4005 13.3024 43.9659C13.3389 34.62 13.3206 25.274 13.3024 15.928C13.3024 14.5145 13.7409 13.966 14.9835 13.987C18.5285 14.0503 22.0917 13.8816 25.6367 14.0714C27.2447 14.1558 28.9258 14.5356 30.4059 15.274C35.2483 17.6579 35.8696 24.8942 31.6485 28.5651C31.4109 28.7761 31.1917 28.987 30.9358 29.2191C31.1368 29.3668 31.283 29.5145 31.4292 29.5778C35.029 31.2866 36.1437 34.1769 35.9427 37.7634L35.9061 37.7423ZM45.4812 43.6706C45.4812 45.6959 45.2984 45.9069 43.5442 45.8647C42.2651 45.8436 40.584 46.2233 39.8348 45.4638C39.177 44.7887 39.5424 42.7634 39.5424 41.3288C39.5242 37.5313 39.5424 33.7339 39.5424 29.9364C39.5424 25.1896 39.579 20.4427 39.5242 15.6959C39.5242 14.3879 39.8531 13.8816 41.0043 14.0081C41.991 14.1136 42.996 14.0925 43.9828 14.0081C45.134 13.9238 45.5177 14.5778 45.5177 15.8014C45.4994 19.409 45.5177 22.9955 45.5177 26.6031C45.5177 32.2993 45.5177 37.9955 45.5177 43.6917L45.4812 43.6706Z" fill="url(#paint1_linear_4113_6268)"/>
<path d="M27.4828 33.037C24.7966 32.6994 22.0739 32.6994 19.1868 32.5518C19.1868 34.8302 19.1503 36.8767 19.2234 38.902C19.2234 39.2184 19.7533 39.788 20.0456 39.788C22.5125 39.788 24.9794 39.788 27.4097 39.5138C29.0725 39.3239 29.9131 37.9948 29.9496 36.2859C29.9679 34.5982 29.1456 33.2269 27.4828 33.0159V33.037Z" fill="url(#paint2_linear_4113_6268)"/>
<path d="M27.4828 33.037C24.7966 32.6994 22.0739 32.6994 19.1868 32.5518C19.1868 34.8302 19.1503 36.8767 19.2234 38.902C19.2234 39.2184 19.7533 39.788 20.0456 39.788C22.5125 39.788 24.9794 39.788 27.4097 39.5138C29.0725 39.3239 29.9131 37.9948 29.9496 36.2859C29.9679 34.5982 29.1456 33.2269 27.4828 33.0159V33.037Z" fill="url(#paint3_linear_4113_6268)"/>
<path d="M27.4828 33.037C24.7966 32.6994 22.0739 32.6994 19.1868 32.5518C19.1868 34.8302 19.1503 36.8767 19.2234 38.902C19.2234 39.2184 19.7533 39.788 20.0456 39.788C22.5125 39.788 24.9794 39.788 27.4097 39.5138C29.0725 39.3239 29.9131 37.9948 29.9496 36.2859C29.9679 34.5982 29.1456 33.2269 27.4828 33.0159V33.037Z" fill="url(#paint4_linear_4113_6268)"/>
<path d="M25.9841 26.6252C27.6652 26.372 28.3962 25.1484 28.4144 23.5028C28.4144 21.8361 27.6652 20.6547 25.9841 20.4015C24.0289 20.1273 22.0189 20.1484 20.0454 20.1695C19.7713 20.1695 19.2779 20.8446 19.2596 21.2243C19.1683 23.0598 19.2231 24.8952 19.2231 27.0682C21.6169 26.9416 23.8279 26.9627 26.0024 26.6252H25.9841Z" fill="url(#paint5_linear_4113_6268)"/>
<path d="M25.9841 26.6252C27.6652 26.372 28.3962 25.1484 28.4144 23.5028C28.4144 21.8361 27.6652 20.6547 25.9841 20.4015C24.0289 20.1273 22.0189 20.1484 20.0454 20.1695C19.7713 20.1695 19.2779 20.8446 19.2596 21.2243C19.1683 23.0598 19.2231 24.8952 19.2231 27.0682C21.6169 26.9416 23.8279 26.9627 26.0024 26.6252H25.9841Z" fill="url(#paint6_linear_4113_6268)"/>
<path d="M25.9841 26.6252C27.6652 26.372 28.3962 25.1484 28.4144 23.5028C28.4144 21.8361 27.6652 20.6547 25.9841 20.4015C24.0289 20.1273 22.0189 20.1484 20.0454 20.1695C19.7713 20.1695 19.2779 20.8446 19.2596 21.2243C19.1683 23.0598 19.2231 24.8952 19.2231 27.0682C21.6169 26.9416 23.8279 26.9627 26.0024 26.6252H25.9841Z" fill="url(#paint7_linear_4113_6268)"/>
</g>
<defs>
<linearGradient id="paint0_linear_4113_6268" x1="51.4568" y1="50.443" x2="4.03192" y2="17.4378" gradientUnits="userSpaceOnUse">
<stop stop-color="#143F6F"/>
<stop offset="1" stop-color="#1D71B8"/>
</linearGradient>
<linearGradient id="paint1_linear_4113_6268" x1="51.4564" y1="50.4427" x2="4.03154" y2="17.4375" gradientUnits="userSpaceOnUse">
<stop stop-color="#143F6F"/>
<stop offset="1" stop-color="#1D71B8"/>
</linearGradient>
<linearGradient id="paint2_linear_4113_6268" x1="46.6512" y1="57.3408" x2="-0.773747" y2="24.3356" gradientUnits="userSpaceOnUse">
<stop stop-color="#143F6F"/>
<stop offset="1" stop-color="#1D71B8"/>
</linearGradient>
<linearGradient id="paint3_linear_4113_6268" x1="46.6512" y1="57.3408" x2="-0.773747" y2="24.3356" gradientUnits="userSpaceOnUse">
<stop stop-color="#143F6F"/>
<stop offset="1" stop-color="#1D71B8"/>
</linearGradient>
<linearGradient id="paint4_linear_4113_6268" x1="46.6512" y1="57.3408" x2="-0.773747" y2="24.3356" gradientUnits="userSpaceOnUse">
<stop stop-color="#143F6F"/>
<stop offset="1" stop-color="#1D71B8"/>
</linearGradient>
<linearGradient id="paint5_linear_4113_6268" x1="51.5846" y1="50.2539" x2="4.15971" y2="17.2487" gradientUnits="userSpaceOnUse">
<stop stop-color="#143F6F"/>
<stop offset="1" stop-color="#1D71B8"/>
</linearGradient>
<linearGradient id="paint6_linear_4113_6268" x1="51.5846" y1="50.2539" x2="4.15971" y2="17.2487" gradientUnits="userSpaceOnUse">
<stop stop-color="#143F6F"/>
<stop offset="1" stop-color="#1D71B8"/>
</linearGradient>
<linearGradient id="paint7_linear_4113_6268" x1="51.5846" y1="50.2539" x2="4.15971" y2="17.2487" gradientUnits="userSpaceOnUse">
<stop stop-color="#143F6F"/>
<stop offset="1" stop-color="#1D71B8"/>
</linearGradient>
<clipPath id="clip0_4113_6268">
<rect width="204" height="60" fill="white"/>
</clipPath>
</defs>
</svg>
