<svg width="205" height="61" viewBox="0 0 205 61" fill="none" xmlns="http://www.w3.org/2000/svg">
<path fill-rule="evenodd" clip-rule="evenodd" d="M47.5951 14.6733V46.9022L59.4296 58.737V26.508L47.5951 14.6733ZM46.506 48.0061H14.306L26.1405 59.8408H58.3224L46.4879 48.0061H46.506ZM12.1097 48.0061V13.6056L0.311462 1.77085V59.8589H23.9624L12.1278 48.0242L12.1097 48.0061ZM13.1987 12.4837H47.5951L59.4296 24.3184V0.666992H1.40053L13.1987 12.4837Z" fill="#233363"/>
<path fill-rule="evenodd" clip-rule="evenodd" d="M77.2541 30.7078C77.2541 36.8785 78.9966 39.2672 82.1549 39.2672C85.3132 39.2672 87.092 36.8604 87.092 30.7078C87.092 24.5552 85.404 22.2027 82.1549 22.2027C78.9059 22.2027 77.2541 24.5733 77.2541 30.7078ZM93.1182 30.7078C93.1182 38.67 89.016 43.4835 82.1549 43.4835C75.2938 43.4835 71.2643 38.8148 71.2643 30.7078C71.2643 22.6008 75.3664 17.9863 82.1912 17.9863C89.016 17.9863 93.1545 22.6189 93.1545 30.7078H93.1182Z" fill="#233363"/>
<path fill-rule="evenodd" clip-rule="evenodd" d="M113.865 20.6431L111.07 23.9728C109.89 22.8689 108.347 22.2356 106.731 22.2175C103.646 22.2175 101.468 24.6966 101.468 30.6683C101.468 36.6399 103.61 39.0105 106.822 39.0105C108.746 39.0105 110.144 38.0695 111.56 36.9657L114.137 40.3315C113.139 41.3268 111.959 42.123 110.652 42.6478C109.345 43.1907 107.948 43.4621 106.532 43.444C99.8704 43.444 95.4233 38.9562 95.4233 30.6321C95.4233 22.3079 100.124 17.9287 106.35 17.9287C109.654 17.9287 111.85 18.9059 113.847 20.5888L113.865 20.6431Z" fill="#233363"/>
<path fill-rule="evenodd" clip-rule="evenodd" d="M122.449 32.4587V42.8639H116.713V18.5791H122.449V27.9709H129.728V18.5791H135.482V42.8639H129.728V32.4587H122.449Z" fill="#233363"/>
<path fill-rule="evenodd" clip-rule="evenodd" d="M144.414 30.7078C144.414 36.8785 146.156 39.2672 149.314 39.2672C152.473 39.2672 154.27 36.8604 154.27 30.7078C154.27 24.5552 152.582 22.2027 149.314 22.2027C146.047 22.2027 144.414 24.5733 144.414 30.7078ZM160.278 30.7078C160.278 38.67 156.175 43.4835 149.314 43.4835C142.453 43.4835 138.387 38.8148 138.387 30.7078C138.387 22.6008 142.49 17.9863 149.314 17.9863C156.139 17.9863 160.278 22.6189 160.278 30.7078Z" fill="#233363"/>
<path fill-rule="evenodd" clip-rule="evenodd" d="M171.022 38.7072C173.726 38.7072 175.65 38.1462 175.65 35.4861C175.65 33.0251 173.944 32.1203 171.439 32.1203H168.916V38.7072H171.022ZM168.916 28.302H171.058C173.454 28.302 174.706 27.3972 174.706 25.3524C174.706 23.3076 173.381 22.6561 170.604 22.6561H168.934V28.302H168.916ZM181.549 35.7938C181.549 41.3311 177.066 42.8693 170.967 42.8693H163.162V18.5664H170.023C176.54 18.5664 180.533 20.2131 180.533 24.7733C180.533 27.8496 178.318 29.4783 176.086 29.985C178.79 30.5097 181.549 31.8308 181.549 35.7576V35.7938Z" fill="#233363"/>
<path fill-rule="evenodd" clip-rule="evenodd" d="M193.148 22.7466L190.589 33.4775H195.707L193.148 22.7466ZM189.609 37.6396L188.374 42.8512H182.439L189.754 18.5664H196.724L204.039 42.8874H197.94L196.688 37.6758L189.609 37.6396Z" fill="#233363"/>
<path fill-rule="evenodd" clip-rule="evenodd" d="M77.0548 51.8721V53.1569H73.715V60.4496H72.154V51.8721H77.0548Z" fill="#233363"/>
<path fill-rule="evenodd" clip-rule="evenodd" d="M80.8657 56.0112C81.1198 56.0655 81.3739 56.0836 81.628 56.0655C82.7897 56.0655 83.5157 55.4864 83.5157 54.4912C83.5157 53.4959 82.8441 53.0254 81.7732 53.0254C81.4647 53.0254 81.1742 53.0435 80.8657 53.0978V56.0112ZM79.3228 52.012C80.1215 51.8853 80.9201 51.8311 81.7188 51.8311C82.8623 51.8311 83.7154 52.0663 84.2418 52.5368C84.5141 52.772 84.7319 53.0616 84.8771 53.3873C85.0223 53.713 85.0949 54.075 85.0767 54.4369C85.0949 54.7988 85.0404 55.1607 84.9134 55.4864C84.7863 55.8303 84.5867 56.1198 84.3325 56.3912C83.7154 57.0246 82.7352 57.3141 81.628 57.3141C81.3739 57.3141 81.1198 57.3141 80.8475 57.2779V60.5171H79.3047V52.0301L79.3228 52.012Z" fill="#233363"/>
<path fill-rule="evenodd" clip-rule="evenodd" d="M88.4535 51.8721L89.9056 55.2379C90.1415 55.7989 90.3049 56.3056 90.5045 56.8123H90.5408C90.6679 56.4142 90.8131 55.8713 91.0309 55.2198L92.1563 51.8902H93.808L92.12 56.2151C91.7025 57.3913 91.158 58.5133 90.4682 59.5629C90.2323 59.9067 89.9056 60.1781 89.5244 60.3772C89.1614 60.5762 88.7439 60.6667 88.3264 60.6667C88.0541 60.6667 87.7819 60.6305 87.5278 60.5581L87.6548 59.2914C87.8363 59.3276 88.0178 59.3457 88.1993 59.3457C88.9254 59.3457 89.3973 58.7304 89.597 58.26C89.6333 58.1876 89.6514 58.0971 89.6333 58.0247C89.6333 57.9523 89.597 57.8618 89.5607 57.8076L86.6928 51.9083H88.4535V51.8721Z" fill="#233363"/>
<path fill-rule="evenodd" clip-rule="evenodd" d="M102.502 51.8721V60.4496H100.941V53.1569H97.4746V60.4496H95.9136V51.8721H102.502Z" fill="#233363"/>
<path fill-rule="evenodd" clip-rule="evenodd" d="M112.177 51.8721V60.4496H110.616V53.1569H107.149V60.4496H105.588V51.8721H112.177Z" fill="#233363"/>
<path fill-rule="evenodd" clip-rule="evenodd" d="M119.418 56.8597L118.747 54.7424C118.583 54.2177 118.438 53.6386 118.311 53.15H118.293C118.166 53.6386 118.039 54.2357 117.894 54.7424L117.222 56.8597H119.418ZM116.968 58.054L116.224 60.497H114.608L117.367 51.9014H119.364L122.159 60.497H120.453L119.672 58.054H116.95H116.968Z" fill="#233363"/>
<path fill-rule="evenodd" clip-rule="evenodd" d="M130.056 51.8721V55.5456H130.31L132.924 51.8721H134.811L131.708 55.7446C132.96 55.9799 133.468 56.7942 133.867 57.8799C134.176 58.7847 134.448 59.6533 134.829 60.4677H133.141C132.869 59.8343 132.615 59.1828 132.434 58.5133C132.089 57.4637 131.635 56.7218 130.401 56.7218H130.038V60.4677H128.477V51.8721H130.038H130.056Z" fill="#233363"/>
<path fill-rule="evenodd" clip-rule="evenodd" d="M138.079 56.2158C138.079 57.953 138.95 59.3645 140.456 59.3645C141.963 59.3645 142.816 57.953 142.816 56.1615C142.816 54.5691 142.017 52.9947 140.456 52.9947C138.895 52.9947 138.079 54.4424 138.079 56.1977V56.2158ZM144.486 56.0891C144.486 58.9664 142.743 60.6131 140.366 60.6131C137.988 60.6131 136.427 58.7673 136.427 56.2339C136.427 53.7005 138.079 51.7461 140.493 51.7461C142.907 51.7461 144.486 53.6462 144.486 56.0891Z" fill="#233363"/>
<path fill-rule="evenodd" clip-rule="evenodd" d="M154.286 56.9682C154.232 55.8644 154.178 54.5253 154.178 53.3671H154.141C153.869 54.4167 153.506 55.5749 153.125 56.6606L151.872 60.3884H150.674L149.531 56.7149C149.204 55.611 148.896 54.4529 148.66 53.3671H148.641C148.605 54.5072 148.551 55.8644 148.496 57.0406L148.297 60.497H146.826L147.389 51.9014H149.458L150.584 55.3577C150.892 56.3711 151.164 57.3844 151.382 58.3435H151.419C151.655 57.4206 151.945 56.3349 152.272 55.3577L153.47 51.9195H155.503L155.993 60.515H154.432L154.268 57.0044L154.286 56.9682Z" fill="#233363"/>
<path fill-rule="evenodd" clip-rule="evenodd" d="M165.414 51.8721V60.4496H163.853V53.1569H160.386V60.4496H158.825V51.8721H165.414Z" fill="#233363"/>
<path fill-rule="evenodd" clip-rule="evenodd" d="M172.656 56.8597L171.984 54.7424C171.821 54.2177 171.676 53.6386 171.549 53.15H171.531C171.404 53.6386 171.276 54.2357 171.131 54.7424L170.441 56.8597H172.656ZM170.206 58.054L169.461 60.497H167.864L170.623 51.9014H172.62L175.415 60.497H173.727L172.928 58.054H170.206Z" fill="#233363"/>
<path fill-rule="evenodd" clip-rule="evenodd" d="M179.407 51.8721V55.3103H183.037V51.8721H184.598V60.4496H183.037V56.6675H179.407V60.4496H177.846V51.8721H179.407Z" fill="#233363"/>
<path fill-rule="evenodd" clip-rule="evenodd" d="M189.12 51.8819V54.9039C189.12 56.2611 189.083 57.5278 189.029 58.6679H189.047C189.501 57.7088 190.063 56.6592 190.608 55.7001L192.877 51.8457H194.474V60.4413H193.004V57.4012C193.004 56.044 193.004 54.9582 193.113 53.8544H193.076C192.641 54.8858 192.133 55.863 191.552 56.8221L189.392 60.4594H187.631V51.8819H189.101H189.12Z" fill="#233363"/>
<path fill-rule="evenodd" clip-rule="evenodd" d="M200.246 49.9941C200.264 50.4465 200.409 50.7723 200.899 50.7723C201.389 50.7723 201.516 50.4465 201.571 49.9941H202.66C202.587 50.9713 201.952 51.478 200.845 51.478C199.737 51.478 199.193 50.9713 199.12 49.9941H200.227H200.246ZM198.957 51.8761V54.8981C198.957 56.2553 198.921 57.5221 198.848 58.6621H198.884C199.32 57.703 199.883 56.6535 200.445 55.6944L202.714 51.8399H204.311V60.4355H202.841V57.3954C202.841 56.0382 202.841 54.9524 202.95 53.8486H202.932C202.496 54.88 201.988 55.8572 201.407 56.8163L199.247 60.4536H197.505V51.858H198.975L198.957 51.8761Z" fill="#233363"/>
</svg>
