<svg width="204" height="60" viewBox="0 0 204 60" fill="none" xmlns="http://www.w3.org/2000/svg">
<path fill-rule="evenodd" clip-rule="evenodd" d="M0 0.0226035H10.3236C10.6744 1.1534 10.9918 2.32942 11.3426 3.48283C15.2014 16.7584 19.0603 30.0339 22.9191 43.2868C24.1051 39.1481 25.2578 35.0094 26.4438 30.8933C28.983 21.9374 31.5221 12.9815 34.0612 4.04823C34.4455 2.71389 34.813 1.37958 35.1972 0.0452415H56.3455C56.7799 0.0904733 57.2142 0.0904581 57.6485 0.13569C60.1041 0.361849 62.5598 1.13079 64.7481 2.64606C65.9341 3.43761 67.02 4.45532 68.039 5.60874C69.1749 6.87523 70.1772 8.36788 70.9623 10.0641C71.7976 11.896 72.3488 13.9766 72.566 16.1025C72.8166 18.4998 72.733 20.9423 72.282 23.2718C71.9312 25.0584 71.3298 26.7546 70.5447 28.2699C69.7095 29.8756 68.6737 31.2778 67.5378 32.4764C66.3518 33.7203 65.0488 34.738 63.6623 35.507C62.1923 36.3211 60.6387 36.8413 59.0685 37.1353C61.0062 37.1353 62.9607 37.1353 64.8984 37.1353C68.0724 44.7569 71.2463 52.3784 74.4202 60C70.8454 60 67.2873 60 63.7124 60C60.6053 52.4689 57.5149 44.9152 54.4078 37.3841C51.4844 37.3841 48.5444 37.3841 45.621 37.3841C45.621 44.9152 45.621 52.4689 45.621 60C42.397 60 39.1562 60 35.9322 60C35.9322 42.2465 35.9322 24.493 35.9322 6.73953C35.8821 6.87523 35.8487 7.03353 35.7985 7.19184C30.904 24.787 26.0095 42.4048 21.115 60C20.1294 60 19.1605 60 18.1749 60C12.9797 42.156 7.80117 24.3121 2.60596 6.46815C2.60596 24.3121 2.60596 42.156 2.60596 60C1.7373 60 0.868654 60 0 60C0 40.0075 0 19.9925 0 0V0.0226035ZM45.6043 3.00792V34.4214H53.0547C53.6394 34.3988 54.2073 34.2857 54.7753 34.1048C56.1618 33.6525 57.4481 32.6121 58.4337 31.21C59.4025 29.8304 60.1041 28.1568 60.5719 26.3702C61.19 24.0633 61.4405 21.6208 61.4907 19.1783C61.5241 16.5775 61.3069 13.9314 60.6888 11.4436C60.2211 9.56652 59.5195 7.77986 58.5172 6.30982C57.565 4.90764 56.3456 3.86733 54.9758 3.36978C54.1739 3.07578 53.3554 2.96267 52.5201 2.98528H45.6043V3.00792ZM91.4258 15.6954C92.7121 15.1527 94.0652 14.9039 95.4183 14.9039C96.8883 14.9039 98.375 15.1074 99.7782 15.7633C100.714 16.2156 101.599 16.8941 102.334 17.8213C103.086 18.7712 103.67 19.9925 103.921 21.372C104.021 21.8922 104.071 22.435 104.055 22.9778C103.754 22.9778 103.453 22.9778 103.153 22.9778C103.153 22.1184 103.036 21.2589 102.768 20.49C102.551 19.8794 102.267 19.3366 101.916 18.8843C100.981 17.7083 99.7949 16.8715 98.5254 16.6001C97.2558 16.3061 95.9361 16.3513 94.6832 16.7132C93.3803 17.1202 92.1441 17.9796 91.1919 19.2461C90.223 20.5352 89.5381 22.2088 89.1205 23.9502C88.586 26.1666 88.4022 28.496 88.4189 30.8029C88.4189 32.7478 88.586 34.7154 88.9869 36.5699C89.3544 38.3113 89.9725 39.9623 90.8244 41.3871C91.4592 42.4727 92.2777 43.3773 93.2466 43.8748C94.0652 44.3045 94.9505 44.4176 95.8359 44.3498C96.9384 44.2593 98.0743 43.807 98.943 42.8571C99.5778 42.1787 100.046 41.2288 100.279 40.1885C100.363 39.9171 100.313 39.6457 100.329 39.3743C100.329 38.5601 100.329 37.746 100.329 36.9318C100.329 35.4165 100.346 33.9012 100.329 32.3634C101.933 32.3634 103.554 32.3634 105.157 32.3634V45.1414H104.405C103.57 44.101 102.718 43.0607 101.883 41.9977C101.232 43.1511 100.313 43.9427 99.3272 44.4629C98.1579 45.0961 96.905 45.3675 95.6688 45.4127C94.2823 45.458 92.8791 45.2544 91.5594 44.7117C89.204 43.7618 87.1159 41.7489 85.6292 39.1029C84.7438 37.5424 84.1258 35.7105 83.8084 33.7882C83.6079 32.6121 83.5077 31.3909 83.5244 30.1922C83.5077 27.9533 83.8251 25.6917 84.5434 23.6789C85.2116 21.7791 86.2139 20.1055 87.3832 18.7486C88.5693 17.369 89.9558 16.3061 91.4592 15.6954H91.4258ZM142.409 14.9491C144.263 14.7908 146.151 15.0396 147.888 15.899C149.225 16.5548 150.444 17.5726 151.497 18.8617C152.599 20.196 153.518 21.8243 154.136 23.6336C154.838 25.669 155.155 27.9306 155.155 30.147C155.155 32.5443 154.787 34.9642 153.969 37.1127C153.267 38.9672 152.248 40.5956 151.062 41.9073C149.91 43.1964 148.573 44.1463 147.137 44.7117C146.134 45.0961 145.099 45.3223 144.046 45.3675C142.209 45.458 140.338 45.1413 138.634 44.1915C137.231 43.4225 135.961 42.2465 134.909 40.7765C133.806 39.2838 132.937 37.4746 132.403 35.4844C131.785 33.1323 131.634 30.5767 131.835 28.1116C132.035 25.7821 132.637 23.5432 133.622 21.6208C134.474 19.9698 135.56 18.5224 136.796 17.4142C138.45 15.9216 140.421 15.13 142.392 14.9491H142.409ZM142.81 16.1704C142.008 16.2834 141.223 16.6453 140.555 17.2559C139.887 17.844 139.319 18.6355 138.851 19.5401C137.949 21.2816 137.414 23.3396 137.13 25.4203C136.813 27.8402 136.763 30.3279 136.913 32.7705C137.08 35.3034 137.531 37.8816 138.517 40.0754C139.168 41.5454 140.104 42.8798 141.273 43.5809C142.192 44.1236 143.228 44.2819 144.213 44.101C144.998 43.9653 145.75 43.5809 146.402 42.9702C146.986 42.4501 147.471 41.749 147.888 41.0027C148.389 40.0528 148.807 39.0124 149.124 37.9269C149.793 35.5974 150.027 33.0871 150.06 30.5993C150.06 29.1293 150.01 27.6366 149.859 26.1666C149.609 23.9502 149.108 21.7565 148.206 19.8794C147.571 18.5224 146.686 17.3238 145.583 16.6679C144.714 16.1477 143.745 15.9895 142.81 16.1252V16.1704ZM109.835 15.2657H119.958C121.545 15.2657 123.148 15.7181 124.535 16.781C125.17 17.2559 125.738 17.8666 126.272 18.5224C126.757 19.1557 127.174 19.8794 127.492 20.6709C127.859 21.5982 128.076 22.6385 128.143 23.6789C128.243 25.0358 128.126 26.4154 127.759 27.6819C127.325 29.2198 126.506 30.5089 125.554 31.4813C124.869 32.1824 124.117 32.7478 123.299 33.1323C122.681 33.4263 122.046 33.6525 121.411 33.7203C121.862 33.7656 122.33 33.7203 122.781 33.7429H124.284C125.871 37.5424 127.458 41.3419 129.028 45.164C127.241 45.164 125.47 45.164 123.683 45.164C122.129 41.4097 120.593 37.6329 119.056 33.8786C117.602 33.8786 116.132 33.8786 114.679 33.8786V45.164C113.059 45.164 111.455 45.164 109.835 45.164C109.835 35.1904 109.835 25.2167 109.835 15.2431V15.2657ZM114.679 16.7584C114.679 21.9827 114.679 27.2069 114.679 32.4086C115.832 32.4086 117.001 32.4086 118.154 32.4086C118.571 32.4086 118.989 32.3407 119.39 32.1824C120.309 31.8206 121.077 30.9612 121.578 29.8982C122.046 28.9257 122.313 27.7949 122.447 26.6641C122.597 25.4655 122.614 24.2443 122.497 23.0456C122.397 21.9148 122.179 20.8066 121.795 19.8115C121.461 18.9521 120.993 18.1606 120.392 17.6178C119.757 17.0298 118.972 16.7358 118.22 16.7584C117.034 16.7584 115.848 16.7584 114.662 16.7584H114.679ZM159.181 15.2431C160.801 15.2431 162.405 15.2431 164.025 15.2431V33.4263C164.008 34.6702 164.075 35.9141 164.326 37.1353C164.677 38.922 165.412 40.5729 166.514 41.6811C167.717 42.9024 169.254 43.4225 170.741 43.3999C172.261 43.3999 173.814 42.8345 174.984 41.5002C175.384 41.0479 175.735 40.5277 176.019 39.9623C176.019 33.856 176.019 27.7497 176.019 21.6434C176.019 19.5175 176.019 17.369 176.019 15.2431H180.847C180.847 25.2167 180.847 35.1904 180.847 45.164C180.596 45.164 180.346 45.164 180.079 45.164C178.909 43.7166 177.757 42.2691 176.587 40.8217C175.752 42.4953 174.516 43.7392 173.129 44.4629C171.476 45.3223 169.655 45.458 167.901 45.2771C166.297 45.0961 164.71 44.4855 163.34 43.3547C162.087 42.337 161.018 40.9122 160.283 39.216C159.816 38.1304 159.498 36.9318 159.331 35.6879C159.181 34.6023 159.164 33.5168 159.164 32.4312V15.2431H159.181ZM185.658 15.2431C188.665 15.2431 191.688 15.2431 194.695 15.2431C195.364 15.2431 196.032 15.2431 196.7 15.311C198.17 15.4693 199.623 16.0573 200.843 17.1655C201.878 18.1153 202.831 19.314 203.382 20.8293C203.749 21.8244 203.95 22.9551 204 24.0633V25.0358C203.95 26.2344 203.733 27.4331 203.298 28.4961C202.647 30.147 201.578 31.4361 200.392 32.3408C198.989 33.4037 197.385 33.856 195.781 33.856C194.01 33.856 192.256 33.856 190.486 33.856C190.486 37.6103 190.486 41.3645 190.486 45.1414C188.865 45.1414 187.262 45.1414 185.641 45.1414C185.641 35.1678 185.641 25.1941 185.641 15.2205L185.658 15.2431ZM190.502 16.7358V32.386C191.521 32.386 192.54 32.386 193.559 32.386C193.927 32.386 194.294 32.4086 194.662 32.3408C195.464 32.2051 196.216 31.7075 196.783 30.9385C197.218 30.3731 197.569 29.6495 197.802 28.9031C198.17 27.7723 198.354 26.5284 198.404 25.2846C198.437 24.2216 198.404 23.1587 198.254 22.141C198.103 21.078 197.819 20.0377 197.368 19.1331C197.017 18.432 196.566 17.8213 196.032 17.4142C195.464 16.9619 194.796 16.7358 194.127 16.7358C192.925 16.7358 191.705 16.7358 190.502 16.7358Z" fill="#1D1D1B"/>
</svg>
