<svg width="205" height="61" viewBox="0 0 205 61" fill="none" xmlns="http://www.w3.org/2000/svg">
<path d="M0.264435 59.3659H6.98249V37.6391H26.7195V28.3146H6.98249V11.2806H28.9589V1.95605H0.264435V59.3659Z" fill="#1D1D1B"/>
<path d="M109.269 20.1175C109.269 11.3415 105.383 1.95605 94.4935 1.95605H76.9739V59.3355H83.6919V38.3095C85.7117 38.3095 88.6317 38.3095 92.2981 38.34L102.726 59.3355H110.893L99.9382 37.304C106.305 34.6833 109.225 27.3699 109.225 20.1175H109.269ZM83.7139 11.2806H94.5155C99.9382 11.2806 102.573 14.1754 102.573 20.1175C102.573 23.439 101.541 29.0155 94.5813 29.0155C89.8172 29.0155 86.1508 29.0155 83.7358 28.985V11.2806H83.7139Z" fill="#1D1D1B"/>
<path d="M52.0539 0.666992C40.2424 0.666992 32.2949 12.8254 32.2949 30.926C32.2949 49.0265 40.0448 60.667 52.0539 60.667C64.063 60.667 71.7909 48.9961 71.7909 30.926C71.7909 12.8559 63.8654 0.666992 52.0539 0.666992ZM52.0539 51.312C40.2863 51.312 39.0349 37.0509 39.0349 30.8955C39.0349 20.7787 42.4598 9.96101 52.0539 9.96101C61.648 9.96101 65.0729 20.7787 65.0729 30.8955C65.0729 37.0204 63.7995 51.312 52.0539 51.312Z" fill="#1D1D1B"/>
<path d="M137.566 41.0521L127.358 1.95605H115.919V59.3659H122.637V11.2806L135.217 59.3659H139.806L152.803 11.2806L152.825 59.3659H159.565V1.95605H148.148L137.566 41.0521Z" fill="#1D1D1B"/>
<path d="M197.063 59.3251H204.264L188.304 1.88477H179.324L163.363 59.3251H170.564L173.967 47.0448H193.617L197.019 59.3251H197.063ZM176.58 37.7202L183.825 11.6664L191.07 37.7202H176.602H176.58Z" fill="#1D1D1B"/>
</svg>
