<svg width="204" height="60" viewBox="0 0 204 60" fill="none" xmlns="http://www.w3.org/2000/svg">
<g clip-path="url(#clip0_4113_6243)">
<path d="M37.3076 20.5158H31.6166C31.6166 20.2357 30.5465 18.0275 25.9743 18.0275C22.6423 18.0275 21.9127 19.214 21.9127 20.005C21.9127 21.8506 26.4363 22.2131 29.1359 22.6746C32.176 23.2019 38.1588 24.273 38.1588 28.3433C38.1588 30.601 36.3591 32.0676 34.7783 32.9245C32.6867 34.0286 29.7682 34.5889 26.3391 34.5889C17.8755 34.5889 14.1545 31.3095 13.7654 28.1621H20.2346C20.3562 28.8542 21.6695 31.1942 26.5579 31.1942C30.7411 31.1942 31.2275 29.6946 31.2275 29.0684C31.2275 27.2887 27.5551 26.8767 24.3205 26.2999C20.9642 25.7067 15.2489 24.7509 15.2489 20.5652C15.2489 17.4837 18.5565 14.6328 26.3147 14.6328C36.2132 14.6328 37.3076 19.5106 37.3076 20.5158Z" fill="#010101"/>
<path d="M61.3854 29.5296C61.0936 30.5843 59.075 34.5887 51.1952 34.5887C47.693 34.5887 45.0907 33.6494 43.5099 32.5782C42.0507 31.5895 40.4698 29.8262 40.4698 27.1237C40.4698 23.9597 42.5614 22.18 44.2152 21.2077C46.6716 19.7905 49.3468 19.5928 51.2438 19.5928C55.3053 19.5928 57.859 20.8452 59.2696 21.9987C60.5585 23.0369 61.7259 24.7672 61.7259 27.2061V27.9476H47.1337C47.1337 29.8427 48.2038 31.7707 51.487 31.7707C54.2839 31.7707 55.4026 30.3206 55.6701 29.5296H61.4098H61.3854ZM55.3296 25.5417C55.3296 24.8331 54.8676 22.4272 51.3168 22.4272C47.766 22.4272 47.1337 24.5365 47.1337 25.5417H55.3296Z" fill="#010101"/>
<path d="M72.8643 19.891H77.2906V22.8572H72.8643V29.3334C72.8643 29.8443 72.8643 30.4705 73.521 30.9484C74.056 31.3109 74.7613 31.3768 75.4423 31.3768H77.7527V34.3431C76.3421 34.4749 74.4938 34.5902 73.1561 34.5902C71.5996 34.5902 69.5324 34.3595 68.1461 33.3708C66.5653 32.2502 66.6383 30.8165 66.6383 29.4488V22.8572H63.282V19.891H66.6383L67.222 15.4746H72.8643V19.891Z" fill="#010101"/>
<path d="M117.176 34.3096H113.674L112.629 32.1838C111.923 32.8429 110.95 33.4032 110.026 33.7658C108.47 34.359 106.475 34.5897 104.724 34.5897C102.122 34.5897 98.8875 34.2107 96.1636 32.1838C93.6586 30.3217 92.3696 27.3719 92.3696 24.8671C92.3696 22.3623 93.464 19.4126 95.9691 17.4516C98.9362 15.128 102.657 14.6172 105.624 14.6172C114.282 14.6172 116.714 18.5227 117.104 21.456H110.634C110.513 20.7474 110.099 19.9069 109.467 19.3302C108.81 18.704 107.594 17.9954 105.503 17.9954C103.873 17.9954 101.952 18.4403 100.687 20.0882C100.347 20.5331 99.5685 21.7196 99.5685 24.554C99.5685 26.2184 99.8603 28.064 100.906 29.2505C101.782 30.2393 103.29 31.1786 105.746 31.1786C107.302 31.1786 108.543 30.7831 109.394 30.2228C110.221 29.6625 110.853 28.6902 110.853 27.685V27.2071H105.114V23.8949H117.201V34.3096H117.176Z" fill="#010101"/>
<path d="M121.821 34.3096V19.8905H127.245V23.0874H127.318C127.512 21.9833 128.315 21.2253 128.85 20.8298C129.555 20.3189 130.893 19.6104 133.057 19.6104C133.446 19.6104 133.811 19.6433 134.176 19.6598V23.45H133.179C132.133 23.45 131.136 23.5983 130.333 23.9278C128.291 24.8012 127.999 26.169 127.999 27.6851V34.3096H121.773H121.821Z" fill="#010101"/>
<path d="M153.9 21.5878C154.897 22.2635 157.061 24.0432 157.061 27.0753C157.061 29.3989 155.724 31.4587 153.729 32.7606C152.27 33.6999 149.887 34.6062 146.506 34.6062C143.126 34.6062 140.742 33.6999 139.283 32.7606C137.289 31.4587 135.951 29.3989 135.951 27.0753C135.951 24.0432 138.116 22.2635 139.137 21.5878C141.594 19.9399 144.439 19.6104 146.531 19.6104C148.622 19.6104 151.468 19.9564 153.924 21.5878H153.9ZM143.539 23.5653C142.542 24.6035 142.445 25.9877 142.445 27.0753C142.445 29.0199 142.907 29.9592 143.418 30.5524C144.22 31.4917 145.388 31.7718 146.506 31.7718C147.625 31.7718 148.817 31.4917 149.595 30.5524C150.106 29.9592 150.568 29.0199 150.568 27.0753C150.568 26.0042 150.495 24.62 149.473 23.5653C148.768 22.8073 147.844 22.4283 146.506 22.4283C145.169 22.4283 144.245 22.8073 143.539 23.5653Z" fill="#010101"/>
<path d="M166.352 19.8906V28.5751C166.352 29.1024 166.352 30.1241 167.058 30.7503C167.52 31.1787 168.298 31.4094 169.174 31.4094C170.171 31.4094 171.265 31.0963 171.971 30.4537C172.797 29.7121 172.943 28.8387 172.943 28.1136V19.9071H179.169V34.3262H173.405V31.7555H173.332C172.238 33.4528 170.074 34.6064 166.936 34.6064C165.015 34.6064 163.604 34.2109 162.51 33.5847C160.418 32.3982 160.126 30.7503 160.126 29.2672V19.9071H166.352V19.8906Z" fill="#010101"/>
<path d="M183.717 38.9567V19.8905H189.481V22.214C190.77 20.5167 193.275 19.6104 195.95 19.6104C201.179 19.6104 203.976 22.6919 203.976 26.96C203.976 32.3816 199.842 34.5898 195.707 34.5898C193.154 34.5898 191.232 33.8812 189.943 32.464V38.9402H183.717V38.9567ZM189.943 28.5584C189.943 30.5689 191.33 31.7883 193.567 31.7883C196.656 31.7883 197.458 29.4977 197.458 27.0589C197.458 23.7795 195.95 22.4447 193.567 22.4447C191.354 22.4447 189.943 23.7136 189.943 25.4439V28.5584Z" fill="#010101"/>
<path d="M88.7453 12.8379H82.422V34.2606H88.7453V12.8379Z" fill="#010101"/>
<path d="M88.7212 12.8535H82.3979V34.2762H88.7212V12.8535Z" fill="#010101"/>
<path d="M0 0V60H88.721V38.6432H82.3734V55.7155H6.4206V4.30102H82.3977V8.60203H88.7454V0H0Z" fill="#E52629"/>
</g>
<defs>
<clipPath id="clip0_4113_6243">
<rect width="204" height="60" fill="white"/>
</clipPath>
</defs>
</svg>
