<svg width="204" height="60" viewBox="0 0 204 60" fill="none" xmlns="http://www.w3.org/2000/svg">
<g clip-path="url(#clip0_4113_6347)">
<path d="M57.3147 39.9626C55.0764 39.9626 53.8183 36.3925 53.8183 30.1265V29.7622C53.8183 23.4963 55.1744 19.8533 57.2984 19.8533C59.0139 19.8533 59.8962 21.7477 60.1249 25.3906H63.2292C63.1639 22.1848 62.4776 19.1976 61.3503 17.1575C58.5891 13.0773 54.9457 13.6967 52.5113 18.724C51.2369 21.7112 50.5507 25.6821 50.5997 29.7987V30.163C50.5997 34.7896 51.1879 38.5783 52.3316 41.2376C53.4752 43.897 55.1581 45.4271 57.3474 45.4271C58.8342 45.5728 60.3047 44.5528 61.4973 42.5855C62.6247 40.509 63.3109 37.4489 63.3926 34.2067H60.4027C60.1576 38.0682 58.9976 39.999 57.2984 39.999M68.6862 15.0446L64.2585 45.0992H67.1177L68.049 38.4325H72.9178L73.8491 45.0992H77.0351L72.6727 15.0446H68.7025H68.6862ZM68.6862 33.5509L70.4998 20.5819L72.2643 33.5509H68.6699H68.6862ZM83.7174 15.0446H79.0447V45.0992H82.0673V34.1702H83.7828C85.0898 34.316 86.3806 33.5145 87.4589 31.8752C88.3902 30.163 88.8967 27.54 88.8313 24.8442V24.662C88.8313 18.2868 86.9851 15.081 83.7011 15.081M85.8904 24.8442C85.8904 27.8679 85.1389 29.3979 83.6194 29.3979H82.0673V20.2176H83.6194C85.0572 20.2176 85.8904 21.4926 85.8904 24.662V24.8442ZM91.3474 45.0628H94.419V14.9717H91.3474V45.0263V45.0628ZM107.326 15.0081H97.0495V20.2905H100.677V44.9899H103.732V20.2905H107.359L107.31 14.9717L107.326 15.0081ZM111.509 15.0081L107.081 45.0628H109.94L110.872 38.3961H115.74L116.672 45.0628H119.841L115.479 15.0081H111.509ZM111.509 33.5145L113.371 20.5819L115.136 33.5509H111.509V33.5145ZM124.939 15.0081H121.884V45.0628H130.412V39.744H125.004L124.939 15.0081ZM143.32 33.8788H146.342C146.342 35.5546 146.064 37.1575 145.542 38.3233C143.94 41.1648 141.62 40.7641 140.232 37.4125C139.594 35.2996 139.284 32.8223 139.349 30.2723V29.9444C139.349 23.7877 140.705 19.9262 143.058 19.9262C144.692 19.9262 145.689 21.5291 145.983 25.0628H149.022C148.94 21.8205 148.205 18.8697 147.028 16.9753C145.836 15.2996 144.447 14.4253 143.042 14.5345C139.398 14.2067 136.327 20.5455 136.196 28.6693C136.196 29.0701 136.196 29.4708 136.196 29.8351V30.1994C136.114 34.2431 136.752 38.1775 137.977 41.1284C139.121 43.8606 140.836 45.4635 143.042 45.4635C145.051 45.4635 146.636 44.1156 147.715 41.7841C148.842 39.1976 149.43 35.7367 149.365 32.1302V28.9243H143.32V33.9152V33.8788ZM160.998 29.5801C161.553 28.0865 161.831 26.2285 161.798 24.2978V24.152C161.864 21.4926 161.341 18.9061 160.377 17.2668C159.478 15.7367 158.171 15.0446 156.586 15.0446H151.783V45.0992H154.805V33.5509H156.129L159.347 45.0992H162.582L159.037 32.3852C159.789 31.9116 160.475 31.0008 161.014 29.6894M158.825 24.6256C158.825 27.4671 158.057 28.9243 156.521 28.9243H154.805V20.3269H156.521C158.008 20.3269 158.825 21.3834 158.825 24.4435V24.6256ZM170.703 14.7167C168.873 14.6074 167.092 16.1739 165.752 18.979C164.429 21.8569 163.726 25.8642 163.775 29.9808V30.3087C163.693 34.4253 164.396 38.4325 165.719 41.3469C167.026 44.2613 168.84 45.7914 170.686 45.5728C174.33 46.01 177.434 39.7804 177.63 31.6566C177.63 31.1466 177.63 30.6365 177.63 30.163V29.8351C177.679 25.7549 176.976 21.7841 175.686 18.9061C174.33 16.101 172.549 14.6074 170.703 14.7531V14.7167ZM174.428 30.163C174.477 32.7495 174.117 35.2996 173.431 37.3761C172.745 39.0883 171.765 40.0719 170.719 40.0719C169.69 40.0719 168.693 39.0883 168.007 37.3761C167.255 35.336 166.879 32.7859 166.928 30.163V29.8351C166.863 27.2486 167.222 24.6985 167.925 22.622C169.02 19.999 170.735 19.234 172.189 20.6912C172.663 21.1648 173.088 21.8569 173.431 22.6948C174.101 24.7713 174.46 27.285 174.411 29.8351V30.163H174.428ZM188.086 32.6766C188.086 38.1775 187.302 40.1083 185.489 40.1083C183.675 40.1083 182.989 37.959 182.989 32.9316V15.0446H179.917V33.2959C179.917 41.3105 181.911 45.4635 185.456 45.4635C189.001 45.4635 191.158 41.2741 191.158 33.0409V15.0446H188.086L188.054 32.6766H188.086ZM198.804 15.0446H194.132V45.0992H197.22V34.1702H198.935C200.242 34.316 201.533 33.5145 202.611 31.8752C203.559 30.163 204.065 27.54 203.984 24.8442V24.662C203.984 18.2868 202.137 15.081 198.853 15.081M201.059 24.8442C201.059 27.8679 200.308 29.3979 198.788 29.3979H197.236V20.2176H198.788C200.242 20.2176 201.059 21.4926 201.059 24.662V24.8442ZM14.2307 46.1921C15.7828 46.3378 17.3186 45.2814 18.5766 43.2049C19.753 41.0191 20.4719 37.8497 20.5699 34.4253H17.4656C17.2042 38.469 15.9952 40.4362 14.2307 40.4362C11.8943 40.4362 10.5709 36.6839 10.5709 30.163V29.7987C10.5709 23.2413 11.9923 19.3797 14.198 19.3797C15.9952 19.3797 16.9265 21.3469 17.1552 25.1721H20.4229C20.3412 21.8205 19.6223 18.6875 18.4459 16.5746C17.2042 14.6074 15.7011 13.6238 14.1653 13.7695C12.2864 13.6967 10.4892 15.2996 9.16578 18.2504C7.82604 21.3469 7.10716 25.4999 7.15617 29.7987V30.163C7.15617 35.0446 7.76069 38.979 8.96972 41.7112C10.1788 44.4435 11.927 46.1192 14.2307 46.1192M29.3109 46.1192C31.4185 46.1192 33.0851 44.6985 34.1961 42.2577C35.3724 39.5619 36.0096 35.9189 35.9279 32.1302V28.7786H29.605V33.9517H32.7746C32.7746 35.6639 32.4805 37.3396 31.9577 38.5783C31.2552 39.9626 30.3402 40.6912 29.3926 40.5455C28.2326 40.7276 27.1052 39.6347 26.3863 37.5947C25.7165 35.4089 25.3897 32.7859 25.4551 30.1265V29.7622C25.4551 23.3141 26.8765 19.2704 29.3436 19.2704C31.0591 19.2704 32.1048 20.9462 32.3988 24.6256H35.5685C35.4868 21.2741 34.7189 18.1775 33.4935 16.1739C32.2518 14.3888 30.7977 13.5145 29.3109 13.6238C27.3993 13.5145 25.5531 15.1539 24.1643 18.1047C22.8083 21.1648 22.073 25.3542 22.1384 29.6529V30.0172C22.1384 34.7167 22.7592 38.6876 24.0173 41.4927C25.259 44.2978 27.0072 46.01 29.3272 46.01M0 59.999H43.0514V-0.000976562H0.0326766L0 59.999ZM40.3556 54.061H2.69582V6.00995H40.3719V54.061H40.3556Z" fill="#0C1743"/>
</g>
<defs>
<clipPath id="clip0_4113_6347">
<rect width="204" height="60" fill="white"/>
</clipPath>
</defs>
</svg>
