<svg width="204" height="60" viewBox="0 0 204 60" fill="none" xmlns="http://www.w3.org/2000/svg">
<g clip-path="url(#clip0_4113_6337)">
<path fill-rule="evenodd" clip-rule="evenodd" d="M35.1566 33.4238H40.6672V45.7879H37.8046V35.3421H37.0352L30.97 45.7879H27.6779L21.6127 35.3421H20.8612V45.7879H17.9986V33.4238H23.5092L29.3597 43.5755L35.1208 33.4238H35.1566Z" fill="#272A5A"/>
<path fill-rule="evenodd" clip-rule="evenodd" d="M64.0157 45.7879H61.0815L59.6681 42.6514H50.597L49.1836 45.7879H46.2852L51.8137 33.4238H58.4872L63.9978 45.7879H64.0157ZM53.8891 35.3421L51.4558 40.747H58.8272L56.3939 35.3421H53.8712H53.8891Z" fill="#272A5A"/>
<path fill-rule="evenodd" clip-rule="evenodd" d="M81.7466 38.4087V33.4238H84.6092V45.7879H81.7466V40.327H72.5145V45.7879H69.6519V33.4238H72.5145V38.4087H81.7466Z" fill="#272A5A"/>
<path fill-rule="evenodd" clip-rule="evenodd" d="M91.5335 45.7879V33.4238H103.807V35.3421H94.4141V45.7879H91.5335Z" fill="#272A5A"/>
<path fill-rule="evenodd" clip-rule="evenodd" d="M124.436 45.7879H121.502L120.089 42.6514H111.018L109.604 45.7879H106.706L112.234 33.4238H118.908L124.418 45.7879H124.436ZM114.31 35.3421L111.876 40.747H119.248L116.814 35.3421H114.292H114.31Z" fill="#272A5A"/>
<path fill-rule="evenodd" clip-rule="evenodd" d="M142.882 39.0532V39.5013C145.083 39.9353 146.192 40.9295 146.192 42.5118C146.192 44.8782 143.329 46.0684 137.586 46.0684C134.652 46.0684 132.469 45.7323 131.02 45.0742C129.571 44.4161 128.765 43.3939 128.587 42.0077H131.485C131.7 43.4499 133.721 44.178 137.55 44.178C141.379 44.178 143.293 43.5339 143.293 42.2317C143.293 40.9295 141.379 40.3274 137.55 40.3274H133.972V38.4231H137.55C139.357 38.4231 140.663 38.2831 141.486 38.017C142.309 37.751 142.721 37.3169 142.721 36.7288C142.721 35.6086 141.003 35.0625 137.55 35.0625C135.743 35.0625 134.401 35.2305 133.507 35.5946C132.612 35.9447 132.111 36.4908 132.004 37.2469H129.123C129.284 35.8467 130.054 34.8105 131.413 34.1524C132.773 33.4943 134.831 33.1582 137.604 33.1582C142.918 33.1582 145.566 34.2784 145.566 36.5188C145.566 37.849 144.671 38.6891 142.882 39.0392V39.0532Z" fill="#272A5A"/>
<path fill-rule="evenodd" clip-rule="evenodd" d="M165.246 45.7879H152.382V33.4238H165.085V35.3281H155.245V38.4227H164.316V40.327H155.245V43.9116H165.246V45.8019V45.7879Z" fill="#272A5A"/>
<path fill-rule="evenodd" clip-rule="evenodd" d="M179.077 33.4238H185.875V45.7879H182.995V41.6992H181.027L174.443 45.7879H170.399L177.019 41.6012C173.459 41.2511 171.67 39.8509 171.67 37.4425C171.67 34.754 174.139 33.4238 179.059 33.4238H179.077ZM179.077 39.8089H182.995V35.3421H179.077C177.484 35.3421 176.339 35.5102 175.642 35.8322C174.944 36.1543 174.586 36.7004 174.586 37.4425C174.586 38.2826 174.944 38.8847 175.642 39.2628C176.339 39.6269 177.484 39.8089 179.077 39.8089Z" fill="#272A5A"/>
<path fill-rule="evenodd" clip-rule="evenodd" d="M0 60H204V0H0V60ZM2.84476 57.7736H201.173V2.22637H2.84476V57.7736Z" fill="#272A5A"/>
</g>
<defs>
<clipPath id="clip0_4113_6337">
<rect width="204" height="60" fill="white"/>
</clipPath>
</defs>
</svg>
