<svg width="205" height="61" viewBox="0 0 205 61" fill="none" xmlns="http://www.w3.org/2000/svg">
<path d="M13.5185 47.8027L12.183 39.6558H5.24509L3.90964 47.8027H0.261536L7.49259 6.47461H10.0169L17.1991 47.8027H13.5022H13.5185ZM6.33626 32.8139H11.0918L8.73033 18.1414L6.33626 32.8139Z" fill="#9C1C3E"/>
<path d="M32.5397 35.7591C32.5397 43.8269 30.3573 47.8213 25.5692 47.8213H19.4293V6.41406H26.1229C29.7385 6.41406 31.7091 10.6062 31.7091 17.0131C31.7091 20.9679 31.0739 24.0527 29.7873 25.7137C31.5462 27.2561 32.5234 30.6968 32.5234 35.7195L32.5397 35.7591ZM25.5529 13.335H22.9471V23.5385H25.5529C27.3281 23.5385 28.2076 21.7193 28.2076 18.4368C28.2076 15.1543 27.3281 13.335 25.5529 13.335ZM25.9275 40.9003C28.0284 40.9003 29.0381 38.9624 29.0381 35.5217C29.0381 32.081 28.0284 30.0245 25.9601 30.0245H22.9634V40.8608H25.9438L25.9275 40.9003Z" fill="#9C1C3E"/>
<path d="M42.6703 3.32227H49.9339C55.2758 3.32227 58.761 11.8648 58.761 25.0344C58.761 38.204 55.3735 47.8539 49.771 47.8539H42.6703V3.32227ZM46.6278 40.0628H49.6082C53.126 40.0628 54.6732 33.6955 54.6732 25.0344C54.6732 17.7575 53.2237 11.0738 49.6245 11.0738H46.6278V40.0232V40.0628Z" fill="#666665"/>
<path d="M64.6566 33.1024C64.6566 37.2945 65.5198 41.368 67.4253 41.368C69.0051 41.368 69.4611 39.8256 69.8194 37.8086H73.6303C73.1417 41.8821 71.6434 48.6054 67.3113 48.6054C62.9792 48.6054 60.8131 40.3793 60.8131 31.5996C60.8131 21.1192 63.028 13.6445 67.4578 13.6445C72.1808 13.6445 73.7932 21.9497 73.7932 30.2945C73.7932 31.4414 73.7932 32.1532 73.7443 33.1024H64.6566ZM69.9659 27.4074C69.9334 23.5317 69.2982 20.2491 67.4416 20.2491C65.585 20.2491 64.8846 23.2944 64.7218 27.4074H69.9659Z" fill="#666665"/>
<path d="M79.07 14.3828C80.3892 25.6937 81.4803 35.6203 81.7409 39.6147H81.7735C82.1644 34.1175 83.5161 24.0326 84.705 14.3828H88.4997L83.6301 47.8012H79.6237L74.9659 14.3828H79.07Z" fill="#666665"/>
<path d="M93.1913 33.1024C93.1913 37.2945 94.0545 41.368 95.96 41.368C97.5397 41.368 97.9958 39.8256 98.3541 37.8086H102.165C101.676 41.8821 100.178 48.6054 95.846 48.6054C91.5139 48.6054 89.3478 40.3793 89.3478 31.5996C89.3478 21.1192 91.5627 13.6445 95.9763 13.6445C100.699 13.6445 102.312 21.9497 102.312 30.2945C102.312 31.4414 102.312 32.1532 102.263 33.1024H93.1751H93.1913ZM98.5006 27.4074C98.4681 23.5317 97.8329 20.2491 95.9763 20.2491C94.1197 20.2491 93.4194 23.2944 93.2565 27.4074H98.5006Z" fill="#666665"/>
<path d="M104.916 47.8087V0.666992H108.727V47.8087H104.916Z" fill="#666665"/>
<path d="M124.949 31.0459C124.949 41.1703 122.457 48.6054 118.092 48.6054C113.728 48.6054 111.334 41.2098 111.334 31.2436C111.334 21.2774 113.907 13.6445 118.271 13.6445C122.327 13.6445 124.949 20.6051 124.949 31.0854V31.0459ZM115.21 31.1249C115.21 37.5713 116.35 41.368 118.19 41.368C120.03 41.368 121.089 37.5714 121.089 31.1645C121.089 24.1644 120.03 20.8819 118.141 20.8819C116.366 20.8819 115.226 24.0458 115.226 31.1249H115.21Z" fill="#666665"/>
<path d="M131.349 44.8878V60.6676H127.554V22.5034C127.554 19.8141 127.554 17.1248 127.521 14.4355H131.218C131.267 15.3056 131.349 17.3621 131.349 18.5881C131.935 16.1361 133.173 13.6445 135.355 13.6445C138.449 13.6445 140.843 19.9328 140.843 30.2945C140.843 42.0799 138.172 48.6054 134.834 48.6054C132.896 48.6054 131.886 46.8257 131.349 44.8878ZM136.967 30.6504C136.967 24.5204 135.941 21.0797 134.134 21.0797C131.967 21.0797 131.202 24.4413 131.202 31.2041C131.202 37.5714 131.919 41.2889 133.971 41.2889C136.023 41.2889 136.967 37.4922 136.967 30.6899V30.6504Z" fill="#666665"/>
<path d="M143.465 23.0176C143.465 20.1305 143.465 17.2434 143.433 14.396H147.081C147.129 15.2265 147.211 17.0853 147.227 18.3904C147.927 15.8988 149.035 13.6445 151.054 13.6445C153.074 13.6445 154.116 16.1361 154.605 18.7463C155.403 16.0175 156.592 13.6445 158.839 13.6445C161.233 13.6445 163.204 17.2435 163.204 25.9046V47.8144H159.491V27.0119C159.491 24.0062 159.035 21.0401 157.487 21.0401C155.94 21.0401 155.24 23.5712 155.24 28.7125V47.8144H151.494V27.3678C151.494 23.8876 151.136 21.1192 149.524 21.1192C147.911 21.1192 147.243 23.413 147.243 29.1475V47.8144H143.481V23.0176H143.465Z" fill="#666665"/>
<path d="M169.67 33.1024C169.67 37.2945 170.533 41.368 172.439 41.368C174.018 41.368 174.474 39.8256 174.833 37.8086H178.644C178.155 41.8821 176.657 48.6054 172.325 48.6054C167.993 48.6054 165.827 40.3793 165.827 31.5996C165.827 21.1192 168.041 13.6445 172.455 13.6445C177.178 13.6445 178.79 21.9497 178.79 30.2945C178.79 31.4414 178.79 32.1532 178.741 33.1024H169.654H169.67ZM174.979 27.4074C174.947 23.5317 174.312 20.2491 172.455 20.2491C170.598 20.2491 169.898 23.2944 169.735 27.4074H174.979Z" fill="#666665"/>
<path d="M181.493 22.8198C181.493 19.9723 181.493 16.848 181.46 14.396H185.157C185.238 15.266 185.287 17.5994 185.304 18.6672C185.776 16.5711 186.883 13.6445 189.294 13.6445C192.062 13.6445 193.854 18.1926 193.854 26.5769V47.854H190.043V27.6051C190.043 23.848 189.522 21.1192 187.844 21.1192C186.167 21.1192 185.304 23.2944 185.304 29.2266V47.854H181.493V22.8593V22.8198Z" fill="#666665"/>
<path d="M195.63 14.3896H197.747V5.33301H201.558V14.3896H204.262V21.3501H201.558V37.8418C201.558 40.3729 201.884 41.3616 203.007 41.3616C203.219 41.3616 203.594 41.3617 203.871 41.243V47.6103C203.121 48.2431 202.079 48.243 201.314 48.243C198.627 48.243 197.747 44.7628 197.747 38.9096V21.3106H195.63V14.35V14.3896Z" fill="#666665"/>
</svg>
