<svg width="205" height="61" viewBox="0 0 205 61" fill="none" xmlns="http://www.w3.org/2000/svg">
<path d="M204.171 37.4709C202.354 37.4709 200.536 37.559 198.718 37.4709C198.342 37.4709 197.862 37.0084 197.611 36.6339C193.453 29.9157 189.338 23.1534 185.201 16.4131C184.95 15.9946 184.699 15.5981 184.449 15.2016C184.365 15.2016 184.261 15.2236 184.177 15.2457C184.177 15.6201 184.177 15.9726 184.177 16.347C184.177 23.0212 184.177 29.6954 184.177 36.3696C184.177 37.2947 183.905 37.559 183.049 37.537C181.545 37.4709 180.04 37.493 178.536 37.537C177.867 37.537 177.596 37.3608 177.596 36.5899C177.596 25.0036 177.596 13.3954 177.596 1.80917C177.596 1.5889 177.638 1.36866 177.679 1.01623C179.56 1.01623 181.398 0.994177 183.237 1.06026C183.508 1.06026 183.822 1.50079 184.01 1.80917C188.209 8.61552 192.388 15.4439 196.587 22.2723C196.796 22.6027 197.005 22.9111 197.381 23.1975V1.01623H204.15V37.493L204.171 37.4709Z" fill="black"/>
<path d="M6.79807 0.986692C6.79807 3.60791 6.79807 6.05292 6.79807 8.49792C6.79807 10.9429 6.79807 13.3879 6.79807 15.899C7.23682 15.921 7.5711 15.9871 7.90538 15.9871C11.2064 15.9871 14.5075 15.9871 17.8085 15.9871C18.6651 15.9871 18.9367 15.7007 18.9158 14.7976C18.8741 10.5244 18.9158 6.27316 18.874 1.99992C18.874 1.18492 19.1039 0.920636 19.8769 0.942663C21.6946 0.986717 23.5122 0.942663 25.3926 0.942663C25.4135 1.36118 25.4553 1.69156 25.4553 2.02197C25.4553 13.454 25.4553 24.886 25.4761 36.3181C25.4761 37.2432 25.2254 37.5295 24.3688 37.4855C22.8646 37.4194 21.3603 37.4414 19.856 37.4855C19.1039 37.4855 18.895 37.2212 18.895 36.4502C18.9159 32.0889 18.8949 27.7275 18.9367 23.3662C18.9367 22.3749 18.7069 22.0666 17.725 22.0886C14.4866 22.1547 11.2482 22.1106 8.00985 22.1106C7.202 22.1106 6.79807 22.5512 6.79807 23.4322C6.79807 27.7716 6.79807 32.0888 6.79807 36.4282C6.79807 37.2432 6.58915 37.5296 5.79523 37.5075C4.24917 37.4635 2.72399 37.4635 1.17793 37.5075C0.467577 37.5075 0.175088 37.3092 0.175088 36.4942C0.175088 24.9521 0.175088 13.432 0.175088 1.88981C0.175088 1.4713 0.091538 0.964644 0.718319 0.964644C2.68223 0.964644 4.66702 0.964644 6.73539 0.964644L6.79807 0.986692Z" fill="black"/>
<path d="M164.893 28.3491C163.89 34.1643 158.145 37.6666 153.715 37.8428C149.788 37.997 146.382 36.8736 143.499 33.988C141.326 31.8294 140.302 29.1201 140.198 26.1464C140.031 21.6089 140.01 17.0492 140.198 12.4896C140.428 6.38816 145.024 1.49816 150.79 0.793297C155.805 0.17654 159.941 1.80653 163.117 5.94761C164.559 7.81991 165.165 10.1107 165.29 12.4676C165.415 14.7364 165.311 17.0272 165.311 19.296C165.311 21.785 165.394 25.3755 164.893 28.3491ZM159.043 19.274C158.897 16.9171 158.834 14.6043 158.604 12.3135C158.312 9.20764 156.035 7.04899 153.068 6.87278C150.017 6.69656 147.469 8.56882 147.009 11.7187C146.278 16.7188 146.236 21.785 147.009 26.8072C147.531 30.1333 149.892 31.7192 153.465 31.5651C155.993 31.4549 158.291 29.1861 158.583 26.2565C158.834 23.9217 158.897 21.5868 159.022 19.274H159.043Z" fill="black"/>
<path d="M38.2209 1.04939H44.7185C44.7185 1.51196 44.7185 1.93047 44.7185 2.34898C44.7185 9.68398 44.6767 17.019 44.7602 24.354C44.7602 25.6756 45.011 27.0633 45.4915 28.2968C46.3272 30.4334 48.0195 31.4908 50.2342 31.5568C51.0072 31.5789 51.822 31.6229 52.5741 31.4247C55.3529 30.7639 57.0452 28.407 57.0452 25.169C57.0661 17.5477 57.0452 9.9043 57.0452 2.26092C57.0452 1.86443 57.0452 1.48991 57.0452 1.02734H63.7099C63.7099 1.48991 63.7099 1.86443 63.7099 2.26092C63.7099 9.57389 63.6473 16.8648 63.7099 24.1557C63.7935 32.3498 58.8837 36.8654 52.7204 37.7024C46.6197 38.5394 40.7907 35.3234 38.8685 29.4642C38.4716 28.2748 38.2209 26.9532 38.2209 25.6976C38.1582 17.7459 38.1791 9.77211 38.1791 1.82035C38.1791 1.60008 38.2 1.35775 38.2417 1.02734L38.2209 1.04939Z" fill="black"/>
<path d="M82.8474 7.2773C82.3668 7.23325 81.9699 7.18918 81.5729 7.18918C79.3165 7.18918 77.0392 7.16715 74.7828 7.18918C74.0307 7.18918 73.6964 6.99098 73.7382 6.13192C73.8008 4.67814 73.759 3.22433 73.7382 1.77055C73.7382 1.26393 73.8426 0.977539 74.4067 0.977539C82.325 0.977539 90.2434 0.977561 98.1617 0.999588C98.2453 0.999588 98.3497 1.04366 98.5587 1.08771C98.5587 2.93798 98.5796 4.81028 98.5169 6.66055C98.5169 6.83676 97.9737 7.1231 97.7021 7.1231C95.5083 7.16715 93.3146 7.12312 91.1 7.14515C89.1987 7.14515 89.4077 6.96895 89.4077 8.8853C89.4077 17.9164 89.4077 26.9254 89.4077 35.9565C89.4077 36.9844 88.9063 37.4984 87.9034 37.4984C86.6707 37.4984 85.4589 37.4984 84.2263 37.4984C83.2931 37.4984 82.8265 37.0211 82.8265 36.0666C82.8265 26.9034 82.8265 17.7622 82.8265 8.59894V7.23327L82.8474 7.2773Z" fill="black"/>
<path d="M106.602 1.04362C107.041 1.04362 107.375 0.999588 107.709 0.999588C115.21 0.999588 122.731 0.999566 130.232 0.977539C131.172 0.977539 131.506 1.21985 131.443 2.2331C131.36 3.3785 131.443 4.54595 131.443 5.69135C131.443 6.67523 130.991 7.16719 130.085 7.16719C127.954 7.16719 125.823 7.16719 123.671 7.16719C123.274 7.16719 122.877 7.21125 122.355 7.23327C122.355 7.71787 122.355 8.13633 122.355 8.55484C122.355 17.8062 122.355 27.0576 122.355 36.3089C122.355 37.19 122.146 37.5424 121.269 37.4984C119.785 37.4323 118.323 37.4323 116.839 37.4984C115.941 37.5424 115.732 37.1679 115.732 36.2869C115.753 27.1016 115.732 17.9164 115.732 8.73109C115.732 7.6738 115.217 7.14515 114.186 7.14515C111.951 7.14515 109.736 7.14515 107.5 7.14515C106.832 7.14515 106.539 6.96895 106.581 6.198C106.644 4.52395 106.581 2.82783 106.581 0.999588L106.602 1.04362Z" fill="black"/>
<path d="M0.19706 51.8116H0.343285C0.844685 51.8116 2.01461 51.7676 2.62047 51.7676C5.92135 51.7676 7.25842 53.772 7.25842 56.0849C7.25842 58.5299 5.67065 60.5563 2.516 60.5563C2.0146 60.5563 1.09539 60.5343 0.343285 60.5343H0.176147V51.8116H0.19706ZM1.65947 53.2434V59.1025C2.05641 59.1246 2.39067 59.1246 2.59959 59.1246C4.60519 59.1246 5.75422 57.9351 5.75422 56.0849C5.75422 54.2346 4.60518 53.1993 2.62047 53.1993C2.2862 53.1993 1.99374 53.1993 1.65947 53.2434Z" fill="black"/>
<path d="M20.7767 51.8033H25.5609V53.235H22.2182V55.3937H25.2057V56.8255H22.2182V59.0722H25.6654V60.5039H20.7558V51.7812L20.7767 51.8033Z" fill="black"/>
<path d="M42.7146 60.5631H41.6074L38.202 51.8184H39.748L42.2132 58.2943L44.574 51.8184H46.0364L42.7355 60.5631H42.7146Z" fill="black"/>
<path d="M58.9685 51.8033H63.7527V53.235H60.41V55.3937H63.3975V56.8255H60.41V59.0722H63.8571V60.5039H58.9476V51.7812L58.9685 51.8033Z" fill="black"/>
<path d="M77.563 51.8184H79.0254V59.1093H82.7441V60.541H77.563V51.8184Z" fill="black"/>
<path d="M99.207 51.6807C101.672 51.6807 103.511 53.4649 103.511 56.1742C103.511 58.8835 101.651 60.6677 99.207 60.6677C96.7626 60.6677 94.9033 58.8835 94.9033 56.1742C94.9033 53.6411 96.6582 51.6807 99.207 51.6807ZM99.207 59.2359C100.941 59.2359 101.986 57.8923 101.986 56.1742C101.986 54.368 100.774 53.1124 99.207 53.1124C97.6401 53.1124 96.4493 54.368 96.4493 56.1742C96.4493 57.9804 97.661 59.2359 99.207 59.2359Z" fill="black"/>
<path d="M117.008 60.526V51.8033C117.468 51.8033 118.784 51.7812 119.369 51.7812C121.813 51.7812 122.565 53.147 122.565 54.5787C122.565 56.0105 121.521 57.3982 119.536 57.3982C119.285 57.3982 118.805 57.3981 118.471 57.3541V60.5039H117.008V60.526ZM118.471 53.235V55.9223C118.805 55.9664 119.16 55.9884 119.494 55.9884C120.351 55.9884 121.04 55.5479 121.04 54.5787C121.04 53.6756 120.518 53.213 119.515 53.213C119.223 53.213 118.867 53.213 118.471 53.235Z" fill="black"/>
<path d="M136.062 51.8184H137.524L140.345 55.8934L143.04 51.8184H144.419V60.541H142.977V54.2413L140.366 58.1181H140.157L137.524 54.2854V60.5631H136.062V51.8404V51.8184Z" fill="black"/>
<path d="M158.523 51.8033H163.307V53.235H159.965V55.3937H162.952V56.8255H159.965V59.0722H163.412V60.5039H158.502V51.7812L158.523 51.8033Z" fill="black"/>
<path d="M183.05 60.541L178.495 54.5057V60.541H177.137V51.8184H178.286L182.841 57.8758V51.8184H184.199V60.541H183.05Z" fill="black"/>
<path d="M197.298 51.8184H204.109V53.2501H201.435V60.541H199.973V53.2501H197.298V51.8184Z" fill="black"/>
</svg>
