<svg width="204" height="60" viewBox="0 0 204 60" fill="none" xmlns="http://www.w3.org/2000/svg">
<g clip-path="url(#clip0_4113_6255)">
<path d="M3.20763 28.3984H-0.000152588V53.4864H3.20763V28.3984Z" fill="#1D1D1B"/>
<path d="M9.6231 5.4043H6.41531V58.336H9.6231V5.4043Z" fill="#1D1D1B"/>
<path d="M16.0386 0H12.8308V60H16.0386V0Z" fill="#1D1D1B"/>
<path d="M22.4391 5.4043H19.2313V56.7971H22.4391V5.4043Z" fill="#1D1D1B"/>
<path d="M28.6865 10.8613H25.4787V53.4858H28.6865V10.8613Z" fill="#1D1D1B"/>
<path d="M78.7892 30.9932H75.7036V49.4244H78.7892V30.9932Z" fill="#1D1D1B"/>
<path d="M67.2413 30.9925H50.6219V49.4238H53.7075V44.4849H67.2413C70.0978 44.4849 72.4349 41.7649 72.4349 38.4008V37.0587C72.4349 33.7125 70.1131 30.9746 67.2413 30.9746V30.9925ZM69.3493 38.4187C69.3493 39.7787 68.4023 40.8881 67.2413 40.8881H53.7075V34.6251H67.2413C68.4023 34.6251 69.3493 35.7345 69.3493 37.0945V38.4366V38.4187Z" fill="#1D1D1B"/>
<path d="M204 37.0773C204 33.731 201.678 30.9932 198.806 30.9932H182.187V49.4244H185.272V44.4856H198.806C199.967 44.4856 200.914 45.595 200.914 46.955V49.4423H204V46.955C204 45.2908 203.419 43.7877 202.503 42.6782C203.434 41.5867 204 40.0656 204 38.4015V37.0594V37.0773ZM185.272 40.8888V34.6257H198.806C199.967 34.6257 200.914 35.7352 200.914 37.0952V38.4372C200.914 39.7972 199.967 40.9067 198.806 40.9067H185.272V40.8888Z" fill="#1D1D1B"/>
<path d="M98.6012 30.9932H87.1601C84.3037 30.9932 81.9666 33.7131 81.9666 37.0773V43.3582C81.9666 46.7045 84.2884 49.4423 87.1601 49.4423H98.6012C101.458 49.4423 103.795 46.7224 103.795 43.3582V37.0773C103.795 33.731 101.473 30.9932 98.6012 30.9932ZM100.709 43.3582C100.709 44.7182 99.7621 45.8276 98.6012 45.8276H87.1601C85.9992 45.8276 85.0521 44.7182 85.0521 43.3582V37.0773C85.0521 35.7173 85.9992 34.6078 87.1601 34.6078H98.6012C99.7621 34.6078 100.709 35.7173 100.709 37.0773V43.3582Z" fill="#1D1D1B"/>
<path d="M123.591 30.9932H106.972V49.4244H110.057V34.6078H123.591C124.752 34.6078 125.699 35.7173 125.699 37.0773V49.4423H128.785V37.0773C128.785 33.731 126.463 30.9932 123.591 30.9932Z" fill="#1D1D1B"/>
<path d="M131.993 38.4015V42.0161V49.4423H153.806V45.8276H135.078V42.0161H153.806V38.4015H135.078V34.6078H153.806V30.9932H131.993V38.4015Z" fill="#1D1D1B"/>
<path d="M157.135 38.4015V42.0161V49.4423H178.948V45.8276H160.221V42.0161H178.948V38.4015H160.221V34.6078H178.948V30.9932H157.135V38.4015Z" fill="#1D1D1B"/>
</g>
<defs>
<clipPath id="clip0_4113_6255">
<rect width="204" height="60" fill="white"/>
</clipPath>
</defs>
</svg>
