<svg width="204" height="60" viewBox="0 0 204 60" fill="none" xmlns="http://www.w3.org/2000/svg">
<g clip-path="url(#clip0_4113_6233)">
<path d="M96.8407 58.5766C95.7275 59.4176 94.0428 59.9998 92.1626 59.9998C87.8305 59.9998 84.6416 57.1373 84.6416 52.334C84.6416 47.8543 87.7854 44.7168 92.1776 44.7168C94.2835 44.7168 95.9682 45.4446 96.8256 46.0106V49.8435C95.8479 48.2909 94.2835 47.4338 92.298 47.4338C89.5904 47.4338 87.7252 49.423 87.7252 52.2532C87.7252 55.2613 89.6506 57.2828 92.4333 57.2828C94.5242 57.2828 95.9682 56.3448 96.8256 55.2128V58.5766H96.8407Z" fill="#334049"/>
<path d="M106.107 57.283C107.957 57.283 108.904 56.6199 108.904 55.2291C108.904 53.8382 108.017 53.1752 106.107 53.1752H102.978V57.283H106.107ZM106.618 50.7169C109.942 50.7169 111.762 52.2695 111.762 55.0997C111.762 57.9299 109.747 59.7574 106.227 59.7574H99.9695V44.9434H111.943L108.799 47.4016H102.978V50.7169H106.618Z" fill="#334049"/>
<path d="M117.569 47.4016V51.0242H123.992V53.4986H117.569V57.283H125.105V59.7574H114.56V44.9434H125.105L121.946 47.4016H117.569Z" fill="#334049"/>
<path d="M133.634 53.0943C135.559 53.0943 136.612 52.0754 136.612 50.2641C136.612 48.4528 135.559 47.4016 133.634 47.4016H130.971V53.0943H133.634ZM133.694 44.9434C137.544 44.9434 139.635 46.9811 139.635 50.2318C139.635 53.4824 137.349 55.5687 133.393 55.5687H130.971V59.7574H127.963V44.9434H133.694Z" fill="#334049"/>
<path d="M159.07 58.5766C157.957 59.4176 156.272 59.9998 154.392 59.9998C150.059 59.9998 146.871 57.1373 146.871 52.334C146.871 47.8543 150.014 44.7168 154.407 44.7168C156.512 44.7168 158.197 45.4446 159.055 46.0106V49.8435C158.077 48.2909 156.512 47.4338 154.527 47.4338C151.819 47.4338 149.954 49.423 149.954 52.2532C149.954 55.2613 151.88 57.2828 154.662 57.2828C156.753 57.2828 158.197 56.3448 159.055 55.2128V58.5766H159.07Z" fill="#334049"/>
<path d="M165.252 55.4717L172.171 44.9434H175.194V59.7574H172.276V49.0673L165.312 59.7574H162.333V44.9434H165.252V55.4717Z" fill="#334049"/>
<path d="M189.003 47.4178H184.551V59.7574H181.542V47.4178H177.21V44.9434H189.003V47.4178Z" fill="#334049"/>
<path d="M194.057 55.4717L200.976 44.9434H204V59.7574H201.082V49.0673L194.117 59.7574H191.139V44.9434H194.057V55.4717Z" fill="#334049"/>
<path d="M86.4164 23.6281C76.278 18.9543 49.8943 7.94078 29.2115 6.30736C20.2013 5.59577 13.3121 5.09442 8.24293 7.71437C3.35427 10.2373 5.06906 13.8599 9.37108 17.0297C13.5377 20.0863 29.9486 25.1968 37.0334 27.1375C47.0664 29.903 52.2409 31.9893 46.7806 42.1133C44.8251 45.7359 45.9683 49.3262 51.6542 47.8384C57.5808 46.2858 69.6295 38.8141 74.5031 35.4826C87.4994 26.6039 103.324 17.0459 106.046 15.3154C113.988 10.2858 116.275 11.2723 117.027 12.275C118.441 14.151 115.914 19.2454 114.38 22.0594C106.783 35.8869 97.9536 28.9327 86.4013 23.6119M111.747 21.2831C113.071 19.2939 115.026 15.3801 114.124 13.9408C113.041 12.2103 108.242 15.5419 106.708 16.5446C92.5836 25.7144 88.1913 30.5014 74.7889 40.1564C69.84 43.7144 58.032 51.1537 52.7523 52.3181C43.9076 54.2588 39.049 47.7252 44.0129 40.5607C47.4425 35.5958 49.1723 32.3774 36.552 29.2238C29.4071 27.4448 11.9884 23.6281 4.43729 18.4529C-1.56448 14.3289 -1.50431 7.1645 4.67796 3.50952C11.146 -0.307197 22.0214 -0.388059 29.4522 0.372048C55.8961 3.07286 83.9796 17.8545 88.432 20.5877C104.557 30.5176 105.068 31.4556 111.762 21.2993" fill="#334049"/>
</g>
<defs>
<clipPath id="clip0_4113_6233">
<rect width="204" height="60" fill="white"/>
</clipPath>
</defs>
</svg>
