<svg width="204" height="60" viewBox="0 0 204 60" fill="none" xmlns="http://www.w3.org/2000/svg">
<path d="M203.98 19.6515C203.92 19.9692 203.88 20.2724 203.821 20.5901C203.501 22.3808 202.125 23.7238 200.37 24.9079C198.197 26.3664 195.604 27.2762 192.852 28.0127C189.681 28.8647 186.43 29.5434 183.099 29.9911C182.98 30.0055 182.84 30.0055 182.681 30.02C182.681 29.4856 182.641 28.9658 182.681 28.4459C182.741 27.9982 183.139 27.7094 183.778 27.5939C186.869 27.0163 189.88 26.3231 192.692 25.1967C194.647 24.4169 196.262 23.3772 197.199 21.8753C199.692 17.8608 196.262 13.3697 190.219 12.7488C184.855 12.2 180.607 14.4672 179.669 18.3807C179.51 19.0161 179.43 19.6803 179.43 20.3302C179.41 23.7815 179.43 27.2473 179.43 30.6987C179.43 33.3558 181.205 35.1464 184.436 36.2728C186.111 36.8504 187.906 37.1248 189.741 37.1681C192.253 37.2403 194.766 37.2259 197.279 37.2548C197.499 37.2548 197.718 37.2548 197.917 37.2548C198.137 38.2079 197.698 38.8144 196.442 38.9877C195.045 39.1754 193.63 39.2909 192.214 39.3198C188.963 39.392 185.732 39.3198 182.581 38.6989C180.128 38.2079 177.815 37.5292 176 36.1573C174.245 34.8287 173.168 33.2547 173.128 31.4207C173.048 27.926 172.908 24.4169 173.168 20.9367C173.467 16.9655 175.9 13.774 180.906 11.839C183.638 10.7704 186.61 10.4671 189.661 10.5826C193.011 10.7126 196.162 11.3624 198.934 12.7632C201.906 14.265 203.721 16.3012 203.92 18.9872C203.92 19.0449 203.98 19.1027 204 19.1605V19.637L203.98 19.6515Z" fill="#1D1D1B"/>
<path d="M43.6552 52.0284V11.2332C43.8148 11.2332 43.9344 11.2043 44.0541 11.2043C49.0798 11.2043 54.1254 11.161 59.1511 11.2332C62.3819 11.2765 65.5729 11.5942 68.5245 12.6628C71.2567 13.6592 73.4704 15.0455 74.3678 17.2405C74.7068 18.0492 74.8664 18.9301 74.8863 19.7677C74.9262 23.4934 74.9262 27.2191 74.8863 30.9304C74.8664 34.2518 72.4533 36.4613 68.4646 37.8909C65.9917 38.7718 63.3392 39.1184 60.6269 39.2339C58.2138 39.335 55.7807 39.335 53.3078 39.3927C53.3078 38.844 53.2679 38.353 53.3078 37.862C53.3476 37.4865 53.8263 37.2844 54.4445 37.2555C56.0001 37.2122 57.5557 37.1833 59.0913 37.0822C60.5272 36.9956 61.9232 36.7212 63.2594 36.3024C66.6099 35.2482 68.4447 33.4142 68.5045 30.7571C68.5643 27.0892 68.5843 23.4212 68.5045 19.7532C68.4447 16.894 66.2509 14.8578 62.3221 13.9625C60.9261 13.6448 59.4503 13.4282 57.9745 13.356C55.342 13.226 52.6895 13.2549 49.9573 13.2116V13.8181C49.9573 25.8328 49.9573 37.8476 49.9573 49.8623C49.9573 50.2522 49.7978 50.4111 49.2992 50.541C47.4245 51.0031 45.5498 51.523 43.6153 52.0284H43.6552Z" fill="#1D1D1B"/>
<path d="M156.295 11.1483C156.295 11.6826 156.314 12.1158 156.295 12.5346C156.255 12.9967 155.796 13.2278 155.078 13.2711C153.183 13.3577 151.269 13.3866 149.394 13.5744C147.44 13.7621 145.605 14.282 144.029 15.1917C141.836 16.4481 141.038 18.1665 141.038 20.116C141.038 23.5385 141.038 26.9754 141.038 30.3979C141.038 33.8637 143.611 35.8709 148.078 36.7518C149.434 37.0262 150.87 37.1706 152.286 37.2139C154.679 37.2861 157.092 37.2284 159.585 37.2284V36.7374C159.585 25.1992 159.585 13.6754 159.585 2.13724C159.585 1.76178 159.745 1.61737 160.223 1.4874C162.098 1.01086 163.973 0.505428 165.907 0V39.3223C165.788 39.3223 165.668 39.3367 165.528 39.3367C160.642 39.3367 155.756 39.3801 150.87 39.3079C147.36 39.2645 143.89 38.9613 140.719 37.7338C137.807 36.6074 135.633 35.0189 134.975 32.5784C134.796 31.9286 134.716 31.2499 134.696 30.5856C134.676 27.0909 134.736 23.5963 134.676 20.1016C134.616 16.3325 137.109 13.9065 141.816 12.4191C143.95 11.7404 146.203 11.4227 148.497 11.336C151.069 11.2205 153.662 11.2205 156.334 11.1627L156.295 11.1483Z" fill="#1D1D1B"/>
<path d="M35.3398 0V0.563191C35.3398 10.6429 35.3199 20.737 35.3398 30.8167C35.3398 33.7337 33.6646 35.972 30.4936 37.676C27.8013 39.1201 24.7101 39.8422 21.3995 39.9577C18.5875 40.0443 15.7556 40.0732 12.9635 39.8855C8.61589 39.5822 4.82668 38.3403 2.09446 35.741C0.678492 34.398 -0.0195278 32.8817 0.000415481 31.1777C0.000415481 24.7949 0.000415481 18.3976 0.000415481 12.0147C0.000415481 11.6248 0.179897 11.466 0.678478 11.336C2.55314 10.8595 4.42781 10.3541 6.38225 9.84863V10.3541C6.38225 17.2279 6.38225 24.1017 6.38225 30.9611C6.38225 32.2174 6.74122 33.4016 7.55889 34.5135C9.07457 36.6074 11.5675 37.6183 14.7584 37.6905C16.8923 37.7338 19.0263 37.7338 21.1403 37.6472C25.7671 37.445 28.0007 35.0478 28.6987 32.7228C28.8982 32.0875 28.9779 31.4232 28.9779 30.7733C28.9779 21.228 28.9779 11.6682 28.9779 2.1228C28.9779 1.76178 29.1175 1.58849 29.5962 1.47296C31.3113 1.05418 33.0065 0.592073 34.7016 0.144408C34.8811 0.101086 35.0806 0.0577632 35.3398 0Z" fill="#1D1D1B"/>
<path d="M108.392 11.2213C108.532 12.4198 108.093 12.9397 106.518 13.1419C105.121 13.3152 103.686 13.3874 102.27 13.4163C99.6969 13.474 97.1242 13.4163 94.5516 13.474C92.7367 13.5173 91.0216 13.8928 89.466 14.6148C87.731 15.4235 86.7537 16.5644 86.8136 18.0951C86.8535 18.976 87.352 19.6836 88.4888 20.0157C90.2039 20.5067 91.939 20.9688 93.714 21.3298C97.2638 22.0663 100.854 22.7161 104.404 23.4526C107.774 24.1458 110.466 25.4743 112.042 27.8137C112.82 28.9834 112.979 30.2254 112.879 31.4961C112.74 33.3446 111.982 35.0486 110.347 36.4927C108.592 38.0523 106.238 38.861 103.546 39.1786C102.569 39.2942 101.552 39.3375 100.554 39.3375C94.1527 39.3375 87.7509 39.3375 81.3491 39.3375H80.711C80.4317 38.1967 80.8905 37.5902 82.4061 37.4024C84.0415 37.2147 85.7167 37.1136 87.372 37.0992C91.0216 37.0559 94.6712 37.0992 98.3208 37.0847C100.814 37.0703 103.067 36.5071 104.822 35.1785C106.438 33.9655 107.016 32.4781 106.657 30.8174C106.438 29.821 105.58 29.099 104.463 28.5502C102.549 27.5827 100.395 27.0773 98.1613 26.644C94.4518 25.9364 90.7623 25.2144 87.0928 24.4779C85.258 24.1025 83.6027 23.4959 82.3862 22.3984C80.9104 21.0843 80.5713 19.5536 80.6711 17.9074C80.8904 14.8026 83.7024 12.6509 87.9304 11.7989C89.9646 11.3946 92.0387 11.2213 94.1327 11.2213C98.7396 11.2068 103.347 11.2213 107.953 11.2213C108.093 11.2213 108.233 11.2213 108.412 11.2501L108.392 11.2213Z" fill="#1D1D1B"/>
<path d="M126.319 39.3332H119.998V38.9C119.998 31.0442 119.998 23.174 119.998 15.3182C119.998 15.0005 120.137 14.8561 120.556 14.755C122.311 14.3218 124.026 13.8452 125.761 13.3975C125.94 13.3542 126.1 13.3109 126.319 13.2676V39.3477V39.3332Z" fill="#1D1D1B"/>
<path d="M113.697 52.0439H115.412C115.991 54.0657 116.549 56.0585 117.128 58.0658C117.167 58.0658 117.207 58.0658 117.227 58.0658C117.786 56.0585 118.324 54.0657 118.882 52.0439H120.578V59.8997H119.441V54.0368C119.441 54.0368 119.381 54.0368 119.341 54.0368C118.803 55.9863 118.264 57.9358 117.726 59.9142H116.509C115.951 57.9791 115.393 56.0585 114.834 54.1234C114.794 54.1234 114.774 54.1234 114.734 54.1234V59.9142H113.658V52.0584L113.697 52.0439Z" fill="#1D1D1B"/>
<path d="M135.275 57.3107V52.0398H136.352V59.9244C136.093 59.9244 135.833 59.91 135.574 59.9244C135.175 59.9678 135.036 59.8234 134.916 59.5634C134.138 57.7439 133.341 55.9099 132.543 54.0904C132.503 54.0037 132.463 53.9171 132.343 53.8304V59.8811H131.247V52.0109C131.685 52.0109 132.124 51.982 132.543 52.0109C132.682 52.0109 132.842 52.1842 132.902 52.2997C133.6 53.8304 134.258 55.3467 134.936 56.8774C134.996 57.0218 135.056 57.1518 135.135 57.2818C135.175 57.2818 135.215 57.2818 135.275 57.2818V57.3107Z" fill="#1D1D1B"/>
<path d="M59.4719 52.0398C60.5089 52.0398 61.526 51.9964 62.543 52.0398C63.6 52.0831 64.3977 52.6607 64.4176 53.4838C64.4774 55.1445 64.4774 56.8052 64.4176 58.4515C64.3777 59.3324 63.4803 59.8956 62.2638 59.91C61.3465 59.9244 60.4292 59.91 59.4719 59.91V52.0253V52.0398ZM60.7083 52.8484V59.1158C61.1471 59.1158 61.5659 59.1158 61.9647 59.1158C62.7225 59.1158 63.2211 58.8125 63.2211 58.2637C63.2609 56.733 63.2609 55.2167 63.2211 53.686C63.2211 53.1373 62.7225 52.8484 61.9647 52.834C61.5659 52.834 61.1471 52.834 60.7083 52.834V52.8484Z" fill="#1D1D1B"/>
<path d="M102.907 55.9714C102.907 56.8089 102.987 57.6609 102.907 58.4985C102.788 59.4805 101.89 60.0003 100.494 60.0003C99.0586 60.0003 98.2011 59.4949 98.0017 58.5129C97.9618 58.2963 97.9219 58.0653 97.9219 57.8342C97.9219 56.3613 97.9019 54.8883 98.0216 53.4298C98.1014 52.4478 99.0387 51.9424 100.435 51.9424C101.851 51.9424 102.688 52.4478 102.907 53.4153C102.927 53.5453 102.987 53.6753 102.987 53.8197C102.987 54.5417 102.987 55.2638 102.987 55.9858H102.927L102.907 55.9714ZM99.1782 55.9714C99.1782 56.7078 99.1782 57.4443 99.1782 58.1808C99.1782 58.8018 99.617 59.1483 100.295 59.1917C101.073 59.235 101.611 58.9606 101.651 58.383C101.711 57.4443 101.711 56.5057 101.711 55.5815C101.711 54.9172 101.711 54.2385 101.651 53.5742C101.591 52.9677 100.933 52.6644 100.116 52.7799C99.5173 52.8666 99.1783 53.2132 99.1583 53.7764C99.1583 54.5128 99.1583 55.2493 99.1583 55.9858L99.1782 55.9714Z" fill="#1D1D1B"/>
<path d="M122.133 10.8608C122.133 9.57559 122.133 8.27592 122.133 6.99069C122.133 6.90404 122.232 6.77407 122.332 6.74519C123.907 6.31197 125.503 5.90763 127.198 5.45996C127.198 5.92207 127.198 6.31197 127.198 6.71631C127.198 7.58276 127.198 8.44921 127.198 9.31565C127.198 9.43118 127.078 9.61891 126.959 9.64779C125.403 10.0666 123.848 10.4709 122.292 10.8753C122.272 10.8753 122.232 10.8753 122.152 10.8464L122.133 10.8608Z" fill="#1D1D1B"/>
<path d="M77.7582 58.5964C78.3166 56.4158 78.8749 54.2208 79.4533 52.0402H80.6099C79.9319 54.6829 79.2538 57.2822 78.5758 59.9249C78.0374 59.9249 77.5388 59.9538 77.0403 59.9249C76.9007 59.9249 76.7212 59.7372 76.6813 59.6217C76.1229 57.5277 75.5645 55.4194 75.0261 53.311C74.9264 52.9067 74.8067 52.5023 74.6871 52.0258C74.9662 52.0258 75.2255 52.0258 75.4648 52.0258C75.8238 51.9969 75.9634 52.0836 76.0431 52.3579C76.5417 54.3508 77.0602 56.3292 77.5787 58.3075C77.5986 58.4086 77.6585 58.5097 77.6984 58.5964C77.7183 58.5964 77.7582 58.5964 77.7781 58.5964H77.7582Z" fill="#1D1D1B"/>
<path d="M107.214 56.7907V59.9099H106.038V52.0541C107.055 52.0541 108.072 51.9963 109.069 52.0685C110.046 52.1407 110.704 52.6751 110.784 53.4404C110.844 54.0903 110.864 54.7545 110.784 55.4044C110.684 56.2275 109.966 56.7185 108.849 56.7907C108.331 56.8196 107.812 56.7907 107.234 56.7907H107.214ZM107.254 55.982C107.733 55.982 108.191 56.0109 108.65 55.982C109.168 55.9531 109.527 55.7076 109.547 55.3322C109.587 54.7256 109.587 54.1047 109.547 53.4982C109.527 53.1516 109.188 52.9061 108.69 52.8628C108.231 52.8339 107.753 52.8628 107.274 52.8628V55.9964L107.254 55.982Z" fill="#1D1D1B"/>
<path d="M84.6594 55.5097H87.2718V56.2895H84.6594V59.0911H87.8701V59.8997H83.4229V52.0439H87.8701V52.8237H84.6594V55.4953V55.5097Z" fill="#1D1D1B"/>
<path d="M123.748 52.0439H128.195V52.8382H125.005V55.4953H127.597V56.2895H125.025V59.0911H128.195V59.8997H123.768V52.0439H123.748Z" fill="#1D1D1B"/>
<path d="M71.3571 55.4916V56.3147H68.7646V59.1018H71.9753V59.896H67.5282V52.0547H71.9953V52.8201H68.7846V55.4916H71.3771H71.3571Z" fill="#1D1D1B"/>
<path d="M141.098 52.8345H139.124V52.0547H144.289V52.8201H142.335V59.896H141.078V52.8345H141.098Z" fill="#1D1D1B"/>
<path d="M90.9018 59.896V52.0547H92.0784V59.0874H95.1893V59.896H90.9018Z" fill="#1D1D1B"/>
</svg>
