<svg width="205" height="61" viewBox="0 0 205 61" fill="none" xmlns="http://www.w3.org/2000/svg">
<path d="M60.0713 0.666992H63.006V3.10178H64.1583C67.8493 3.10178 70.64 6.38342 70.64 11.6764C70.64 16.9694 67.8493 20.251 64.1583 20.251H63.006V23.0827H60.0713V20.251H58.937C55.2461 20.251 52.4554 16.9694 52.4554 11.6764C52.4554 6.38342 55.2461 3.10178 58.937 3.10178H60.0893V0.666992H60.0713ZM60.0713 6.85978H58.937C57.1546 6.85978 55.3901 8.26242 55.3901 11.6764C55.3901 15.0904 57.1546 16.493 58.937 16.493H60.0893V6.88625L60.0713 6.85978ZM62.9881 6.85978V16.4665H64.1403C65.9228 16.4665 67.6872 15.0639 67.6872 11.6499C67.6872 8.23595 65.9228 6.83331 64.1403 6.83331H62.9881V6.85978Z" fill="#0FB1A9"/>
<path d="M74.1334 11.8652C74.1334 5.69892 77.2842 0.75 81.8394 0.75C86.3945 0.75 89.5453 5.69892 89.5453 11.8652C89.5453 18.0316 86.3945 22.9805 81.8394 22.9805C77.2842 22.9805 74.1334 18.0051 74.1334 11.8652ZM86.6106 11.8652C86.6106 7.78965 84.594 4.50801 81.8214 4.50801C79.0487 4.50801 77.0321 7.76319 77.0321 11.8652C77.0321 15.9673 79.0487 19.2225 81.8214 19.2225C84.594 19.2225 86.6106 15.9408 86.6106 11.8652Z" fill="#0FB1A9"/>
<path d="M103.68 22.5527V13.7134H96.496V22.5527H93.5613V1.14258H96.496V9.92892H103.68V1.14258H106.615V22.5527H103.68Z" fill="#0FB1A9"/>
<path d="M124.043 1.16211V18.8142H126.078V27.3094H123.215V22.5722H113.043V27.3094H110.18V18.7877H111.62C112.701 17.094 113.079 13.8652 113.079 10.7689V1.16211H124.043ZM115.995 10.7424C115.995 13.2566 115.851 16.3794 115.041 18.8142H121.127V4.94659H116.013V10.7424H115.995Z" fill="#0FB1A9"/>
<path d="M60.593 47.6727H56.1999V55.9032H53.2652V34.4932H60.593C64.1219 34.4932 65.7243 37.5366 65.7243 41.0829C65.7243 44.6292 64.1219 47.6991 60.593 47.6991V47.6727ZM56.1819 43.8882H60.3769C61.8893 43.8882 62.7895 42.7502 62.7895 41.0564C62.7895 39.3627 61.9073 38.2512 60.3769 38.2512H56.1819V43.8882Z" fill="#0FB1A9"/>
<path d="M72.4598 38.2562V43.2845H79.7876V47.0425H72.4598V52.0973H79.9317V55.8553H69.5251V34.4717H79.9317V38.2297H72.4598V38.2562Z" fill="#0FB1A9"/>
<path d="M94.6053 55.9032V47.064H87.4215V55.9032H84.4867V34.4932H87.4215V43.2795H94.6053V34.4932H97.54V55.9032H94.6053Z" fill="#0FB1A9"/>
<path d="M101.538 45.1738C101.538 39.0075 104.689 34.0586 109.244 34.0586C113.8 34.0586 116.95 39.0075 116.95 45.1738C116.95 51.3402 113.8 56.2891 109.244 56.2891C104.689 56.2891 101.538 51.2872 101.538 45.1738ZM114.016 45.1738C114.016 41.0982 111.999 37.8166 109.226 37.8166C106.454 37.8166 104.437 41.0718 104.437 45.1738C104.437 49.2759 106.454 52.5311 109.226 52.5311C111.999 52.5311 114.016 49.2494 114.016 45.1738Z" fill="#0FB1A9"/>
<path d="M132.723 40.6115C132.723 42.5435 132.147 44.2637 130.995 45.1899C132.147 46.1162 132.723 47.8364 132.723 49.7684C132.723 53.1559 131.157 55.8818 127.79 55.8818H120.966V34.4717H127.79C131.157 34.4717 132.723 37.224 132.723 40.5851V40.6115ZM123.901 43.3109H127.502C128.888 43.3109 129.807 42.4376 129.807 40.7968C129.807 39.156 128.924 38.2562 127.502 38.2562H123.901V43.3109ZM123.901 52.1237H127.502C128.888 52.1237 129.807 51.3033 129.807 49.636C129.807 47.9688 128.924 47.0954 127.502 47.0954H123.901V52.1237Z" fill="#0FB1A9"/>
<path d="M150.999 55.9032H147.902L146.444 51.166H139.674L138.215 55.9032H135.227L141.672 34.4932H144.535L150.999 55.9032ZM140.826 47.3815H145.273L143.077 40.1037L140.844 47.3815H140.826Z" fill="#0FB1A9"/>
<path d="M166.267 60.6405V55.9032H154.439V34.4932H157.373V52.1452H164.197V34.4932H167.132V52.1452H169.166V60.6669H166.286L166.267 60.6405Z" fill="#0FB1A9"/>
<path d="M183.193 55.9032V40.8447L175.811 55.9032H172.876V34.4932H175.811V49.5517L183.193 34.4932H186.128V55.9032H183.193Z" fill="#0FB1A9"/>
<path d="M201.287 55.9032V40.8447L193.906 55.9032H190.971V34.4932H193.906V49.5517L201.287 34.4932H204.222V55.9032H201.287Z" fill="#0FB1A9"/>
<path d="M38.4287 48.3672H12.9327V55.7244H38.4287V48.3672Z" fill="#0FB1A9"/>
<path d="M38.4303 26.2585V18.9013H25.6643V0.666992H0.222351V37.4267H12.9343V40.9995H38.4303V33.6158H12.9523V26.2585H38.4303Z" fill="#0FB1A9"/>
</svg>
