<svg width="205" height="61" viewBox="0 0 205 61" fill="none" xmlns="http://www.w3.org/2000/svg">
<path d="M8.11521 45.1503V60.6578H0.342804V0.666992H37.5441V13.1964H8.14843V32.5136H27.5462V45.1503H8.11521Z" fill="#164194"/>
<path d="M29.7393 29.2495H10.4411V16.6396H37.5615V60.6669H10.4245V48.1375H11.1719C17.134 48.1375 23.0962 48.1375 29.075 48.1375C29.6396 48.1375 29.7725 47.8692 29.7725 46.9838C29.7559 41.4301 29.7725 35.9032 29.7725 30.3495C29.7725 30.0007 29.7559 29.652 29.7393 29.2227V29.2495Z" fill="#164194"/>
<path d="M62.7712 17.1225V5.80046H66.4083V17.1494C67.222 17.3372 67.8531 17.2567 68.4676 16.3177C70.7097 12.8835 73.0015 9.55659 75.2934 6.17607C75.4263 5.98826 75.5923 5.77364 75.7418 5.77364C77.004 5.74681 78.2828 5.77364 79.711 5.77364C76.6386 10.6298 73.6824 15.325 70.6764 20.0738C73.8153 25.2519 76.9376 30.4032 80.1595 35.7154C78.7312 35.7154 77.4358 35.7154 76.157 35.7154C76.0075 35.7154 75.8414 35.4471 75.7252 35.2593C73.234 31.3958 70.7263 27.5592 68.2517 23.6689C67.7369 22.864 67.1722 23.1323 66.6076 23.1592C66.5411 23.1592 66.4083 23.7226 66.4083 24.0177C66.4083 27.5324 66.4083 31.0739 66.4083 34.5886C66.4083 34.9373 66.4083 35.2861 66.4083 35.7154H62.7878C62.7878 35.3666 62.7546 35.0446 62.7546 34.6959C62.7546 31.1812 62.7546 27.6397 62.7546 24.125C62.7546 23.347 62.6383 23.0519 62.1235 23.0519C61.5256 23.0519 61.1104 23.347 60.6952 24.0177C58.2705 27.8275 55.8292 31.5837 53.3878 35.3398C53.2384 35.5544 53.0058 35.7691 52.8232 35.7691C51.6108 35.7959 50.3984 35.7691 49.0034 35.7691C52.2253 30.4568 55.3475 25.3055 58.4864 20.1275C55.4804 15.3786 52.5242 10.6835 49.4518 5.82731C50.8967 5.82731 52.1755 5.82731 53.4709 5.82731C53.6203 5.82731 53.7864 6.0956 53.9193 6.28341C56.1945 9.6371 58.4698 12.9371 60.6952 16.3445C61.3097 17.2835 61.9242 17.3908 62.7712 17.1762V17.1225Z" fill="#164194"/>
<path d="M158.748 20.5695C160.359 21.7768 160.741 23.8963 160.774 26.2842C160.774 27.3842 160.807 28.511 160.724 29.611C160.475 32.6964 159.446 34.3867 157.469 35.0574C154.579 36.0501 151.64 36.0233 148.717 35.6745C147.405 35.5135 146.076 35.1111 144.798 34.5745C143.751 34.1452 143.12 32.8574 142.987 31.1403C142.871 29.772 142.871 28.3769 142.805 26.9013H146.375C146.375 26.9013 146.425 27.0086 146.425 27.0622C146.541 29.2891 146.691 29.7183 148.086 29.772C150.477 29.8793 152.885 29.8794 155.294 29.7184C156.639 29.6111 157.154 28.1354 156.871 25.9891C156.722 24.8086 156.257 24.1378 155.576 23.95C154.613 23.6817 153.616 23.5207 152.636 23.4402C151.341 23.3597 150.062 23.4402 148.684 23.4402V17.7524C149.531 17.7524 150.394 17.8061 151.258 17.7524C152.62 17.6451 153.998 17.5646 155.36 17.2695C156.39 17.0548 156.871 16.0889 156.921 14.7206C156.988 13.2182 156.523 12.0377 155.543 11.5548C154.928 11.2597 154.281 11.0987 153.633 11.0987C151.889 11.0987 150.162 11.1791 148.418 11.2865C146.774 11.3938 146.658 11.6353 146.359 14.2914C145.296 14.2914 144.233 14.2914 143.17 14.2645C143.054 14.2645 142.854 13.8621 142.854 13.6743C142.854 12.4133 142.888 11.1255 142.987 9.89136C143.12 8.22793 143.751 7.02057 144.731 6.5913C145.91 6.05471 147.123 5.62543 148.352 5.49128C151.142 5.16933 153.932 5.06204 156.689 5.94742C156.938 6.02791 157.203 6.13523 157.453 6.24255C159.744 7.36939 160.691 9.35474 160.758 13.2182C160.758 14.1036 160.774 14.9889 160.708 15.8475C160.542 17.8597 159.977 19.4963 158.748 20.5963V20.5695Z" fill="#164194"/>
<path d="M194.719 35.6988C193.207 35.6988 191.679 35.7256 190.168 35.6988C187.544 35.6183 185.335 32.3988 185.252 28.1865C185.153 23.2499 185.136 18.2596 185.252 13.323C185.352 9.08392 187.561 5.8107 190.201 5.75704C193.257 5.70338 196.313 5.70338 199.369 5.75704C202.109 5.8107 204.268 9.43271 204.318 13.9937C204.351 18.4474 204.351 22.928 204.318 27.4085C204.285 32.2378 202.092 35.672 199.103 35.6988C197.642 35.6988 196.197 35.6988 194.735 35.6988H194.719ZM194.702 29.9304C196.08 29.9304 197.459 29.9304 198.821 29.9304C200.1 29.9304 200.697 29.0182 200.714 26.9792C200.747 22.8206 200.747 18.6352 200.714 14.4766C200.714 12.4644 200.116 11.579 198.854 11.579C196.097 11.579 193.357 11.579 190.6 11.579C189.388 11.579 188.79 12.5718 188.773 14.5303C188.773 18.6621 188.773 22.8206 188.773 26.9523C188.773 29.0182 189.354 29.9573 190.617 29.9573C191.978 29.9573 193.324 29.9573 194.685 29.9573L194.702 29.9304Z" fill="#164194"/>
<path d="M127.773 23.2624V29.8357C128.022 29.8357 128.255 29.8893 128.487 29.8893C132.174 29.8893 135.845 29.8893 139.531 29.8893C140.063 29.8893 140.229 30.1039 140.212 30.9893C140.163 32.5186 140.212 34.0479 140.212 35.6577H124.153V5.82324H140.096V11.5916H127.79V17.3868H139.249V23.2624H127.79H127.773Z" fill="#164194"/>
<path d="M96.5846 17.3814V23.2302H85.1751V29.884H97.5313V35.6523H81.5048V5.84473H97.415V11.6131H85.1751V17.4082H96.5846V17.3814Z" fill="#164194"/>
<path d="M116.612 35.6255V11.6667H106.498C106.498 12.0423 106.498 12.3911 106.498 12.7399C106.498 18.3741 106.498 24.0083 106.498 29.6694C106.498 30.5011 106.448 31.3596 106.299 32.1645C105.9 34.4718 104.555 35.9475 102.811 36.0816C102.014 36.1353 101.2 36.0816 100.353 36.0816V31.1986C100.852 31.1986 101.35 31.1986 101.848 31.1986C102.645 31.1986 102.861 30.8767 102.861 29.5889C102.861 23.4181 102.861 17.2741 102.861 11.1033C102.861 9.38624 102.861 7.6423 102.861 5.84473H120.183V35.6523H116.612V35.6255Z" fill="#164194"/>
<path d="M167.499 35.6425H163.912V5.78125H167.499V6.8276C167.499 10.0203 167.499 13.213 167.499 16.4058C167.499 16.996 167.516 17.3984 167.997 17.3984C171.352 17.3984 174.707 17.3984 178.062 17.3984C178.178 17.3984 178.294 17.3448 178.46 17.2911V5.78125H182.081V35.6157H178.477V23.2473C178.244 23.2205 178.045 23.1668 177.862 23.1668C174.624 23.1668 171.385 23.1668 168.147 23.1668C167.582 23.1668 167.483 23.4888 167.483 24.2936C167.499 27.6742 167.483 31.0815 167.483 34.462V35.6157L167.499 35.6425Z" fill="#164194"/>
<path d="M148.467 47.0586V56.6099C148.467 56.6099 148.335 56.7172 148.285 56.7172C147.565 56.7887 147.205 56.2342 147.205 55.0537C147.205 53.7928 147.205 52.5318 147.072 51.1903C146.74 52.0489 146.425 52.9342 146.093 53.7928C145.943 54.1952 145.81 54.5708 145.661 54.9733C145.262 56.0464 144.864 56.0465 144.482 55.0001C144.017 53.766 143.535 52.5318 142.937 51.3244V56.6635H141.691V47.0854C142.505 46.6293 142.754 46.7634 143.186 47.9439C143.801 49.5805 144.415 51.2171 145.079 53.0147C145.694 51.3513 146.325 49.8488 146.823 48.2391C147.189 47.0854 147.637 46.6293 148.467 47.0317V47.0586Z" fill="#164194"/>
<path d="M197.078 46.9829H198.44V52.9927C198.44 52.9927 198.539 53.0463 198.573 53.0463C199.303 51.4365 200.084 49.8804 200.748 48.1902C201.213 47.0365 201.761 46.6341 202.608 47.0365C202.608 47.2243 202.658 47.4658 202.658 47.7073C202.658 50.4171 202.642 53.1 202.675 55.8098C202.675 56.8024 202.359 56.722 201.961 56.722C201.562 56.722 201.263 56.722 201.296 55.8098C201.346 54.0927 201.296 52.3756 201.18 50.578C200.715 51.5707 200.267 52.5634 199.802 53.5829C199.403 54.4415 199.021 55.3268 198.606 56.1586C198.49 56.4 198.274 56.6415 198.074 56.6683C197.045 56.8561 197.045 56.8293 197.045 55.139C197.045 52.4292 197.045 49.7463 197.045 46.956L197.078 46.9829Z" fill="#164194"/>
<path d="M186.232 56.6033V46.9983H187.561V52.9813C187.561 52.9813 187.66 53.035 187.71 53.0618C188.225 51.9618 188.723 50.835 189.238 49.7349C189.471 49.2252 189.769 48.7423 189.952 48.152C190.351 46.8105 190.998 46.73 191.796 47.0252V56.657H190.5V50.5398C190.301 50.8081 190.201 50.9154 190.118 51.0764C189.437 52.5789 188.756 54.0545 188.075 55.5569C187.461 56.8984 187.328 56.9789 186.232 56.6033Z" fill="#164194"/>
<path d="M133.453 46.7812C135.396 46.7812 136.791 48.9276 136.774 51.8788C136.774 54.8033 135.396 56.896 133.469 56.9228C131.509 56.9228 130.131 54.8569 130.114 51.8788C130.114 48.9008 131.493 46.8081 133.453 46.8081V46.7812ZM135.379 51.8252C135.379 50.0276 134.515 48.6593 133.419 48.6593C132.356 48.6593 131.526 50.0544 131.509 51.7984C131.509 53.5959 132.356 55.0179 133.436 55.0179C134.515 55.0179 135.379 53.5959 135.362 51.8252H135.379Z" fill="#164194"/>
<path d="M175.372 46.9697H176.767V50.7527H179.557V46.9697H180.902V56.6552H179.574V52.7649H176.784V56.7089C176.402 56.7089 176.07 56.7625 175.737 56.682C175.588 56.6283 175.372 56.2796 175.372 56.0649C175.355 53.06 175.372 50.082 175.372 46.9697Z" fill="#164194"/>
<path d="M159.279 56.6864H157.933V48.8253H155.127C155.127 50.0058 155.127 51.1595 155.127 52.3132C155.127 53.5473 155.127 54.7815 155.127 56.0156C155.127 56.6059 154.944 56.7937 154.645 56.6864C154.346 56.579 153.798 57.1425 153.781 56.1766C153.732 53.1181 153.781 50.0863 153.781 46.9473H159.295V56.6327L159.279 56.6864Z" fill="#164194"/>
<path d="M83.2319 56.6426C82.2797 56.8393 81.8036 56.2491 81.8036 54.8718V47.0107H87.3174V56.6694H86.0054V48.862H83.2319V56.6426Z" fill="#164194"/>
<path d="M98.1116 47.0312V56.6899H96.783V48.8825H93.9597C93.9597 49.9825 93.9597 51.0825 93.9597 52.1825C93.9597 53.3898 93.9265 54.5971 93.9597 55.8045C93.9929 56.7435 93.7106 56.7703 93.2622 56.7703C92.8304 56.7703 92.5481 56.7435 92.5647 55.8045C92.5979 52.9069 92.5647 50.0093 92.5647 47.0312H98.0784H98.1116Z" fill="#164194"/>
<path d="M63.1369 54.0672C63.1369 54.7111 63.1037 55.2745 63.1369 55.8111C63.1867 56.5355 63.0206 56.8306 62.5556 56.7502C62.3065 56.6965 62.0408 56.7502 61.7585 56.7502V46.8232C63.0206 46.9574 64.2828 46.9037 65.5118 47.2525C66.5913 47.5745 67.0729 48.9964 67.0065 50.7672C66.9401 52.4038 66.309 53.5575 65.2295 53.8794C64.8973 53.9867 64.5486 54.0135 64.1998 54.0672C63.8676 54.094 63.5189 54.0672 63.1203 54.0672H63.1369ZM63.1369 48.8086C63.1369 49.3184 63.1369 49.7208 63.1369 50.0964C63.1369 52.4306 63.2199 52.5379 64.6648 52.1355C65.2959 51.9745 65.628 51.3574 65.6114 50.4452C65.5948 49.5598 65.2129 48.8891 64.615 48.8086C64.15 48.755 63.7016 48.8086 63.1369 48.8086Z" fill="#164194"/>
<path d="M120.632 46.9664H121.977V50.7493C122.691 51.1249 123.139 50.8567 123.438 49.8371C123.621 49.1932 123.92 48.6298 124.152 48.0395C124.684 46.7517 124.95 46.5907 126.029 47.0737C125.398 48.5761 124.784 50.0517 124.119 51.6078C124.75 53.1908 125.415 54.8274 126.062 56.464C125.132 57.0274 124.584 56.7591 124.086 55.525C123.853 54.9347 123.571 54.3445 123.372 53.7274C123.09 52.8152 122.674 52.5469 122.01 52.8688V56.625H120.632V46.9395V46.9664Z" fill="#164194"/>
<path d="M170.737 56.7473C170.455 56.7473 170.288 56.7205 170.139 56.7473C169.475 56.9352 169.059 56.5596 168.927 55.4595C168.844 54.8156 168.611 54.601 168.179 54.6546C167.565 54.7351 166.934 54.7083 166.303 54.6546C165.954 54.6546 165.821 54.8425 165.688 55.3254C165.29 56.962 165.173 57.0157 163.944 56.5596C164.293 55.2449 164.642 53.9571 164.991 52.6424C165.456 50.9253 165.937 49.2083 166.435 47.4912C166.519 47.2229 166.751 46.9277 166.9 46.9277C167.299 46.9277 167.947 46.9278 168.046 47.2497C168.976 50.3083 169.807 53.4205 170.704 56.6937L170.737 56.7473ZM168.279 52.9376C167.963 51.7034 167.664 50.5497 167.299 49.1546C166.95 50.5766 166.651 51.7034 166.352 52.9376H168.279Z" fill="#164194"/>
<path d="M109.589 56.6839C109.339 56.6839 109.19 56.6839 109.057 56.7375C108.393 56.8985 107.928 56.6302 107.795 55.4497C107.728 54.8058 107.463 54.5912 107.048 54.6448C106.416 54.6985 105.802 54.6985 105.171 54.6448C104.822 54.6448 104.689 54.8326 104.556 55.3424C104.158 56.9522 104.042 57.0327 102.813 56.5766C103.228 55.0473 103.643 53.5448 104.058 52.0692C104.49 50.5399 104.905 48.9838 105.354 47.4545C105.437 47.2131 105.719 46.9448 105.902 46.9716C106.267 46.9984 106.848 47.0521 106.965 47.374C107.878 50.4057 108.692 53.4911 109.589 56.6839ZM107.147 52.9009C106.815 51.6399 106.533 50.5131 106.167 49.1716C105.819 50.5399 105.536 51.6668 105.221 52.9009H107.147Z" fill="#164194"/>
<path d="M71.0582 47.0477C71.1745 46.9673 71.1911 46.9404 71.2077 46.9404C72.0602 46.8331 72.6747 47.4055 73.0512 48.6575C73.3999 49.7844 73.7487 50.9112 74.1473 52.199C74.5791 50.8575 74.9611 49.6502 75.3264 48.4697C75.6807 47.3429 76.2897 46.86 77.1533 47.0209C77.0204 47.4502 76.9042 47.8258 76.7713 48.2014C76.0738 50.2941 75.3929 52.3868 74.6953 54.4795C74.2967 55.66 73.8151 56.6796 72.9349 56.921C72.719 56.9747 72.4865 57.0015 72.2706 56.9747C71.6063 56.8405 71.5731 56.7332 71.7724 55.66C71.8056 55.4722 71.8388 55.2844 71.872 55.0698C72.0049 55.0698 72.1211 55.043 72.2374 55.0698C72.6692 55.2039 73.101 55.0698 73.2671 54.3722C73.3501 54.0502 73.2006 53.4868 73.0678 53.0844C72.4201 51.0722 71.7392 49.0868 71.0582 47.0477Z" fill="#164194"/>
<path d="M57.092 48.7815H54.2355V56.6694H52.857V47.0107H57.092V48.7815Z" fill="#164194"/>
<path d="M198.256 44.2015C198.688 44.121 199.053 43.9869 199.319 44.7649C199.518 45.3283 200.216 45.3283 200.432 44.7649C200.698 44.0137 201.063 44.1478 201.461 44.2015C201.545 45.4356 201.08 46.1332 200.149 46.2405C198.937 46.3747 198.289 45.7308 198.273 44.2283L198.256 44.2015Z" fill="#164194"/>
</svg>
