<svg width="65" height="65" viewBox="0 0 65 65" fill="none" xmlns="http://www.w3.org/2000/svg">
<path d="M32.7395 0.666992H32.5937C14.9609 0.666992 0.666626 14.9613 0.666626 32.5941V32.7399C0.666626 50.3727 14.9609 64.667 32.5937 64.667H32.7395C50.3724 64.667 64.6666 50.3727 64.6666 32.7399V32.5941C64.6666 14.9613 50.3724 0.666992 32.7395 0.666992Z" fill="#00B0F2"/>
<path d="M12.789 31.5749C12.8787 31.5301 12.9684 31.4875 13.0559 31.4471C14.5761 30.7431 16.1165 30.0838 17.6547 29.4246C17.7377 29.4246 17.8766 29.3282 17.9551 29.2968C18.074 29.2452 18.1928 29.1959 18.3116 29.1443L18.9955 28.8506C19.453 28.6555 19.9081 28.4605 20.3655 28.2654C21.2781 27.8752 22.1907 27.4851 23.1033 27.0927C24.9284 26.3124 26.7559 25.5299 28.5811 24.7496C30.4063 23.9693 32.2337 23.1867 34.0588 22.4064C35.884 21.6261 37.7114 20.8436 39.5366 20.0633C41.3618 19.283 43.1892 18.5005 45.0144 17.7202C45.4202 17.5453 45.8597 17.2852 46.2947 17.2089C46.6602 17.1439 47.0167 17.0184 47.3844 16.9489C48.0817 16.8166 48.8508 16.7627 49.519 17.052C49.75 17.1529 49.963 17.2942 50.1401 17.4713C50.9877 18.3099 50.8688 19.6866 50.6894 20.866C49.4405 29.086 48.1916 37.3083 46.9404 45.5283C46.77 46.6562 46.5368 47.8939 45.6467 48.6069C44.8933 49.2101 43.8215 49.2773 42.891 49.0217C41.9604 48.7639 41.1398 48.2235 40.3348 47.6921C36.9962 45.4812 33.6552 43.2704 30.3166 41.0596C29.5228 40.5349 28.6394 39.8488 28.6484 38.8958C28.6528 38.3218 28.9959 37.8106 29.3457 37.3554C32.2471 33.5705 36.4334 30.9695 39.5478 27.3595C39.9873 26.8505 40.3326 25.9312 39.7295 25.6375C39.3707 25.4626 38.9581 25.7003 38.6307 25.9267C34.514 28.7856 30.3995 31.6467 26.2828 34.5055C24.9397 35.4383 23.5316 36.398 21.9127 36.6267C20.4642 36.833 19.0068 36.4294 17.6054 36.0168C16.4304 35.6715 15.2577 35.3172 14.0895 34.9517C13.4684 34.7589 12.8271 34.5504 12.3473 34.1131C11.8675 33.6759 11.5917 32.9404 11.8809 32.3575C12.0626 31.992 12.4146 31.761 12.7846 31.5727L12.789 31.5749Z" fill="#FEFFFC"/>
</svg>
