<svg width="200" height="60" viewBox="0 0 200 60" fill="none" xmlns="http://www.w3.org/2000/svg">
<g clip-path="url(#clip0_4113_6038)">
<path d="M69.4188 0V5.2963H76.5116V21.4444H81.3495V5.2963H88.4273V0H69.4188ZM91.1002 21.4444H95.9382V0H91.1002V21.4444ZM99.6562 0V21.4444H117.44V16.5741H104.435V12.7778H116.559V8.53704H104.435V4.88889H117.276V0H99.6562ZM139.988 0L134.209 14.2407L128.415 0H120.725V21.4444H125.399L125.265 4.88889L132.208 21.4444H136.076L143.123 4.88889L142.885 21.4444H147.618V0H139.988ZM170.569 0L164.79 14.2407L158.996 0H151.306V21.4444H155.98L155.846 4.88889L162.789 21.4444H166.656L173.704 4.88889L173.48 21.4444H178.214V0H170.584H170.569ZM181.887 0V21.4444H199.507V16.5741H186.665V12.7778H198.79V8.53704H186.665V4.88889H199.507V0H181.887Z" fill="#1D1D1B"/>
<path d="M195.864 34.6668V41.1483H196.386V38.1483H196.849L199.014 41.1483H199.746L197.312 37.815L199.477 34.6854H198.79L196.849 37.5187H196.386V34.6854H195.864V34.6668ZM190.533 35.2965H192.28C192.444 35.2965 192.593 35.315 192.728 35.3706C192.967 35.4631 193.101 35.6854 193.131 36.0928C193.131 36.278 193.146 36.5187 193.146 36.778C193.146 37.2409 193.056 37.5557 192.862 37.7224C192.698 37.852 192.459 37.9261 192.101 37.9261H190.548V35.315L190.533 35.2965ZM190.533 41.1483V38.5372H192.16C192.638 38.5187 192.922 38.7039 193.026 39.1483C193.056 39.2965 193.071 39.4631 193.071 39.6668V41.1483H193.594V39.5002C193.594 39.4076 193.594 39.2965 193.579 39.1854C193.564 38.9446 193.489 38.7409 193.385 38.5743C193.25 38.3706 193.071 38.278 192.847 38.2594C193.101 38.1854 193.28 38.0928 193.385 37.9446C193.564 37.7224 193.654 37.2409 193.654 36.5372C193.654 36.1854 193.639 35.9076 193.594 35.7039C193.534 35.3706 193.4 35.1298 193.221 34.9631C193.011 34.778 192.683 34.6854 192.265 34.6854H190.01V41.1668H190.533V41.1483ZM184.918 39.1854L185.949 35.2594L186.994 39.1854H184.903H184.918ZM187.531 41.1483H188.084L186.307 34.6668H185.56L183.828 41.1483H184.396L184.754 39.778H187.158L187.531 41.1483ZM180.991 34.6668L179.722 38.8705L179.528 39.5372L179.423 39.8706L179.334 40.2039L179.229 39.8706L179.125 39.5372L178.931 38.852L177.661 34.6668H176.736V41.1483H177.258V35.4261V35.2594C177.258 35.2594 177.288 35.352 177.303 35.4076L177.348 35.5557L177.437 35.852L179.065 41.1483H179.603L181.23 35.7965C181.29 35.5928 181.35 35.3891 181.409 35.2039V35.4076V35.5928V41.1668H181.932V34.6854H180.991V34.6668ZM174.615 35.2965V34.6668H171.569V41.1483H174.615V40.5187H172.092V38.1113H174.496V37.5002H172.092V35.2965H174.615ZM166.223 35.2965H167.881C168.15 35.2965 168.374 35.3335 168.523 35.4076C168.822 35.5557 169.001 35.8891 169.046 36.4446C169.075 36.7594 169.09 37.2965 169.09 38.0372C169.09 38.4631 169.09 38.778 169.075 39.0002C169.046 39.5187 168.956 39.8705 168.822 40.1113C168.657 40.3891 168.299 40.5187 167.776 40.5187H166.223V35.2965ZM168.015 41.1483C168.015 41.1483 168.15 41.1483 168.224 41.1298C168.538 41.0743 168.762 41.0002 168.911 40.8891C169.299 40.6113 169.523 40.0743 169.583 39.2409C169.613 38.9261 169.628 38.3891 169.628 37.5928C169.628 37.278 169.628 37.0372 169.628 36.8706C169.598 36.3335 169.523 35.8891 169.404 35.5743C169.24 35.1483 169.001 34.8706 168.672 34.778C168.448 34.7039 168.194 34.6668 167.896 34.6668H165.701V41.1483H168.03H168.015ZM160.609 39.1854L161.654 35.2594L162.699 39.1854H160.609ZM163.222 41.1483H163.789L162.013 34.6668H161.266L159.534 41.1483H160.101L160.46 39.778H162.864L163.237 41.1483H163.222ZM154.606 35.2965H156.353C156.518 35.2965 156.667 35.315 156.801 35.3706C157.04 35.4631 157.175 35.6854 157.204 36.0928C157.204 36.278 157.219 36.5187 157.219 36.778C157.219 37.2409 157.13 37.5557 156.936 37.7224C156.771 37.852 156.532 37.9261 156.174 37.9261H154.621V35.315L154.606 35.2965ZM154.606 41.1483V38.5372H156.234C156.712 38.5187 156.995 38.7039 157.1 39.1483C157.13 39.2965 157.145 39.4631 157.145 39.6668V41.1483H157.667V39.5002C157.667 39.4076 157.667 39.2965 157.652 39.1854C157.637 38.9446 157.563 38.7409 157.458 38.5743C157.324 38.3706 157.145 38.278 156.921 38.2594C157.16 38.1854 157.354 38.0928 157.458 37.9446C157.637 37.7224 157.742 37.2409 157.742 36.5372C157.742 36.1854 157.727 35.9076 157.682 35.7039C157.623 35.3706 157.488 35.1298 157.309 34.9631C157.1 34.778 156.771 34.6854 156.353 34.6854H154.099V41.1668H154.621L154.606 41.1483ZM152.172 35.352V34.6668H148.559V35.352H150.112V41.1483H150.634V35.352H152.172ZM143.198 34.6668V40.315V40.5557C142.944 40.0002 142.646 39.315 142.287 38.5372L140.54 34.6668H139.674V41.1483H140.197V35.5372V35.2965L140.361 35.6668L140.525 36.0187L140.854 36.7409L142.855 41.1483H143.721V34.6668H143.198ZM134.597 39.1854L135.643 35.2594L136.688 39.1854H134.597ZM137.21 41.1483H137.763L135.986 34.6668H135.239L133.507 41.1483H134.075L134.433 39.778H136.837L137.21 41.1483ZM131.058 41.1483H131.581V34.6668H131.058V41.1483ZM126.191 34.6668V41.1483H129.162V40.4631H126.713V34.6668H126.191ZM121.114 39.1854L122.159 35.2594L123.219 39.1854H121.129H121.114ZM123.727 41.1483H124.279L122.502 34.6668H121.756L120.024 41.1483H120.591L120.949 39.778H123.353L123.727 41.1483ZM119.187 35.352V34.6668H115.574V35.352H117.127V41.1483H117.649V35.352H119.187ZM113.14 41.1483H113.663V34.6668H113.14V41.1483ZM105.33 34.6668V41.1483H108.302V40.4631H105.853V34.6668H105.33ZM100.254 39.1854L101.299 35.2594L102.344 39.1854H100.254ZM102.867 41.1483H103.419L101.642 34.6668H100.896L99.1635 41.1483H99.7309L100.089 39.778H102.493L102.867 41.1483ZM96.8192 34.6668V40.315V40.5557C96.5653 40.0002 96.2667 39.315 95.9083 38.5372L94.1613 34.6668H93.2952V41.1483H93.8178V35.5372V35.2965L93.9821 35.6668L94.1463 36.0187L94.4748 36.7409L96.4757 41.1483H97.3418V34.6668H96.8192ZM90.4283 41.1483H90.9509V34.6668H90.4283V41.1483ZM86.2921 38.5557H87.8002C87.8002 38.7409 87.8002 38.8706 87.8002 38.9631C87.8002 39.6483 87.7554 40.0928 87.6509 40.2594C87.5762 40.3705 87.4717 40.4631 87.3075 40.5002C87.1432 40.5557 86.9043 40.5743 86.5907 40.5743C86.0233 40.5743 85.6351 40.5372 85.426 40.4631C85.2618 40.4076 85.1572 40.278 85.0826 40.0928C85.0079 39.9076 84.9631 39.6298 84.9482 39.278C84.9482 39.1298 84.9482 38.6668 84.9482 37.8706C84.9482 36.852 84.9781 36.2409 85.0079 36.0372C85.0677 35.6483 85.202 35.4076 85.426 35.315C85.6052 35.2409 85.8889 35.2039 86.2921 35.2039C86.74 35.2039 87.0387 35.2039 87.2179 35.2409C87.4866 35.278 87.6658 35.3891 87.7256 35.5928C87.7704 35.7039 87.7853 35.815 87.8002 35.9261C87.8002 36.0372 87.8152 36.2409 87.8152 36.5372H88.3378C88.3378 36.2409 88.3378 36.0372 88.3378 35.9261C88.3079 35.315 88.0839 34.9076 87.6808 34.7224C87.5613 34.6668 87.4269 34.6298 87.2776 34.6113C87.1283 34.6113 86.8446 34.5928 86.4713 34.5928C86.2025 34.5928 85.9934 34.5928 85.8292 34.5928C85.5604 34.5928 85.3364 34.6668 85.1722 34.7594C84.7839 34.9817 84.545 35.5372 84.4853 36.4261C84.4704 36.6854 84.4554 37.0557 84.4554 37.5372V37.7965C84.4554 38.2039 84.4554 38.4446 84.4554 38.5002C84.4554 38.8706 84.4554 39.1668 84.4554 39.3891C84.4853 39.9631 84.6048 40.4076 84.8437 40.7039C84.993 40.8891 85.1871 41.0187 85.3962 41.0928C85.6201 41.1668 85.9636 41.2039 86.4265 41.2039C87.0835 41.2039 87.5314 41.1483 87.7256 41.0372C87.9197 40.9261 88.069 40.7594 88.1735 40.5187C88.278 40.278 88.3378 39.9817 88.3527 39.5928C88.3527 39.3705 88.3527 39.0187 88.3527 38.5002C88.3527 38.278 88.3527 38.0743 88.3527 37.9076H86.3219V38.5372L86.2921 38.5557ZM81.7229 41.1483H82.2455V34.6668H81.7229V41.1483ZM76.3921 35.2965H78.1392C78.3034 35.2965 78.4527 35.315 78.5871 35.3706C78.8261 35.4631 78.9604 35.6854 78.9903 36.0928C78.9903 36.278 79.0052 36.5187 79.0052 36.778C79.0052 37.2409 78.9156 37.5557 78.7215 37.7224C78.5573 37.852 78.3184 37.9261 77.96 37.9261H76.4071V35.315L76.3921 35.2965ZM76.3921 41.1483V38.5372H78.0197C78.4975 38.5187 78.7813 38.7039 78.8858 39.1483C78.9156 39.2965 78.9306 39.4631 78.9306 39.6668V41.1483H79.4532V39.5002C79.4532 39.4076 79.4532 39.2965 79.4383 39.1854C79.4233 38.9446 79.3487 38.7409 79.2441 38.5743C79.1098 38.3706 78.9306 38.278 78.7066 38.2594C78.9604 38.1854 79.1396 38.0928 79.2441 37.9446C79.4233 37.7224 79.5279 37.2409 79.5279 36.5372C79.5279 36.1854 79.5129 35.9076 79.4681 35.7039C79.4084 35.3706 79.274 35.1298 79.0948 34.9631C78.8858 34.778 78.5573 34.6854 78.1392 34.6854H75.8844V41.1668H76.4071L76.3921 41.1483ZM72.3754 35.2409C72.5845 35.2409 72.7487 35.2965 72.8682 35.3706C73.0025 35.4446 73.0921 35.5743 73.1519 35.7409C73.2116 35.9076 73.2564 36.1483 73.2863 36.4817C73.2863 36.6298 73.3012 37.1113 73.3012 37.9261V38.9631C73.3012 39.278 73.2863 39.5557 73.2415 39.778C73.2116 39.9817 73.1519 40.1483 73.0772 40.2594C73.0025 40.3705 72.898 40.4631 72.7636 40.5187C72.6292 40.5743 72.3007 40.6113 71.808 40.6113C71.5691 40.6113 71.375 40.6113 71.2256 40.6113C71.0166 40.6113 70.8523 40.5557 70.7478 40.4817C70.6284 40.4076 70.5238 40.2965 70.4641 40.1113C70.4044 39.9446 70.3596 39.7039 70.3297 39.3706C70.3297 39.2224 70.3148 38.7409 70.3148 37.9261V36.8891C70.3148 36.5743 70.3297 36.315 70.3745 36.0743C70.4342 35.7224 70.5537 35.5002 70.7478 35.3891C70.8374 35.3335 70.9569 35.2965 71.0912 35.278C71.2256 35.2594 71.4496 35.2594 71.7483 35.2594C72.017 35.2594 72.2261 35.2594 72.3754 35.2594M71.1958 34.6483C70.9121 34.6668 70.6881 34.7409 70.5089 34.8335C70.3148 34.9446 70.1505 35.1298 70.0311 35.3891C69.9265 35.6298 69.837 35.9631 69.8071 36.3891C69.7922 36.6113 69.7772 36.9817 69.7772 37.4446V38.352C69.7772 39.0372 69.8071 39.5557 69.8668 39.9076C69.9564 40.4446 70.1505 40.815 70.4641 41.0187C70.6134 41.1113 70.7777 41.1854 70.9569 41.2039C71.136 41.2409 71.4197 41.2594 71.808 41.2594C72.032 41.2594 72.2261 41.2594 72.3903 41.2594C72.689 41.2409 72.9428 41.1668 73.1519 41.0372C73.346 40.9076 73.4953 40.7409 73.5849 40.5187C73.6894 40.2965 73.7491 39.9631 73.7939 39.5557C73.8238 39.2965 73.8387 38.6483 73.8387 37.6113C73.8387 37.0372 73.8387 36.6483 73.8089 36.4261C73.7342 35.6298 73.4953 35.1113 73.1071 34.8706C72.9727 34.7965 72.8084 34.7409 72.6292 34.7039C72.4501 34.6668 72.1962 34.6668 71.8677 34.6668C71.5989 34.6668 71.3899 34.6668 71.2107 34.6854" fill="#1D1D1B"/>
<path d="M199.507 51.5742H69.7474V59.9261H199.507V51.5742Z" fill="white"/>
<path d="M113.17 51.5742H69.7474V59.9261H113.17V51.5742Z" fill="#08662F"/>
<path d="M200 51.5742H156.578V59.9261H200V51.5742Z" fill="#E20E17"/>
<path d="M33.2984 49.6482C31.8948 49.6482 31.8948 47.7593 31.8948 47.7593L31.8649 15.9445C31.8649 0.0371076 21.6812 0.0371094 21.6812 0.0371094H-0.00012207V21.3149H19.6654C19.6654 21.3149 23.9957 21.3704 23.9957 27.4445V49.8519C23.9957 49.8519 24.9812 60.0001 33.3282 60.0001V49.6297C33.3282 49.6297 33.3133 49.6297 33.2984 49.6297V49.6482Z" fill="#E20E17"/>
<path d="M44.9153 0.0371094C44.9153 0.0371094 34.7316 0.0371076 34.7316 15.9445L34.7615 47.7593C34.7615 47.7593 34.7615 49.6112 33.328 49.6482V60.0186C41.6601 60.0186 42.6008 49.8704 42.6008 49.8704V27.463C42.6008 21.3704 47.2297 21.3334 47.2297 21.3334H66.7758V0.0371094H44.9153Z" fill="#0A72B9"/>
</g>
<defs>
<clipPath id="clip0_4113_6038">
<rect width="200" height="60" fill="white"/>
</clipPath>
</defs>
</svg>
