<svg width="264" height="170" viewBox="0 0 264 170" fill="none" xmlns="http://www.w3.org/2000/svg">
<rect width="264" height="170" fill="white"/>
<mask id="mask0_4276_176" style="mask-type:luminance" maskUnits="userSpaceOnUse" x="19" y="62" width="226" height="46">
<path d="M19 108H245V62H19V108Z" fill="white"/>
</mask>
<g mask="url(#mask0_4276_176)">
<path d="M75.6366 86.3274C75.0477 82.4477 72.0889 79.6894 67.4124 79.6894C62.0629 79.6239 58.7676 83.2417 58.7676 87.9726C58.7676 92.7036 62.0629 96.2559 67.4124 96.2559C72.145 96.2232 74.9846 93.4975 75.6086 89.5851H71.3037C70.883 91.3612 69.3896 92.5726 67.3073 92.5726C64.6921 92.5726 63.0865 90.5345 63.0865 87.9726C63.0865 85.4107 64.6921 83.4054 67.3073 83.4054C69.3896 83.4054 70.8549 84.5922 71.2756 86.3274H75.6436H75.6366ZM86.497 95.7648V84.2894H92.2953V80.115H76.4709V84.2894H82.2692V95.7648H86.49H86.497ZM93.985 80.115V95.7648H98.0655V91.5577H102.37C103.387 91.5577 104.369 91.5249 105.329 91.1648C107.187 90.4773 108.568 88.5374 108.568 85.9018C108.568 83.2662 107.215 81.3673 105.385 80.6061C104.369 80.1805 103.415 80.115 102.37 80.115H93.978H93.985ZM98.0655 83.8965H101.781C102.567 83.8965 103.022 83.9947 103.387 84.1584C104.032 84.4531 104.348 85.1406 104.348 85.8691C104.348 86.6548 103.983 87.416 103.275 87.678C102.938 87.8089 102.546 87.8744 101.781 87.8744H98.0655V83.8965ZM119.604 93.4975L120.389 95.7648H124.982L119.492 80.115H113.525L108.035 95.7648H112.656L113.413 93.4975H119.611H119.604ZM116.365 83.7328H116.673L118.615 90.0434H114.423L116.365 83.7328ZM135.66 87.7762L140.925 80.115H136.424L133.437 84.8132L130.703 80.115H125.69L130.787 88.0708L125.578 95.7648H130.03L133.157 91.1321L135.975 95.7648H141.129L135.667 87.7762H135.66ZM150.019 79.6894C144.529 79.6894 141.234 83.3071 141.234 87.9726C141.234 92.6381 144.529 96.2559 150.019 96.2559C155.509 96.2559 158.776 92.6381 158.776 87.9726C158.776 83.3071 155.48 79.6894 150.019 79.6894ZM150.019 92.4417C147.284 92.4417 145.539 90.5345 145.539 87.9726C145.539 85.4107 147.284 83.5363 150.019 83.5363C152.753 83.5363 154.492 85.4107 154.492 87.9726C154.492 90.5345 152.718 92.4417 150.019 92.4417ZM175.862 84.1256C175.862 82.4477 175.077 81.0726 173.527 80.4751C172.847 80.2132 171.978 80.115 170.737 80.115H160.991V95.7648H170.933C172.118 95.7648 172.988 95.6666 173.724 95.3392C175.217 94.6844 176.15 93.1374 176.15 91.2958C176.15 89.7488 175.385 88.21 173.696 87.6452C174.909 87.0232 175.862 85.8363 175.862 84.1256ZM164.883 86.2947V83.6018H170.204C170.597 83.6018 170.905 83.6345 171.137 83.7328C171.613 83.9292 171.838 84.3876 171.838 84.9196C171.838 85.4516 171.613 85.91 171.109 86.1719C170.912 86.2701 170.604 86.3029 170.204 86.3029H164.883V86.2947ZM164.883 92.147V89.4869H170.344C170.793 89.4869 171.102 89.5196 171.333 89.6178C171.782 89.8143 172.006 90.2399 172.006 90.7719C172.006 91.3285 171.782 91.7869 171.277 92.0242C171.052 92.1224 170.737 92.1552 170.344 92.1552H164.883V92.147ZM188.265 93.4975L189.05 95.7648H193.643L188.153 80.115H182.179L176.689 95.7648H181.31L182.067 93.4975H188.265ZM185.026 83.7328H185.334L187.276 90.0434H183.077L185.019 83.7328H185.026ZM206.01 89.9452V95.7648H210.098V80.115H206.01V85.8363H199.448V80.115H195.367V95.7648H199.448V89.9452H206.01ZM217.27 89.2249V80.1232H213.19V95.773H216.794L223.833 86.6712V95.773H227.914V80.1232H224.31L217.27 89.2249ZM244.635 80.1232H231.005V95.773H244.635V92.1879H235.086V89.4296H244.067V86.3029H235.086V83.7082H244.635V80.1232Z" fill="#333333"/>
<path d="M19 70H53V89.1108C53 94.0117 50.6643 98.5349 46.8669 100.989L36.0037 108L25.1404 100.989C21.3431 98.5431 19.0073 94.0117 19.0073 89.1108V70H19Z" fill="#FDDB2D"/>
<path fill-rule="evenodd" clip-rule="evenodd" d="M29 77.333V83.259C29.6941 82.3423 30.9561 81.7284 32.4004 81.7284H33.971V88.6202C33.971 90.4536 33.5433 92.0579 32.9123 92.9419H39.7342C39.1032 92.0579 38.6755 90.4536 38.6755 88.6284V81.7366H40.246C41.6903 81.7366 42.9524 82.3586 43.6465 83.2672V77.3412H29.007L29 77.333Z" fill="#333333"/>
</g>
</svg>
