<svg width="264" height="170" viewBox="0 0 264 170" fill="none" xmlns="http://www.w3.org/2000/svg">
<rect width="264" height="170" fill="#175DA8"/>
<g clip-path="url(#clip0_4276_203)">
<path d="M101.441 72.2197H106.802V89.8421C106.802 95.6638 109.922 99.1603 114.013 99.1603C118.104 99.1603 121.224 95.6638 121.224 89.8421V72.2197H126.584V91.1183C126.584 98.461 121.647 104.72 114.013 104.72C106.379 104.72 101.441 98.4435 101.441 91.1183V72.2197Z" fill="white"/>
<path d="M156.367 104.038V72.2197H151.069V92.0799L135.504 72.2197H132.604V103.985H137.902V84.2127L153.436 104.038H156.367Z" fill="white"/>
<path d="M168.218 72.2197H162.716V103.985H168.218V72.2197Z" fill="white"/>
<path d="M188.235 99.7026C182.748 99.7026 178.297 94.5103 178.297 88.1117C178.297 81.713 182.748 76.5207 188.235 76.5207C193.721 76.5207 198.173 81.713 198.173 88.1117C198.173 90.297 197.655 92.3424 196.746 94.0907L193.455 90.4193L189.959 94.3005L193.329 98.0592C191.84 99.1082 190.1 99.7026 188.235 99.7026ZM203.534 88.1117C203.534 78.776 196.684 71.2061 188.235 71.2061C179.786 71.2061 172.936 78.776 172.936 88.1117C172.936 97.4473 179.786 105.017 188.235 105.017C191.448 105.017 194.426 103.916 196.903 102.045L199.395 104.825L202.891 100.926L200.493 98.2515C202.421 95.4193 203.549 91.9228 203.549 88.1117" fill="white"/>
<path d="M213.629 92.7792L217.908 81.3631L222.062 92.7792H213.644H213.629ZM226.122 103.985H232L219.867 72.2197H216.168L203.722 103.985H209.443L211.685 98.0064H223.958L226.122 103.985Z" fill="white"/>
<path d="M51.4847 103.53H32.0004L34.2419 99.0898H45.6848C46.1864 99.6143 46.7037 100.104 47.2523 100.558C48.5377 101.66 49.9642 102.691 51.4847 103.513" fill="white"/>
<path d="M55.7793 71.3105C55.1523 71.905 51.1237 80.6287 56.0771 88.3036C57.4722 90.4714 59.51 93.1112 61.9083 94.6497C64.4006 96.2581 66.0622 96.6602 67.1281 96.9924C69.0092 97.5693 71.9091 97.7966 75.6555 98.0238C78.6964 98.2161 84.9038 98.2511 85.9854 98.2511H87.1454L89.8102 103.915C89.8102 103.915 80.7812 103.968 76.5803 103.706C71.862 103.426 68.194 103.129 65.8271 102.412C64.479 102.01 62.3942 101.485 59.2592 99.4574C56.2495 97.5168 53.1615 94.1078 51.5627 91.2581C47.7065 84.405 48.6627 79.7896 49.18 77.5343C50.2773 75.8385 51.7037 74.1952 53.2399 72.9889C54.3528 72.0973 55.0425 71.7476 55.7793 71.328" fill="white"/>
<path d="M62.0181 103.164C60.8738 103.408 59.7609 103.513 58.7106 103.513C54.9016 103.513 51.2963 101.503 48.3336 98.9679C44.7754 95.9085 42.1733 91.6602 41.5149 87.0274C41.4209 86.4854 41.3738 85.9435 41.3111 85.1742C41.0447 82.0099 41.4522 78.0239 43.443 74.2127C45.1672 70.926 47.738 68.0588 51.9703 66.0833C53.7416 65.2616 57.535 64.3351 61.924 65.6288C66.5326 67.0449 70.5768 70.2442 73.1632 74.44C73.1632 74.44 69.1817 68.6707 62.3786 68.0064C62.0651 67.9714 61.7673 67.954 61.4538 67.954C58.0836 67.884 54.8702 69.1777 52.1897 71.3106C50.4811 72.6742 48.9763 74.37 47.8007 76.3456C47.738 76.4505 47.5342 76.8001 47.252 77.3246L47.1737 77.4819C47.111 77.6043 47.0639 77.7267 47.0012 77.8491C46.1705 79.6148 45.0262 82.7616 44.9791 86.7651C44.9164 91.905 46.9856 95.5938 47.7537 96.8526C47.7693 96.8875 49.6974 98.3386 52.5973 98.9505C53.7729 99.1952 54.8859 99.2477 55.8264 99.2127C56.6258 99.9295 57.4723 100.594 58.3344 101.153C59.7452 102.062 60.9679 102.692 62.0024 103.146" fill="white"/>
<path d="M69.4484 73.0938C71.9565 74.7546 75.5774 79.9644 75.7342 84.7196C76.0007 89.2476 73.9629 93.6707 72.5991 95.821C70.4046 95.6462 68.7274 95.4189 67.5674 95.0693C67.2069 94.9644 66.768 94.842 66.2664 94.6672C67.7085 93.1812 69.856 90.4014 70.9376 86.1182C72.4424 80.1392 70.9532 76.0833 69.4327 73.0938" fill="white"/>
</g>
<defs>
<clipPath id="clip0_4276_203">
<rect width="200" height="40" fill="white" transform="translate(32 65)"/>
</clipPath>
</defs>
</svg>
