<svg width="64" height="65" viewBox="0 0 64 65" fill="none" xmlns="http://www.w3.org/2000/svg">
<path d="M64 32.667C64 14.9939 49.6731 0.666992 32 0.666992C14.3269 0.666992 0 14.9939 0 32.667C0 50.3401 14.3269 64.667 32 64.667C49.6731 64.667 64 50.3401 64 32.667Z" fill="#FF0209"/>
<path d="M45.5841 46.8411C44.6307 46.9445 43.6548 46.9625 42.7194 46.9602C35.4227 46.9535 28.1259 46.9468 20.8314 46.9423C18.5356 46.9423 16.0351 46.8681 14.2609 45.4087C12.2619 43.7605 11.8459 40.9025 11.684 38.3166C11.4592 34.7728 11.4412 31.2177 11.6256 27.6717C11.7268 25.7244 11.9044 23.7298 12.7431 21.9669C13.3458 20.701 14.3509 19.5632 15.6371 18.965C17.1324 18.2702 18.6975 18.3939 20.3075 18.3916C24.1616 18.3871 28.0157 18.3849 31.8698 18.3804C35.8769 18.3759 39.8861 18.3736 43.8932 18.3691C45.7865 18.3691 47.8193 18.4074 49.3641 19.5024C51.3586 20.9146 51.9005 23.6017 52.1501 26.0324C52.611 30.5094 52.6178 35.0336 52.1681 39.5106C51.9814 41.3567 51.6711 43.3085 50.4546 44.7094C49.2494 46.099 47.4617 46.6342 45.5864 46.8388L45.5841 46.8411Z" fill="white"/>
<path d="M38.5253 32.6639L27.651 26.3857V38.942L38.5253 32.6639Z" fill="#FF0209"/>
</svg>
