<svg width="86" height="86" viewBox="0 0 86 86" fill="none" xmlns="http://www.w3.org/2000/svg">
<path d="M62.745 69.8738C66.3318 68.0586 69.6901 65.7057 72.6967 62.8149C89.1011 47.1342 89.1011 21.7056 72.6967 6.04173M40.1692 74.4788C42.0681 74.5964 43.967 74.5964 45.8659 74.4788M13.3033 6.04173C-3.10111 21.7056 -3.10111 47.1342 13.3033 62.8149C16.3275 65.7057 19.6857 68.0586 23.255 69.8738M59.6334 60.5798L66.1037 79.8571L56.1169 77.6386L49.3652 85L43.0004 66.0756M26.3849 60.5796L19.9146 79.8569L29.9014 77.6385L36.653 84.9998L43.8618 63.5208M43.0007 5.85715L50.9832 1L55.9766 8.68068L65.3656 7.62186L66.3678 16.6135L75.3173 19.5547L72.1524 28.0589L78.8689 34.4286L72.1524 40.7816L75.3173 49.3026L66.3678 52.2438L65.3656 61.2354L55.9766 60.1598L50.9832 67.8572L43.0007 63.0001L35.0359 67.8572L30.0425 60.1598L20.6534 61.2354L19.6336 52.2438L10.7018 49.3026L13.8666 40.7816L7.15011 34.4286L13.8666 28.0589L10.7018 19.5547L19.6336 16.6135L20.6534 7.62186L30.0425 8.68068L35.0359 1L43.0007 5.85715ZM51.0706 24.6471V18.7647H34.9475V24.6471H39.9409V44.2774H34.9475V50.1429H51.0706V44.2774H46.0772V24.6471H51.0706ZM67.1589 34.4285C67.1589 47.1822 56.3429 57.521 43.0006 57.521C29.6584 57.521 18.8424 47.1822 18.8424 34.4285C18.8424 21.6749 29.6584 11.3361 43.0006 11.3361C56.3429 11.3361 67.1589 21.6749 67.1589 34.4285Z" stroke="#5BC5F2" stroke-width="2" stroke-linecap="round" stroke-linejoin="round"/>
</svg>
