<svg width="86" height="86" viewBox="0 0 86 86" fill="none" xmlns="http://www.w3.org/2000/svg">
<path d="M68.1915 55.6632C68.1915 55.6632 65.6255 56.4828 62.9304 54.6557C60.9939 53.3408 58.5247 46.2541 58.5247 46.2541C58.5247 46.2541 56.0879 45.7248 54.3288 47.0397M74.4372 50.9843C74.4372 50.9843 71.0966 53.5628 68.1756 51.0185C65.2546 48.4741 64.5284 47.7398 64.5284 47.7398M80.8116 42.992C80.8116 42.992 79.2946 47.5684 74.324 46.8171C69.3535 46.0657 69.2889 45.5364 69.2889 45.5364M84.6362 32.8829C84.6362 32.8829 84.733 39.167 78.9072 39.6963C73.0813 40.2257 73.1136 39.9695 73.1136 39.9695M84.4912 21.5444C84.4912 21.5444 85.7177 24.6523 84.3621 27.2991C82.5062 30.9193 76.1801 33.8394 76.1801 33.8394M75.9864 24.9428C75.9864 24.9428 81.2151 19.4101 81.7154 15.7387C82.2157 12.0673 79.1172 9.13021 79.1172 9.13021C79.1172 9.13021 74.4855 17.0878 70.6124 22.0057C66.7392 26.9237 60.0419 31.8417 60.0419 31.8417C60.0419 31.8417 62.2205 33.0711 62.2205 36.1107C62.2205 43.8463 54.0062 41.5751 51.7469 38.7575C51.7469 38.7575 49.4067 36.572 49.4067 32.1151C49.4067 27.6582 53.0862 22.8597 57.0723 22.5865C60.6227 22.3304 62.2365 23.4916 62.2365 23.4916C62.2365 23.4916 65.3189 16.422 58.8798 16.3708C48.5675 16.2854 45.1301 16.1488 45.1301 16.1488C45.1301 16.1488 45.9532 18.3175 46.7762 19.1883C47.5993 20.0592 49.0033 20.9301 49.0033 20.9301C49.0033 20.9301 46.3727 23.1842 44.9687 26.8385C43.7745 29.9635 42.9999 33.5324 42.9999 33.5324M17.8082 55.6632C17.8082 55.6632 20.3741 56.4828 23.0692 54.6557C25.0058 53.3408 27.4749 46.2541 27.4749 46.2541C27.4749 46.2541 29.9118 45.7248 31.6708 47.0397M11.5626 50.9843C11.5626 50.9843 14.9032 53.5628 17.8242 51.0185C20.7452 48.457 21.4714 47.7398 21.4714 47.7398M5.17205 42.992C5.17205 42.992 6.68903 47.5684 11.6596 46.8171C16.6463 46.0657 16.6947 45.5364 16.6947 45.5364M1.34751 32.8829C1.34751 32.8829 1.25068 39.167 7.07655 39.6963C12.9186 40.2257 12.8701 39.9695 12.8701 39.9695M1.50878 21.5444C1.50878 21.5444 0.282281 24.6523 1.63789 27.2991C3.49377 30.9193 9.81993 33.8394 9.81993 33.8394M9.99754 24.9428C9.99754 24.9428 4.76878 19.4101 4.2685 15.7387C3.76821 12.0673 6.86674 9.13021 6.86674 9.13021C6.86674 9.13021 11.5145 17.0878 15.3715 22.0057C19.2447 26.9237 25.942 31.8417 25.942 31.8417C25.942 31.8417 23.7634 33.0711 23.7634 36.1107C23.7634 43.8463 31.9777 41.5751 34.237 38.7575C34.237 38.7575 36.5768 36.572 36.5768 32.1151C36.5768 27.6582 32.8973 22.8597 28.9112 22.5865C25.3608 22.3304 23.747 23.4916 23.747 23.4916C23.747 23.4916 20.6646 16.422 27.1037 16.3708C37.416 16.2854 40.8534 16.1488 40.8534 16.1488C40.8534 16.1488 40.0303 18.3175 39.2073 19.1883C38.3842 20.0592 36.9802 20.9301 36.9802 20.9301C36.9802 20.9301 39.6107 23.1842 41.0148 26.8385C42.209 29.9635 42.9836 33.5324 42.9836 33.5324M54.4257 80.8844C54.4257 80.8844 57.379 79.9623 56.8787 75.9152C56.2816 71.0997 45.0656 67.6503 45.0656 67.6503C45.0656 67.6503 45.3399 66.0964 46.4696 64.3546C47.6154 62.6128 48.9549 61.5029 50.6655 61.5029C52.3762 61.5029 53.4574 62.2201 53.4574 63.8935C53.4574 65.567 52.6505 66.9843 52.6505 66.9843C52.6505 66.9843 54.6678 66.233 58.5894 67.6503C59.7352 68.0601 60.7841 68.4529 61.7363 68.7944C62.3173 71.3046 64.4475 73.183 66.9973 73.183C69.999 73.183 72.4359 70.6045 72.4359 67.4283C72.4359 64.2521 69.999 61.6736 66.9973 61.6736C64.9801 61.6736 63.2533 62.8519 62.3011 64.5595C61.8331 64.4912 61.3813 64.4229 61.0424 64.3546C59.4931 64.0984 57.6211 63.7569 57.6211 63.7569C57.6211 63.7569 58.2505 60.632 58.2505 57.4045C58.2505 50.335 53.9254 52.572 53.9254 52.572M48.6483 83.0873C48.6483 83.0873 50.0362 82.1481 50.6656 80.4917C51.3757 78.6133 50.5688 75.6932 50.5688 75.6932M45.3883 78.2207C45.3883 78.2207 45.8241 81.0212 45.2269 82.4044C44.4362 84.2486 42.9999 85 42.9999 85C42.9999 85 41.5634 84.2486 40.7726 82.4044C40.1755 81.0212 40.6112 78.2207 40.6112 78.2207M31.5739 80.8847C31.5739 80.8847 28.6206 79.9626 29.1209 75.9155C29.718 71.1 40.934 67.6506 40.934 67.6506C40.934 67.6506 40.6597 66.0966 39.53 64.3549C38.3842 62.6131 37.0447 61.5031 35.3341 61.5031C33.6234 61.5031 32.5422 62.2203 32.5422 63.8938C32.5422 65.5673 33.3491 66.9846 33.3491 66.9846C33.3491 66.9846 31.3318 66.2332 27.4103 67.6506C26.5549 67.9579 25.748 68.2653 24.9895 68.5385C24.5538 69.9729 23.295 71.0146 21.7942 71.0146C19.9222 71.0146 18.4213 69.4094 18.4213 67.4457C18.4213 65.4819 19.9383 63.8767 21.7942 63.8767C22.5365 63.8767 23.2305 64.1499 23.7953 64.5768C24.231 64.5085 24.6506 64.4402 24.9734 64.389C26.5227 64.1329 28.3947 63.7913 28.3947 63.7913C28.3947 63.7913 27.7653 60.6664 27.7653 57.439C27.7653 50.3694 32.0903 52.6064 32.0903 52.6064M37.3354 83.0873C37.3354 83.0873 35.9476 82.1481 35.3182 80.4917C34.6081 78.6133 35.415 75.6932 35.415 75.6932M18.9058 65.5843L8.57737 55.0311M25.6193 72.4317L23.6504 70.4167M46.8889 9.12983C48.0993 7.54173 49.1483 5.64627 49.1483 3.80203C49.1483 1.49673 47.5506 0.967368 45.9852 1.00152L43.0158 5.37305L40.0463 1.00152C38.4809 0.967368 36.8833 1.49673 36.8833 3.80203C36.8833 5.64627 37.9161 7.54173 39.1426 9.12983H46.9051H46.8889ZM57.96 12.6131C58.7669 11.5543 59.4609 10.2907 59.4609 9.04412C59.4609 7.50725 58.3957 7.14865 57.3468 7.16573L55.3618 10.0858L53.3768 7.16573C52.3278 7.14865 51.2627 7.50725 51.2627 9.04412C51.2627 10.2736 51.9566 11.5373 52.7635 12.6131H57.96ZM33.22 12.6131C34.027 11.5543 34.7209 10.2907 34.7209 9.04412C34.7209 7.50725 33.6558 7.14865 32.6068 7.16573L30.6218 10.0858L28.6368 7.16573C27.5878 7.14865 26.5227 7.50725 26.5227 9.04412C26.5227 10.2736 27.2167 11.5373 28.0236 12.6131H33.22ZM43.0001 59.4368C43.0001 59.4368 42.5643 57.7292 40.7085 57.7292H37.9327C36.9483 57.7292 35.6734 57.0291 35.6734 55.3385C35.6734 53.648 35.6249 42.5313 35.6249 42.5313H50.375C50.375 42.5313 50.3266 53.648 50.3266 55.3385C50.3266 57.0291 49.0517 57.7292 48.0673 57.7292H45.2915C43.4356 57.7292 43.0001 59.4368 43.0001 59.4368Z" stroke="#5BC5F2" stroke-width="2" stroke-linecap="round" stroke-linejoin="round"/>
</svg>
