<svg width="86" height="86" viewBox="0 0 86 86" fill="none" xmlns="http://www.w3.org/2000/svg">
<path d="M68.956 36.7042C68.956 34.3602 67.9566 32.4887 66.0488 31.126C59.5984 26.5471 53.1481 21.9865 46.6795 17.4076C44.4083 15.7905 41.6101 15.7905 39.3389 17.4076C32.9248 21.9501 26.5108 26.4926 20.0968 31.017C18.0436 32.4706 17.0261 34.4329 17.0442 36.9404C17.0442 45.2986 17.0442 53.6568 17.0442 61.9968C17.0442 65.2129 19.152 67.3388 22.3681 67.3388C29.2363 67.3388 36.1046 67.3388 42.9729 67.3388C49.8411 67.3388 56.8184 67.3388 63.7412 67.3388C66.8119 67.3388 68.9742 65.2311 68.9923 62.1785C68.9923 53.6931 68.9923 45.2077 68.9923 36.7042H68.956ZM62.0696 60.4524H23.858V59.7256C23.858 52.294 23.858 44.8443 23.8762 37.4128C23.8762 37.0676 24.0579 36.6133 24.3304 36.4134C30.4719 32.0345 36.6134 27.6918 42.773 23.331C42.8457 23.2947 42.9184 23.2584 43.0274 23.1857C45.4076 24.8755 47.8061 26.5653 50.2045 28.2551C54.0021 30.9443 57.7814 33.6153 61.5608 36.3226C61.8152 36.5043 62.1059 36.8859 62.1059 37.1948C62.1422 44.8443 62.1241 52.4939 62.1059 60.1435C62.1059 60.2162 62.0877 60.307 62.0514 60.4342L62.0696 60.4524Z" stroke="#5BC5F2" stroke-width="2" stroke-linecap="round" stroke-linejoin="round"/>
<path d="M67.9384 1H18.0616C8.63876 1 1 8.63876 1 18.0616V67.9384C1 77.3612 8.63876 85 18.0616 85H67.9384C77.3612 85 85 77.3612 85 67.9384V18.0616C85 8.63876 77.3612 1 67.9384 1Z" stroke="#5BC5F2" stroke-width="2" stroke-linecap="round" stroke-linejoin="round"/>
<path d="M56.7274 18.2069C56.6366 17.0077 57.3815 16.2446 58.7079 16.1719C58.9442 16.1719 59.1985 16.1719 59.4347 16.1719C62.8507 16.1719 65.8488 18.6067 66.5029 21.9136C66.7573 23.1855 66.2303 24.1303 65.1401 24.3666C64.0318 24.6028 63.1959 23.985 62.9052 22.7131C62.4691 20.8597 60.852 19.6787 58.9805 19.8422C57.6723 19.9512 56.8001 19.3335 56.7274 18.2251V18.2069Z" stroke="#5BC5F2" stroke-width="2" stroke-linecap="round" stroke-linejoin="round"/>
<path d="M71.1542 22.1134C70.1549 22.1316 69.4644 21.5501 69.2645 20.4963C68.4832 16.5534 65.8486 13.8642 61.9602 13.0829C61.3061 12.9557 60.6156 12.9739 59.9433 12.9194V12.9557C59.5618 12.9739 59.1802 13.0102 58.8168 13.0284C57.7629 13.0647 56.9634 12.4106 56.8544 11.3931C56.7454 10.3938 57.3995 9.53976 58.4352 9.37623C61.9239 8.83113 65.0854 9.64878 67.92 11.7202C70.5364 13.6462 72.1354 16.2445 72.8259 19.3879C73.1711 20.9687 72.4988 22.0771 71.1724 22.1134H71.1542Z" stroke="#5BC5F2" stroke-width="2" stroke-linecap="round" stroke-linejoin="round"/>
</svg>
