<svg width="86" height="86" viewBox="0 0 86 86" fill="none" xmlns="http://www.w3.org/2000/svg">
<path d="M48.1258 38.7502L11.6913 75.4555M56.1444 42.5949L81.536 68.1753C85.3518 72.0194 85.3518 78.2905 81.536 82.1169C77.7202 85.961 71.4954 85.961 67.6972 82.1169L42.3056 56.5366M46.8422 51.9657L72.2162 77.5284C73.5174 78.8393 75.6627 78.8393 76.9639 77.5284C78.2652 76.2175 78.2652 74.0562 76.9639 72.7453L51.5899 47.1827M19.0766 13.4359L18.7249 7.80253L6.73246 1L1 6.77506L7.75234 18.8566L13.3441 19.2109L34.5155 40.5397L40.248 34.7646L19.0766 13.4359ZM84.4374 16.5185L70.7569 30.3007L59.5206 27.2714L56.5137 15.9516L70.1942 2.16939C63.8463 0.628195 56.9005 2.32883 51.9418 7.30672C46.4907 12.7983 44.996 20.7169 47.3874 27.5726L4.85119 70.4427C1.59811 73.7199 1.59811 79.0875 4.85119 82.3648C8.10428 85.6421 13.4323 85.6421 16.6854 82.3648L59.2392 39.4947C66.0443 41.9039 73.9221 40.3805 79.3556 34.9066C84.2968 29.9287 85.9848 22.9136 84.455 16.5185H84.4374Z" stroke="#5BC5F2" stroke-width="2" stroke-linecap="round" stroke-linejoin="round"/>
</svg>
