<svg width="86" height="86" viewBox="0 0 86 86" fill="none" xmlns="http://www.w3.org/2000/svg">
<path d="M50.1975 32.6862V22.2201H43M31.8424 31.2126H24.298V76.3796L61.6876 76.3796V73.1449H69.2319V76.3796H85V31.2126H69.2319V34.4473H61.6876V31.2126H54.1432V17.4445L31.8423 17.4445L31.8424 31.2126ZM31.8424 31.2126C31.8424 31.2126 35.5855 40.3582 42.9999 40.3582M35.7881 17.4442V6.97808H43M43 1V85M43 70.8924C51.0647 70.8924 57.5974 63.2376 57.5974 53.7876C57.5974 44.3376 51.0647 36.6827 43 36.6827M52.6833 66.5574H70.2291V68.9791H84.9999V38.6138H70.2291V41.0186H52.6833M47.0036 37.3437V17.4445M16.7681 76.38H1V31.23H16.7681V76.38ZM24.298 73.1449H16.7536V34.4473H24.298V73.1449Z" stroke="#5BC5F2" stroke-width="2" stroke-linecap="round" stroke-linejoin="round"/>
</svg>
