<svg width="98" height="86" viewBox="0 0 98 86" fill="none" xmlns="http://www.w3.org/2000/svg">
<path d="M81.6968 50.3904C81.6968 66.0967 70.8723 78.8291 57.5195 78.8291C44.1668 78.8291 33.3423 66.0967 33.3423 50.3904M81.6968 50.3904C81.6968 34.6841 70.8723 21.9517 57.5195 21.9517M81.6968 50.3904L77.0245 50.3905M33.3423 50.3904C33.3423 34.6841 44.1668 21.9517 57.5195 21.9517M33.3423 50.3904L38.0144 50.3905M57.5195 21.9517L57.5195 27.4296M82.1202 79.3089C95.6981 63.3377 95.6981 37.4245 82.1202 21.4533M92.9914 70.8075C98.0114 58.749 98.3138 44.6453 93.9138 32.3379M57.5193 45.3921C55.1727 45.3921 53.2705 47.6296 53.2705 50.3897C53.2705 53.1499 55.1727 55.3874 57.5193 55.3874C59.8658 55.3874 61.768 53.1499 61.768 50.3897C61.768 47.6296 59.8658 45.3921 57.5193 45.3921ZM57.5193 45.3921L57.5195 33.5471M57.5195 73.3335V78.8114M69.6002 25.7572L67.2717 30.5059M47.7667 70.2559L45.4381 75.0046M78.461 36.1618L74.4239 38.9007M40.6301 61.8615L36.593 64.6004M78.461 64.6004L74.4239 61.8615M40.6302 38.9007L36.5931 36.1618M69.6002 75.0046L67.2717 70.2559M47.7667 30.5057L45.4382 25.757M54.0419 15.9045V10.32H60.9972V15.9223M29.7587 26.0067H6.11068M23.9676 38.136H1M24.4818 50.2653H6.11068M24.4819 62.3954H2.46685M29.7587 74.5247H6.71548M59.7269 54.6409L63.129 61.9863M86.9434 50.3898C86.9434 69.5045 73.7699 85 57.5194 85C41.269 85 28.0955 69.5045 28.0955 50.3898C28.0955 31.2751 41.269 15.7796 57.5194 15.7796C73.7699 15.7796 86.9434 31.2751 86.9434 50.3898ZM49.1125 1H65.9262V10.3195H49.1125V1Z" stroke="#5BC5F2" stroke-width="2" stroke-linecap="round" stroke-linejoin="round"/>
</svg>
