<svg width="86" height="86" viewBox="0 0 86 86" fill="none" xmlns="http://www.w3.org/2000/svg">
<path d="M79.6836 1H1V37.7719H79.6836V1Z" stroke="#5BC5F2" stroke-width="2" stroke-linecap="round" stroke-linejoin="round"/>
<path d="M85 12.2983H79.6833V26.4474H85V12.2983Z" stroke="#5BC5F2" stroke-width="2" stroke-linecap="round" stroke-linejoin="round"/>
<path d="M16.1106 9.52677H7.61084V29.2466H16.1106V9.52677Z" stroke="#5BC5F2" stroke-width="2" stroke-linecap="round" stroke-linejoin="round"/>
<path d="M30.032 9.52677H21.5323V29.2466H30.032V9.52677Z" stroke="#5BC5F2" stroke-width="2" stroke-linecap="round" stroke-linejoin="round"/>
<path d="M44.2156 9.52677H35.7159V29.2466H44.2156V9.52677Z" stroke="#5BC5F2" stroke-width="2" stroke-linecap="round" stroke-linejoin="round"/>
<path d="M79.6836 48.2281H1V85H79.6836V48.2281Z" stroke="#5BC5F2" stroke-width="2" stroke-linecap="round" stroke-linejoin="round"/>
<path d="M85 59.5517H79.6833V73.7008H85V59.5517Z" stroke="#5BC5F2" stroke-width="2" stroke-linecap="round" stroke-linejoin="round"/>
<path d="M16.1106 56.7541H7.61084V76.4739H16.1106V56.7541Z" stroke="#5BC5F2" stroke-width="2" stroke-linecap="round" stroke-linejoin="round"/>
<path d="M30.032 56.7541H21.5323V76.4739H30.032V56.7541Z" stroke="#5BC5F2" stroke-width="2" stroke-linecap="round" stroke-linejoin="round"/>
<path d="M44.2156 56.7541H35.7159V76.4739H44.2156V56.7541Z" stroke="#5BC5F2" stroke-width="2" stroke-linecap="round" stroke-linejoin="round"/>
</svg>
