<svg width="86" height="86" viewBox="0 0 86 86" fill="none" xmlns="http://www.w3.org/2000/svg">
<path d="M54.1379 56.7941H61.6964V85H24.3038V56.7941H31.8432M54.1379 56.7941C54.1379 56.7941 50.3874 64.2501 42.9813 64.2501C35.5751 64.2501 31.8244 56.794 31.8244 56.794V45.5734H54.1381L54.1379 56.7941ZM30.9482 22.8232C16.65 21.7139 6.40702 18.6587 6.40702 15.058C6.40702 10.5298 22.7996 6.83808 42.9999 6.83808M55.0515 7.31037C69.3497 8.41969 79.5927 11.4749 79.5927 15.0756C79.5927 19.6038 63.2001 23.2955 42.9998 23.2955M36.8508 12.7115L43.0003 6.85577L36.8508 1M49.1303 17.4217L42.9998 23.2775L49.1303 29.1515M69.2357 56.7941H85V85H69.2357V56.7941ZM1 56.7941H16.7643V85H1V56.7941ZM16.7648 59.4304H24.3042V82.3624H16.7648V59.4304ZM61.6967 59.4304H69.2361V82.3624H61.6967V59.4304ZM35.7843 37.0445H50.1968V45.5735H35.7843V37.0445Z" stroke="#5BC5F2" stroke-width="2" stroke-linecap="round" stroke-linejoin="round"/>
</svg>
