<svg width="86" height="86" viewBox="0 0 86 86" fill="none" xmlns="http://www.w3.org/2000/svg">
<path d="M14.2461 24.0865C7.13845 26.368 1 26.6034 1 26.6034V53.9817C1 70.4051 21.8223 81.4144 21.8223 81.4144C21.8223 81.4144 25.683 79.3863 30.0769 75.7467M14.2462 30.6772C11.4193 31.492 8.80236 32.0171 6.67006 32.3612V53.9814C6.67006 62.6729 16.0877 70.5496 21.8223 74.2254C22.9854 73.483 24.2939 72.5595 25.6508 71.5093M72.0605 24.1774V8.93102C72.0605 8.93102 56.5528 8.33348 43.1613 1C29.7698 8.35158 14.246 8.93102 14.246 8.93102V46.9384C14.246 69.7355 43.1452 85 43.1452 85C43.1452 85 49.3967 81.7045 56.0844 75.8739M64.1773 20.8825V16.9351C58.6526 16.0659 50.8342 14.2733 43.145 10.688C35.4719 14.2733 27.6535 16.0478 22.1127 16.9351V46.9389C22.1127 58.9984 35.1812 69.9172 43.145 75.0234C45.1319 73.7559 47.4419 72.1082 49.7842 70.1888M64.1777 20.8812C54.5339 26.1685 43.3555 26.6031 43.3555 26.6031V53.9814C43.3555 70.4048 64.1777 81.4141 64.1777 81.4141C64.1777 81.4141 85 70.4048 85 53.9814V26.6031C85 26.6031 73.8216 26.1685 64.1777 20.8812ZM49.0255 32.3616V53.9818C49.0255 62.6733 58.4432 70.55 64.1778 74.2258C69.9124 70.55 79.3301 62.6914 79.3301 53.9818V32.3616C75.3401 31.7278 69.7024 30.4422 64.1778 27.871C58.637 30.4603 53.0155 31.746 49.0255 32.3616Z" stroke="#5BC5F2" stroke-width="2" stroke-linecap="round" stroke-linejoin="round"/>
</svg>
