<svg width="86" height="86" viewBox="0 0 86 86" fill="none" xmlns="http://www.w3.org/2000/svg">
<path d="M18.6644 19.7509C16.66 21.8482 14.8904 24.194 13.481 26.7574L4.33557 24.5513C2.81655 27.7517 1.68904 31.1695 1 34.7426L9.72259 38.3003C9.53468 39.7295 9.4094 41.1588 9.4094 42.6347C9.4094 44.1106 9.53468 45.5554 9.72259 46.9691L1 50.5267C1.67338 54.0999 2.80089 57.5177 4.33557 60.718L13.481 58.512C14.8904 61.0753 16.6443 63.4212 18.6644 65.5185L13.7159 73.4882C16.3311 75.9273 19.2595 78.0556 22.4385 79.7956L28.5615 72.6493C31.1767 73.8921 33.9485 74.8087 36.877 75.3369L37.5973 84.6582C39.3669 84.8757 41.1678 85 43 85C44.8322 85 46.6331 84.8757 48.4027 84.6582L49.123 75.3369C52.0515 74.8087 54.8389 73.8766 57.4385 72.6493L63.5615 79.7956C66.7405 78.0556 69.6689 75.9428 72.2841 73.4882L67.3356 65.5185C69.34 63.4212 71.1096 61.0753 72.519 58.512L81.6644 60.718C83.1834 57.5177 84.311 54.0999 85 50.5267L76.2774 46.9691C76.4653 45.5398 76.5906 44.1106 76.5906 42.6347C76.5906 41.1588 76.4653 39.714 76.2774 38.3003L85 34.7426C84.3266 31.1695 83.1991 27.7517 81.6644 24.5513L72.519 26.7574C71.1096 24.194 69.3557 21.8482 67.3356 19.7509M27.9355 59.4287C25.4792 59.4287 23.488 61.4041 23.488 63.8408C23.488 66.2775 25.4792 68.2529 27.9355 68.2529C30.3917 68.2529 32.3829 66.2775 32.3829 63.8408C32.3829 61.4041 30.3917 59.4287 27.9355 59.4287ZM27.9355 59.4287L27.9357 53.8356L36.2981 45.5403M58.05 59.4287C55.5937 59.4287 53.6026 61.4041 53.6026 63.8408C53.6026 66.2775 55.5937 68.2529 58.05 68.2529C60.5062 68.2529 62.4974 66.2775 62.4974 63.8408C62.4974 61.4041 60.5062 59.4287 58.05 59.4287ZM58.05 59.4287L58.0494 53.8356L49.7188 45.5713M42.9849 59.4285V30.4703M49.7652 16.9239H55.4967L42.9844 1L30.4878 16.9239H36.2193L36.2196 39.2327M49.7656 22.1121V45.8038M27.9357 25.53V40.848L20.1527 48.5693M58.0494 25.53V40.848L65.8324 48.5691M47.4788 63.8408C47.4788 66.2775 45.4876 68.2529 43.0314 68.2529C40.5751 68.2529 38.584 66.2775 38.584 63.8408C38.584 61.4041 40.5751 59.4287 43.0314 59.4287C45.4876 59.4287 47.4788 61.4041 47.4788 63.8408ZM73.4123 51.6768C73.4123 54.1135 71.4212 56.0888 68.9649 56.0888C66.5087 56.0888 64.5175 54.1135 64.5175 51.6768C64.5175 49.24 66.5087 47.2647 68.9649 47.2647C71.4212 47.2647 73.4123 49.24 73.4123 51.6768ZM21.4524 51.6761C21.4524 54.1129 19.4612 56.0882 17.005 56.0882C14.5487 56.0882 12.5576 54.1129 12.5576 51.6761C12.5576 49.2394 14.5487 47.2641 17.005 47.2641C19.4612 47.2641 21.4524 49.2394 21.4524 51.6761Z" stroke="#5BC5F2" stroke-width="2" stroke-linecap="round" stroke-linejoin="round"/>
</svg>
