<svg width="65" height="65" viewBox="0 0 65 65" fill="none" xmlns="http://www.w3.org/2000/svg">
<circle cx="32.3335" cy="32.667" r="32" fill="#0076FE"/>
<path fill-rule="evenodd" clip-rule="evenodd" d="M51.6708 22.5494C51.956 21.5989 51.6709 20.9336 50.3402 20.9336H45.9045C44.7639 20.9336 44.257 21.5356 43.9718 22.2009C43.9718 22.2009 41.7223 27.7138 38.5223 31.2623C37.4768 32.3079 37.0332 32.6247 36.4629 32.6247C36.1778 32.6247 35.7659 32.3079 35.7659 31.3574V22.5494C35.7659 21.4088 35.4491 20.9336 34.4986 20.9336H27.5283C26.8312 20.9336 26.3877 21.4722 26.3877 21.9475C26.3877 23.0247 27.9718 23.2781 28.1619 26.2564V32.7831C28.1619 34.2088 27.9085 34.4623 27.3382 34.4623C25.8491 34.4623 22.1738 28.9494 20.0194 22.6128C19.5758 21.4405 19.1639 20.9336 18.0233 20.9336H13.5877C12.3204 20.9336 12.0669 21.5356 12.0669 22.2009C12.0669 23.3732 13.556 29.2029 19.0689 36.9019C22.7441 42.1613 27.9085 45.0128 32.5976 45.0128C35.4174 45.0128 35.7659 44.3791 35.7659 43.3019V39.3098C35.7659 38.0425 36.0194 37.789 36.9382 37.789C37.6035 37.789 38.7124 38.1059 41.3421 40.6405C44.352 43.6504 44.859 45.0128 46.5382 45.0128H50.9738C52.2411 45.0128 52.8748 44.3791 52.4946 43.1435C52.0827 41.9079 50.657 40.1019 48.756 37.9475C47.7105 36.7118 46.158 35.4128 45.7144 34.7475C45.0491 33.892 45.2392 33.5118 45.7144 32.7831C45.7144 32.7514 51.1322 25.1475 51.6708 22.5494Z" fill="white"/>
</svg>
