<svg width="264" height="170" viewBox="0 0 264 170" fill="none" xmlns="http://www.w3.org/2000/svg">
<rect width="264" height="170" fill="#023671"/>
<g clip-path="url(#clip0_4276_191)">
<path fill-rule="evenodd" clip-rule="evenodd" d="M133.091 37C117.128 37 104.191 48.6221 104.191 62.9635C104.191 68.885 106.404 74.3372 110.106 78.6989L134.135 50.3337H131.554H128.989C126.238 50.3337 123.673 50.4994 121.829 50.8306C120.707 51.0239 119.693 51.3965 118.879 51.9073C117.927 52.5146 116.713 53.7983 115.945 55.0543C115.852 55.2062 115.729 55.427 115.56 55.7169L114.147 55.4408L116.498 47.2971H146.58L122.674 76.0211C124.226 75.8969 124.856 75.8693 126.1 75.8693C127.068 75.8693 128.543 75.9245 130.51 76.0211L134.75 76.242C136.286 76.3248 137.577 76.3662 138.56 76.3662C140.757 76.3662 142.186 76.2144 143.6 75.8279C144.706 75.5242 145.735 75.0687 146.688 74.489C148.362 73.4538 149.991 71.7698 150.974 70.0996C151.067 69.934 151.22 69.6717 151.405 69.3267L152.68 69.6165C152.265 71.0382 152.05 71.5766 151.405 72.8602C150.114 75.4414 148.67 77.1668 146.672 78.4919C144.629 79.8584 142.355 80.5209 139.682 80.5623H139.267C137.285 80.5623 135.749 80.4105 130.986 79.7617C126.146 79.0992 123.688 78.8646 121.26 78.8646C119.632 78.8646 118.111 78.975 116.559 79.1958C114.485 79.4995 113.671 79.7203 111.781 80.4933C117.066 85.6694 124.641 88.9132 133.075 88.9132C149.038 88.9132 161.975 77.291 161.975 62.9497C161.975 48.6083 149.054 37 133.091 37Z" fill="white"/>
<path fill-rule="evenodd" clip-rule="evenodd" d="M78.5948 106.913H56.4708L53.7514 112.31C54.6578 111.882 55.0112 111.73 55.8101 111.441C57.07 110.985 58.4527 110.64 59.7894 110.433C60.9417 110.254 62.0172 110.171 63.7533 110.129C64.5215 110.116 65.259 110.102 65.935 110.102H69.2075L51.9999 132.187H76.321L79.1326 126.417C78.1493 126.914 77.8113 127.079 77.0585 127.383C75.645 127.963 74.0932 128.377 72.5107 128.639C71.2509 128.832 69.8374 128.943 68.0859 128.984C67.5021 128.984 66.7493 128.998 65.8428 128.998H61.5255L78.5795 106.899L78.5948 106.913Z" fill="white"/>
<path fill-rule="evenodd" clip-rule="evenodd" d="M151.697 132.185C151.266 131.84 151.113 131.689 150.821 131.288C150.637 131.04 150.498 130.778 150.391 130.515C150.145 129.936 150.007 129.094 150.007 128.293V111.591C150.037 109.894 150.083 109.438 150.314 108.748C150.406 108.472 150.544 108.21 150.713 107.961C151.005 107.533 151.205 107.34 151.773 106.912H142.74C143.323 107.368 143.523 107.547 143.784 107.92C143.969 108.182 144.122 108.458 144.214 108.734C144.43 109.341 144.491 109.949 144.506 111.453C144.506 112.226 144.506 112.723 144.506 112.972V128.1C144.506 128.983 144.337 129.936 144.061 130.543C143.938 130.805 143.8 131.054 143.615 131.288C143.4 131.564 143.262 131.716 142.755 132.185H151.681H151.697Z" fill="white"/>
<path fill-rule="evenodd" clip-rule="evenodd" d="M179.951 107.147C179.259 106.94 178.983 106.885 178.23 106.733C176.617 106.429 175.05 106.277 173.283 106.277C170.256 106.277 167.644 106.719 165.263 107.616C163.849 108.155 162.543 108.845 161.391 109.673C157.919 112.185 156.044 115.815 156.044 119.998C156.044 124.18 157.857 127.575 161.176 129.922C163.911 131.868 167.444 132.848 171.685 132.848C174.328 132.848 176.801 132.489 179.582 131.716C179.69 131.689 179.843 131.647 180.043 131.592V126.996C179.367 127.396 179.136 127.534 178.722 127.741C178.184 128.017 177.6 128.279 177.001 128.514C175.311 129.163 173.759 129.453 172.1 129.453C169.181 129.453 166.692 128.514 164.848 126.733C163.02 124.967 162.036 122.51 162.036 119.735C162.036 116.961 162.943 114.628 164.571 112.917C165.278 112.171 166.139 111.536 167.122 111.039C168.704 110.239 170.563 109.825 172.561 109.825C174.281 109.825 175.941 110.128 177.615 110.736C178.66 111.122 179.029 111.302 179.935 111.881V107.133L179.951 107.147Z" fill="white"/>
<path fill-rule="evenodd" clip-rule="evenodd" d="M204.61 120.715V126.885C204.61 128.252 204.579 128.748 204.487 129.452C204.426 129.839 204.333 130.212 204.18 130.543C203.98 131.012 203.642 131.454 203.166 131.868C203.089 131.937 202.951 132.047 202.782 132.185H211.77C211.401 131.854 211.263 131.716 211.017 131.399C210.802 131.123 210.617 130.847 210.494 130.57C210.218 129.977 210.156 129.535 210.126 128.293C210.126 127.548 210.11 127.106 210.11 126.982V113.082L210.126 111.578C210.126 110.473 210.218 109.604 210.433 108.9C210.525 108.568 210.679 108.265 210.878 107.975C211.17 107.533 211.385 107.34 212 106.912H202.828C203.35 107.312 203.534 107.492 203.857 107.947C204.057 108.237 204.21 108.541 204.318 108.831C204.533 109.424 204.625 110.156 204.625 111.481V117.623H192.011V113.013C192.011 111.619 192.042 110.708 192.088 110.018C192.119 109.604 192.196 109.231 192.303 108.914C192.503 108.361 193.01 107.616 193.471 107.188C193.533 107.119 193.64 107.036 193.778 106.912H184.76C185.297 107.409 185.436 107.561 185.682 107.878C185.881 108.141 186.035 108.43 186.158 108.734C186.404 109.369 186.45 109.714 186.465 111.412V113.013L186.48 126.844C186.48 128.252 186.45 128.873 186.373 129.508C186.327 129.839 186.235 130.17 186.096 130.515C185.866 131.067 185.528 131.495 185.021 131.937C184.959 131.992 184.852 132.075 184.714 132.185H193.609C193.225 131.827 193.087 131.675 192.857 131.357C192.688 131.123 192.534 130.847 192.411 130.57C192.119 129.908 192.027 129.425 191.996 128.362C191.996 127.824 191.981 127.327 191.981 126.857V120.729H204.595L204.61 120.715Z" fill="white"/>
<path fill-rule="evenodd" clip-rule="evenodd" d="M82.4205 106.913C82.9736 107.327 83.1734 107.506 83.4499 107.934C83.6343 108.21 83.7726 108.5 83.8494 108.817C83.9569 109.204 84.0184 109.59 84.0337 109.977C84.0337 110.253 84.0491 110.777 84.0491 111.55V113.013V120.232C84.0491 122.786 84.0645 123.656 84.1567 124.691C84.3103 126.499 84.9556 128.004 86.1232 129.329C87.3063 130.667 88.9195 131.675 90.8707 132.296C92.3764 132.779 94.0818 133.014 96.0022 133.014C98.1225 133.014 100.181 132.724 101.702 132.213C103.3 131.675 104.821 130.764 105.897 129.687C107.187 128.39 107.925 126.803 108.17 124.787C108.309 123.587 108.355 122.51 108.355 120.26V111.564V111.357C108.355 110.087 108.478 109.287 108.616 108.859C108.908 107.962 109.415 107.437 109.876 107.12C110.06 106.995 110.106 106.954 110.199 106.899H101.871C102.209 107.354 102.317 107.561 102.486 108.003C102.593 108.293 102.67 108.624 102.716 108.955C102.839 109.853 102.901 110.998 102.901 113.151V120.992C102.901 123.172 102.839 124.263 102.67 125.271C102.547 125.947 102.301 126.568 101.948 127.106C101.241 128.169 99.9969 128.942 98.4912 129.273C97.892 129.411 97.216 129.48 96.4939 129.48C95.0497 129.48 93.7898 129.204 92.6683 128.652C91.9615 128.307 91.3931 127.852 90.9936 127.341C90.2254 126.333 89.995 125.312 89.9642 122.717L89.9335 119.528V113.124C89.9335 110.971 89.9796 109.797 90.1179 108.928C90.21 108.265 90.4405 107.672 90.8092 107.106C90.84 107.051 90.9014 106.982 90.9629 106.871H82.4359L82.4205 106.913Z" fill="white"/>
<path fill-rule="evenodd" clip-rule="evenodd" d="M122.044 126.983C122.044 127.438 122.044 127.866 122.044 128.253C122.06 129.426 122.167 130.033 122.413 130.585C122.536 130.848 122.689 131.11 122.889 131.358C123.135 131.662 123.258 131.786 123.673 132.173H114.731C115.253 131.745 115.407 131.593 115.668 131.289C115.868 131.041 116.037 130.779 116.16 130.489C116.39 129.937 116.482 129.247 116.482 128.046V111.468C116.482 110.129 116.406 109.343 116.206 108.777C116.098 108.459 115.929 108.155 115.714 107.852C115.453 107.493 115.269 107.314 114.762 106.899H122.029C122.92 106.899 123.796 106.899 124.641 106.927C126.884 106.982 128.19 107.106 129.45 107.369C131.247 107.755 132.86 108.556 134.013 109.646C135.273 110.833 135.918 112.241 135.918 113.801C135.918 114.45 135.795 115.112 135.564 115.747C135.15 116.893 134.458 117.79 133.352 118.632C132.369 119.377 131.293 119.929 129.895 120.44C129.404 120.62 129.188 120.689 128.651 120.827L133.014 125.437C133.552 126.003 134.228 126.679 135.057 127.494C136.379 128.777 137.254 129.578 138.238 130.42C138.668 130.779 139.067 131.11 139.452 131.414C139.82 131.703 140.005 131.841 140.481 132.173H136.947C136.425 132.173 135.933 132.173 135.488 132.159C134.259 132.118 133.506 131.966 132.691 131.565C131.754 131.11 130.786 130.42 129.788 129.495C129.48 129.205 129.019 128.75 128.42 128.128C127.882 127.576 127.498 127.176 127.253 126.914L122.044 121.296V126.983ZM122.505 119.184C122.905 119.184 123.396 119.143 123.98 119.074C125.486 118.88 126.515 118.577 127.529 118.038C128.051 117.762 128.497 117.445 128.85 117.086C129.573 116.354 129.941 115.388 129.941 114.243C129.941 112.918 129.45 111.869 128.497 111.137C127.944 110.723 127.299 110.405 126.592 110.226C125.532 109.95 124.195 109.798 122.797 109.798C122.567 109.798 122.413 109.798 122.06 109.798V119.156C122.275 119.156 122.367 119.156 122.52 119.156L122.505 119.184Z" fill="white"/>
</g>
<defs>
<clipPath id="clip0_4276_191">
<rect width="160" height="96" fill="white" transform="translate(52 37)"/>
</clipPath>
</defs>
</svg>
